<?xml version="1.0" standalone="no"?>
<!DOCTYPE svg PUBLIC "-//W3C//DTD SVG 1.1//EN" "http://www.w3.org/Graphics/SVG/1.1/DTD/svg11.dtd" >
<svg xmlns="http://www.w3.org/2000/svg" xmlns:xlink="http://www.w3.org/1999/xlink" version="1.1">
<metadata>
Created by FontForge 20170731 at Sat Jul 11 15:31:43 2020
 By Aleksey,,,
Copyright (c) 2015 by Fontfabric LLC. All rights reserved.
</metadata>
<defs>
<font id="MullerHeavy" horiz-adv-x="1372" >
  <font-face 
    font-family="Muller Heavy"
    font-weight="900"
    font-stretch="normal"
    units-per-em="2048"
    panose-1="0 0 0 0 0 0 0 0 0 0"
    ascent="1597"
    descent="-451"
    x-height="983"
    cap-height="1434"
    bbox="-344 -696 2900 2030"
    underline-thickness="102"
    underline-position="-358"
    unicode-range="U+0020-25CA"
  />
<missing-glyph horiz-adv-x="335" 
 />
    <glyph glyph-name="f_f" unicode="ff" horiz-adv-x="1597" 
d="M1595 1087q-47 27 -100 27q-42 0 -70 -22t-28 -64v-45h178v-389h-178v-594h-496v594h-242v-594h-495v594h-123v389h123v59q0 101 38 181t104 130t152 76.5t185 26.5q185 0 344 -80q115 133 373 133q130 0 235 -32v-390zM659 983h242v43v35q-67 31 -137 31q-45 0 -75 -22
t-30 -58v-29z" />
    <glyph glyph-name="f_f_i" unicode="ffi" horiz-adv-x="2168" 
d="M659 0h-495v594h-123v389h123v59q0 101 38 181t104 130t152 76.5t185 26.5q205 0 375 -94q148 145 442 145q201 0 420 -73v-375q-179 53 -313 53q-170 0 -170 -106v-23h704v-983h-495v594h-209v-594h-496v594h-242v-594zM659 1012v-29h242v47v31q-67 31 -137 31
q-45 0 -75 -22t-30 -58z" />
    <glyph glyph-name="f_f_l" unicode="ffl" horiz-adv-x="2201" 
d="M1403 1507q144 0 305 -47l426 35v-1495h-496v1090q-67 21 -112 18q-129 -3 -129 -107v-18h137v-389h-137v-594h-496v594h-242v-594h-495v594h-123v389h123v59q0 101 38 181t104 130t152 76.5t185 26.5q200 0 371 -92q137 143 389 143zM901 983v51v27q-67 31 -137 31
q-45 0 -75 -22t-30 -58v-29h242z" />
    <glyph glyph-name=".notdef" horiz-adv-x="335" 
 />
    <glyph glyph-name=".null" horiz-adv-x="0" 
 />
    <glyph glyph-name="nonmarkingreturn" horiz-adv-x="682" 
 />
    <glyph glyph-name="space" unicode=" " horiz-adv-x="335" 
 />
    <glyph glyph-name="exclam" unicode="!" horiz-adv-x="661" 
d="M524 586h-389l-72 848h533zM594 219q0 -123 -75.5 -188.5t-188.5 -65.5q-112 0 -187 65.5t-75 188.5t75 188.5t187 65.5q113 0 188.5 -65.5t75.5 -188.5z" />
    <glyph glyph-name="quotedbl" unicode="&#x22;" horiz-adv-x="1056" 
d="M942 844h-350v590h428zM426 844h-350v590h428z" />
    <glyph glyph-name="numbersign" unicode="#" horiz-adv-x="1536" 
d="M537 0h-418l55 236h-123v327h201l63 268h-161v328h239l56 236h417l-55 -236h135l55 236h418l-55 -236h121v-328h-199l-63 -268h159v-327h-237l-55 -236h-418l55 236h-135zM733 831l-63 -268h135l63 268h-135z" />
    <glyph glyph-name="dollar" unicode="$" horiz-adv-x="1331" 
d="M846 -225h-369v200q-228 30 -399 127v486q134 -85 271 -129.5t249 -44.5q76 0 100.5 12t24.5 37q0 18 -28.5 32t-75 23t-105.5 24.5t-121 33t-121 50.5t-105.5 76t-75 110.5t-28.5 152.5q0 185 112.5 299t301.5 149v205h369v-205q209 -32 358 -108v-459q-115 66 -246 104
t-245 37q-86 0 -86 -41q0 -21 28 -37t74.5 -25.5t105.5 -24t120.5 -30.5t120.5 -47.5t105.5 -72.5t74.5 -107.5t28 -150.5q0 -414 -438 -474v-202z" />
    <glyph glyph-name="percent" unicode="%" horiz-adv-x="2011" 
d="M731 -123h-287l838 1679h287zM909 1063q0 -133 -60 -226.5t-156 -136.5t-218 -43q-91 0 -168.5 25t-137.5 74t-94 127.5t-34 179.5t34 179.5t94 127t137.5 73.5t168.5 25q188 0 311 -104t123 -301zM389 1063q0 -94 86 -94t86 94t-86 94t-86 -94zM1970 371
q0 -133 -60 -226.5t-156 -136.5t-218 -43t-217.5 43t-155 136.5t-59.5 226.5t59.5 227t155.5 137t217 43q90 0 167.5 -25.5t137.5 -74t94.5 -127.5t34.5 -180zM1450 371q0 -95 86 -95t86 95q0 96 -86 96t-86 -96z" />
    <glyph glyph-name="ampersand" unicode="&#x26;" horiz-adv-x="1550" 
d="M1307 274l268 -274h-496l-65 66q-216 -101 -467 -101q-240 0 -374 105t-134 274q0 73 24.5 136t69 111t90.5 82t105 66q-73 75 -117.5 153.5t-44.5 172.5q0 178 143.5 290.5t384.5 112.5q232 0 364 -111t132 -274q0 -204 -299 -385l153 -155q62 99 62 211h407
q0 -126 -53.5 -250.5t-152.5 -229.5zM772 1077q0 36 -22 58t-62 22q-44 0 -70 -26t-26 -66q0 -50 76 -137q104 76 104 149zM494 393q0 -43 31.5 -67.5t92.5 -24.5q58 0 132 23l-187 184q-69 -53 -69 -115z" />
    <glyph glyph-name="quotesingle" unicode="'" horiz-adv-x="540" 
d="M426 844h-350v590h428z" />
    <glyph glyph-name="parenleft" unicode="(" horiz-adv-x="741" 
d="M371 1665h350q-199 -515 -199 -948t199 -948h-350q-150 200 -239 451.5t-89 496.5t89 496.5t239 451.5z" />
    <glyph glyph-name="parenright" unicode=")" horiz-adv-x="741" 
d="M20 1665h353q149 -199 237 -450.5t88 -497.5t-88 -497.5t-237 -450.5h-353q199 505 199 948t-199 948z" />
    <glyph glyph-name="asterisk" unicode="*" horiz-adv-x="1130" 
d="M565 739l-114 -241l-342 229l159 145l-229 48l158 397l194 -125l-39 242h426l-39 -242l195 125l158 -397l-230 -48l160 -145l-342 -229z" />
    <glyph glyph-name="plus" unicode="+" horiz-adv-x="1142" 
d="M766 913h326v-389h-326v-325h-389v325h-326v389h326v326h389v-326z" />
    <glyph glyph-name="comma" unicode="," horiz-adv-x="591" 
d="M317 -293h-354l150 655h450z" />
    <glyph glyph-name="hyphen" unicode="-" horiz-adv-x="974" 
d="M80 676h815v-369h-815v369z" />
    <glyph glyph-name="period" unicode="." horiz-adv-x="602" 
d="M563 219q0 -123 -75.5 -188.5t-188.5 -65.5q-112 0 -187 65.5t-75 188.5t75 188.5t187 65.5q113 0 188.5 -65.5t75.5 -188.5z" />
    <glyph glyph-name="slash" unicode="/" horiz-adv-x="1058" 
d="M375 -127h-344l655 1688h344z" />
    <glyph glyph-name="zero" unicode="0" horiz-adv-x="1443" 
d="M53 696q0 119 23 224.5t74.5 199t128 161t190.5 107t254 39.5t253 -39.5t189.5 -107t128 -161t74.5 -199t23 -224.5t-23 -224.5t-74.5 -199t-128 -161t-189.5 -107t-253 -39.5t-254 39.5t-190.5 107t-128 161t-74.5 199t-23 224.5zM848 696q0 142 -30 201t-95 59
q-66 0 -96.5 -58.5t-30.5 -201.5t30.5 -201.5t96.5 -58.5q65 0 95 59t30 201z" />
    <glyph glyph-name="one" unicode="1" horiz-adv-x="1073" 
d="M432 1393h397v-953h211v-440h-968v440h231v451l-209 -78v451z" />
    <glyph glyph-name="two" unicode="2" horiz-adv-x="1286" 
d="M104 1282q116 67 259 106t282 39q92 0 173.5 -15.5t154.5 -51t125.5 -88.5t83 -132.5t30.5 -178.5q0 -120 -45 -198t-129 -145q-21 -17 -105 -76.5t-128 -99.5h405v-440h-1149v213q0 54 10.5 102.5t26.5 87t41.5 75t51.5 64.5t61.5 58t65 52t68.5 50q16 11 24 17
q40 29 109.5 69t97.5 64.5t28 54.5q0 60 -94 60q-207 0 -447 -178v491z" />
    <glyph glyph-name="three" unicode="3" horiz-adv-x="1241" 
d="M1135 1018q0 -100 -57.5 -183t-166.5 -120q121 -25 201 -108.5t80 -217.5q0 -92 -33 -165t-88.5 -120.5t-133 -79.5t-162.5 -45.5t-181 -13.5q-294 0 -524 84v451q207 -101 456 -101q150 0 150 66q0 20 -18 33.5t-52 13.5h-256v377h213q60 0 60 41q0 57 -125 57
q-90 0 -209 -34.5t-195 -82.5v430q95 60 227.5 93.5t268.5 33.5q86 0 164 -13.5t148.5 -45t121.5 -78t81 -116.5t30 -156z" />
    <glyph glyph-name="four" unicode="4" horiz-adv-x="1413" 
d="M664 1393h536v-826h164v-409h-164v-158h-481v158h-680v430zM719 567v264l-205 -264h205z" />
    <glyph glyph-name="five" unicode="5" horiz-adv-x="1245" 
d="M162 1393h973v-439h-506l-6 -90q66 8 104 8q70 0 133.5 -12.5t125 -44t106.5 -79t72.5 -122.5t27.5 -170q0 -108 -38.5 -192.5t-101 -137.5t-150 -87.5t-177 -48t-190.5 -13.5q-122 0 -249 25t-223 69v414q61 -37 165.5 -62.5t201.5 -25.5t158 26.5t61 77.5
q0 105 -256 101q-142 0 -280 -29z" />
    <glyph glyph-name="six" unicode="6" horiz-adv-x="1392" 
d="M580 813q133 88 307 88q93 0 174.5 -26t147 -78t103.5 -137.5t38 -196.5q0 -104 -32 -188.5t-87 -141t-131 -95t-161.5 -56t-180.5 -17.5q-180 0 -315 50.5t-220.5 147t-127.5 229.5t-42 304q0 152 39 275.5t106.5 207t161 140.5t199.5 82.5t225 25.5q265 0 445 -94v-397
q-169 86 -322 86q-145 0 -223.5 -46t-103.5 -163zM580 510q35 -160 159 -160q46 0 77.5 27t31.5 69q0 55 -33 81t-90 26q-75 0 -145 -43z" />
    <glyph glyph-name="seven" unicode="7" horiz-adv-x="1224" 
d="M39 1393h1161v-336l-485 -1057h-590l438 952h-524v441z" />
    <glyph glyph-name="eight" unicode="8" 
d="M100 997q0 64 20.5 124.5t66.5 116.5t113 97.5t167.5 66.5t222.5 25q119 0 218 -24t165.5 -63.5t113 -92t66.5 -108.5t19 -113q-3 -104 -47 -164.5t-127 -107.5q69 -38 116.5 -83t78 -115.5t30.5 -158.5t-37.5 -164.5t-113 -137t-202 -95.5t-290.5 -35q-139 0 -248.5 23
t-180 61.5t-117 91.5t-66 110.5t-19.5 121.5q0 114 61 202t140 127q-150 121 -150 295zM696 508q-54 14 -88 24q-30 -34 -30 -83q0 -41 28.5 -69t87.5 -28q54 0 77.5 20t23.5 50q0 35 -26.5 54t-72.5 32zM780 963q-2 35 -26 56t-72 21q-43 0 -66.5 -17t-23.5 -42
q0 -29 24.5 -44.5t69.5 -29.5q35 -10 78 -24q18 49 16 80z" />
    <glyph glyph-name="nine" unicode="9" horiz-adv-x="1392" 
d="M43 930q0 129 48.5 227t132.5 155.5t187.5 86t223.5 28.5q355 0 529.5 -191.5t174.5 -539.5q0 -152 -39 -275.5t-106.5 -207t-161 -140.5t-199.5 -82.5t-225 -25.5q-264 0 -444 94v398q169 -86 321 -86q145 0 224 46t104 163q-133 -88 -307 -88q-93 0 -174.5 26t-147 78
t-103.5 137.5t-38 196.5zM653 1042q-46 0 -77 -27t-31 -69q0 -106 123 -106q75 0 145 43q-35 159 -160 159z" />
    <glyph glyph-name="colon" unicode=":" horiz-adv-x="610" 
d="M553 772q0 -116 -72 -178t-178 -62q-105 0 -175.5 62t-70.5 178t70.5 178t175.5 62q106 0 178 -62t72 -178zM553 205q0 -116 -72 -178t-178 -62q-105 0 -175.5 62t-70.5 178t70.5 177.5t175.5 61.5q107 0 178.5 -61.5t71.5 -177.5z" />
    <glyph glyph-name="semicolon" unicode=";" horiz-adv-x="636" 
d="M328 -293h-355l150 655h450zM594 758q0 -123 -75.5 -188.5t-188.5 -65.5q-112 0 -187 65.5t-75 188.5t75 188.5t187 65.5q113 0 188.5 -65.5t75.5 -188.5z" />
    <glyph glyph-name="less" unicode="&#x3c;" horiz-adv-x="1048" 
d="M950 629v-426l-895 266v496l895 266v-426l-499 -88z" />
    <glyph glyph-name="equal" unicode="=" horiz-adv-x="1282" 
d="M1174 778h-1065v369h1065v-369zM1174 287h-1065v368h1065v-368z" />
    <glyph glyph-name="greater" unicode="&#x3e;" horiz-adv-x="1048" 
d="M993 469l-895 -266v426l502 88l-502 88v426l895 -266v-496z" />
    <glyph glyph-name="question" unicode="?" horiz-adv-x="1042" 
d="M678 551h-459q0 68 24.5 126.5t59.5 97.5t70 71t59.5 60.5t24.5 51.5q0 52 -88 52q-66 0 -156 -25.5t-150 -60.5v458q191 86 420 86q516 0 516 -378q0 -64 -24 -125.5t-59.5 -107t-77 -91t-77 -80t-59.5 -70.5t-24 -65zM715 219q0 -123 -75.5 -188.5t-188.5 -65.5
q-112 0 -187.5 65.5t-75.5 188.5t75.5 188.5t187.5 65.5q113 0 188.5 -65.5t75.5 -188.5z" />
    <glyph glyph-name="at" unicode="@" horiz-adv-x="2134" 
d="M45 492q0 153 41 295t125.5 266t205 216.5t290.5 145.5t370 53q205 0 375 -55t282.5 -144.5t190 -207t112 -240t34.5 -246.5q0 -134 -40 -242t-108 -176.5t-156 -104.5t-188 -36q-111 0 -189 23.5t-119 57t-79 87.5q-37 -47 -103 -80.5t-151 -33.5q-81 0 -147 26.5
t-108 69t-71 98.5t-41 112t-12 113q0 56 11.5 112t38 111t65.5 97t98.5 68t132.5 26q150 0 242 -106v84h360v-457q0 -100 74 -100q23 0 39.5 10t26.5 31.5t16 41.5t8.5 55t3 55t0.5 58q0 73 -20.5 145.5t-67 142t-114.5 122t-170 85t-226 32.5q-144 0 -263 -51
t-195.5 -136.5t-118 -194.5t-41.5 -228q0 -134 39.5 -239.5t106.5 -173t162.5 -111.5t199.5 -62.5t225 -18.5q196 0 432 70v-367q-207 -73 -446 -73q-185 0 -351.5 37.5t-310 117t-248 193t-164 274.5t-59.5 353zM1147 580q-29 32 -74 32q-39 0 -63 -22.5t-30.5 -47.5
t-6.5 -55q0 -28 6.5 -52t30.5 -46t63 -22q45 0 74 32v181z" />
    <glyph glyph-name="A" unicode="A" horiz-adv-x="1589" 
d="M539 0h-551l514 1434h585l515 -1434h-551l-47 164h-418zM752 754l-64 -222h211l-61 222q-33 124 -43 215q-10 -91 -43 -215z" />
    <glyph glyph-name="B" unicode="B" horiz-adv-x="1456" 
d="M86 1434h772q512 0 512 -363q0 -112 -44 -187t-155 -120q256 -78 256 -348q0 -95 -30 -168t-82 -119.5t-128 -76t-159.5 -41t-185.5 -11.5h-756v1434zM883 481q0 39 -23 65.5t-72 26.5h-157v-184h157q49 0 72 26.5t23 65.5zM856 963q0 35 -22 60.5t-68 25.5h-135v-172
h135q46 0 68 25.5t22 60.5z" />
    <glyph glyph-name="C" unicode="C" horiz-adv-x="1327" 
d="M41 707q-1 159 43.5 288.5t120 216t178.5 145.5t215.5 85t235.5 26q232 0 426 -84v-471q-62 34 -151.5 59t-178.5 25q-67 0 -124 -15.5t-104 -48.5t-73.5 -90.5t-26.5 -135.5q0 -67 26 -118.5t71 -82.5t100.5 -46.5t118.5 -15.5q112 0 207 22.5t145 61.5v-479
q-190 -84 -420 -84q-129 0 -245 26t-220 83.5t-180 142.5t-120 210.5t-44 279.5z" />
    <glyph glyph-name="D" unicode="D" horiz-adv-x="1521" 
d="M86 1434h653q189 0 332.5 -52t232.5 -148.5t133 -226t44 -290.5t-44 -290.5t-133 -226t-232.5 -148.5t-332.5 -52h-653v1434zM920 717q0 146 -52 206t-149 60h-88v-532h88q97 0 149 60t52 206z" />
    <glyph glyph-name="E" unicode="E" horiz-adv-x="1282" 
d="M86 1434h1126v-410h-581v-123h499v-364h-499v-123h594v-414h-1139v1434z" />
    <glyph glyph-name="F" unicode="F" horiz-adv-x="1224" 
d="M86 1434h1085v-471h-540v-123h481v-451h-481v-389h-545v1434z" />
    <glyph glyph-name="G" unicode="G" horiz-adv-x="1411" 
d="M37 717q0 151 44 276.5t119 212t177 146.5t215.5 88t236.5 28q269 0 478 -84v-471q-67 39 -168 61.5t-195 22.5q-74 0 -134.5 -15.5t-109 -47.5t-75.5 -87t-27 -130q0 -72 24.5 -125.5t61 -79.5t68.5 -37.5t59 -11.5h23v346h507v-748q-252 -96 -495 -96
q-128 0 -245.5 29.5t-220.5 90.5t-179 149t-120 212t-44 271z" />
    <glyph glyph-name="H" unicode="H" horiz-adv-x="1540" 
d="M909 1434h545v-1434h-545v481h-278v-481h-545v1434h545v-482h278v482z" />
    <glyph glyph-name="I" unicode="I" horiz-adv-x="716" 
d="M86 1434h545v-1434h-545v1434z" />
    <glyph glyph-name="J" unicode="J" horiz-adv-x="1064" 
d="M139 1434h852v-895q0 -128 -34.5 -227.5t-90.5 -161t-134 -101t-157.5 -54.5t-168.5 -15q-241 0 -373 57v471q106 -37 225 -37q188 0 188 131v361h-307v471z" />
    <glyph glyph-name="K" unicode="K" horiz-adv-x="1523" 
d="M631 0h-545v1434h545v-482h74l253 482h598l-423 -719l423 -715h-598l-270 481h-57v-481z" />
    <glyph glyph-name="L" unicode="L" horiz-adv-x="1234" 
d="M86 1434h545v-963h581v-471h-1126v1434z" />
    <glyph glyph-name="M" unicode="M" horiz-adv-x="1851" 
d="M1298 1434h467v-1434h-524v571l-178 -280h-275l-178 284v-575h-524v1434h467l373 -592z" />
    <glyph glyph-name="N" unicode="N" horiz-adv-x="1560" 
d="M631 0h-545v1434h432l426 -557q-14 100 -14 249v308h545v-1434h-433l-426 557q15 -107 15 -250v-307z" />
    <glyph glyph-name="O" unicode="O" horiz-adv-x="1640" 
d="M37 717q0 160 50 295.5t145.5 238t246 160t340.5 57.5t341 -57.5t247 -160t146.5 -238t50.5 -295.5t-50.5 -296t-146.5 -238t-247 -160t-341 -58t-340.5 58t-246 160t-145.5 238t-50 296zM1042 717q0 126 -59.5 193t-163.5 67q-102 0 -161.5 -67t-59.5 -193t59.5 -193
t161.5 -67q104 0 163.5 67t59.5 193z" />
    <glyph glyph-name="P" unicode="P" horiz-adv-x="1439" 
d="M86 1434h672q657 0 657 -560q0 -559 -657 -559h-127v-315h-545v1434zM883 874q0 121 -146 121h-106v-241h106q146 0 146 120z" />
    <glyph glyph-name="Q" unicode="Q" horiz-adv-x="1640" 
d="M1604 160l-285 -250l-127 125q-162 -70 -373 -70q-190 0 -340.5 58t-246 160t-145.5 238t-50 296t50 295.5t145.5 238t246 160t340.5 57.5t341 -57.5t247 -160t146.5 -238t50.5 -295.5q0 -251 -119 -436zM578 717q0 -138 67.5 -209.5t173.5 -71.5h17l-115 115l229 227
l111 -110q2 16 2 49q0 138 -68 209t-176 71q-106 0 -173.5 -71t-67.5 -209z" />
    <glyph glyph-name="R" unicode="R" horiz-adv-x="1515" 
d="M631 0h-545v1434h713q100 0 187.5 -15.5t170 -54t141 -96.5t94 -149.5t35.5 -207.5q0 -297 -223 -428l346 -483h-592l-256 389h-71v-389zM631 1004v-222h137q56 0 85.5 32t29.5 79t-29.5 79t-85.5 32h-137z" />
    <glyph glyph-name="S" unicode="S" horiz-adv-x="1316" 
d="M57 1006q0 114 45 203t124.5 145t183.5 85t227 29q148 0 297.5 -32t263.5 -90v-459q-115 66 -246 104t-245 37q-86 0 -86 -41q0 -21 28 -38t74.5 -28t105.5 -28t120.5 -36t120.5 -53.5t105.5 -79t74.5 -115t28 -158.5q0 -112 -32.5 -198t-88 -140t-136.5 -87.5t-170 -47
t-198 -13.5q-334 0 -581 137v486q134 -85 271 -129.5t249 -44.5q76 0 100.5 12t24.5 37q0 20 -36.5 36t-94.5 31t-128.5 34.5t-141 54t-128.5 82t-94.5 126.5t-36.5 179z" />
    <glyph glyph-name="T" unicode="T" horiz-adv-x="1327" 
d="M23 1434h1282v-471h-369v-963h-545v963h-368v471z" />
    <glyph glyph-name="U" unicode="U" horiz-adv-x="1507" 
d="M891 1434h545v-869q0 -131 -37 -235t-99.5 -171.5t-151 -112t-185.5 -63t-209 -18.5q-111 0 -208 18.5t-185.5 63t-151.5 112t-100 171.5t-37 235v869h544v-844q0 -133 138 -133q137 0 137 133v844z" />
    <glyph glyph-name="V" unicode="V" horiz-adv-x="1562" 
d="M1061 0h-557l-516 1434h573l221 -797l219 797h574z" />
    <glyph glyph-name="W" unicode="W" horiz-adv-x="2322" 
d="M1735 1434h587l-428 -1434h-583l-150 596l-147 -596h-586l-428 1434h586l174 -752l184 752h434l183 -752z" />
    <glyph glyph-name="X" unicode="X" horiz-adv-x="1560" 
d="M584 0h-635l493 733l-473 701h635l176 -332l174 332h635l-471 -701l492 -733h-635l-195 342z" />
    <glyph glyph-name="Y" unicode="Y" horiz-adv-x="1585" 
d="M1063 0h-541v489l-534 945h614l191 -504l192 504h614l-536 -945v-489z" />
    <glyph glyph-name="Z" unicode="Z" horiz-adv-x="1353" 
d="M1300 0h-1247v336l463 627h-432v471h1188v-336l-463 -627h491v-471z" />
    <glyph glyph-name="bracketleft" unicode="[" horiz-adv-x="833" 
d="M782 -225h-690v1884h690v-422h-200v-1040h200v-422z" />
    <glyph glyph-name="backslash" unicode="\" horiz-adv-x="1056" 
d="M1028 -127h-344l-655 1688h344z" />
    <glyph glyph-name="bracketright" unicode="]" horiz-adv-x="833" 
d="M741 -225h-690v422h201v1040h-201v422h690v-1884z" />
    <glyph glyph-name="asciicircum" unicode="^" horiz-adv-x="1419" 
d="M539 631h-496l446 803h439l448 -803h-495l-172 340z" />
    <glyph glyph-name="underscore" unicode="_" horiz-adv-x="1099" 
d="M1100 -442h-1100v393h1100v-393z" />
    <glyph glyph-name="grave" unicode="`" horiz-adv-x="833" 
d="M752 1526h-412l-268 360h465z" />
    <glyph glyph-name="a" unicode="a" horiz-adv-x="1187" 
d="M1102 334q0 -47 49 -47q17 0 41 4v-281q-41 -19 -115 -31t-135 -12q-182 0 -254 101q-127 -103 -317 -103q-94 0 -169.5 30.5t-124 98t-48.5 164.5q0 72 25.5 128.5t66.5 91.5t99.5 57.5t118 31t128.5 8.5q103 0 180 -18v16q0 52 -44.5 74.5t-143.5 22.5q-169 0 -361 -66
v348q89 26 204.5 46t213.5 20q114 0 199 -12.5t161 -45t123.5 -87t75 -141.5t27.5 -206v-192zM590 371q-39 0 -67.5 -17.5t-28.5 -56.5q0 -33 22 -48.5t55 -15.5q38 0 76 23v109q-24 6 -57 6z" />
    <glyph glyph-name="b" unicode="b" horiz-adv-x="1284" 
d="M68 1434h495v-496q96 80 250 80q110 0 195 -42t136 -115.5t77 -166.5t26 -202t-26 -202t-77 -167t-136 -116t-195 -42q-89 0 -168.5 39.5t-140.5 104.5v-109h-436v1434zM735 492q0 56 -25 94.5t-75 38.5q-23 0 -43 -9t-29 -20v-209q29 -29 72 -29q50 0 75 38.5t25 95.5z
" />
    <glyph glyph-name="c" unicode="c" horiz-adv-x="997" 
d="M33 459q0 118 33.5 214t89.5 160t133.5 107.5t162 62.5t177.5 19q145 0 303 -51v-400q-103 45 -207 45q-79 0 -129.5 -29.5t-50.5 -94.5q0 -121 172 -121q118 0 225 39v-396q-164 -49 -344 -49q-90 0 -171 17t-153.5 55t-125.5 94t-84 140t-31 188z" />
    <glyph glyph-name="d" unicode="d" horiz-adv-x="1284" 
d="M721 1434h496v-1434h-437v109q-61 -65 -140.5 -104.5t-168.5 -39.5q-110 0 -195 42t-136 116t-77 167t-26 202t26 202t77 166.5t136 115.5t195 42q154 0 250 -80v496zM721 596q-9 11 -29 20t-43 9q-50 0 -75 -38.5t-25 -94.5q0 -57 25 -95.5t75 -38.5q43 0 72 29v209z
" />
    <glyph glyph-name="e" unicode="e" horiz-adv-x="1118" 
d="M33 502q0 111 35 201t90 147.5t127.5 96.5t143.5 55t142 16q96 0 175 -20t135 -55.5t97.5 -83.5t64.5 -103t34 -117t9 -122t-15 -120h-575q22 -48 92.5 -74t159.5 -26q161 0 284 33v-316q-146 -49 -352 -49q-98 0 -186.5 16t-174 55.5t-148 99t-100.5 153.5t-38 213z
M694 590q6 50 -18 84.5t-76 34.5q-55 0 -84 -35t-29 -84h207z" />
    <glyph glyph-name="f" unicode="f" horiz-adv-x="860" 
d="M659 0h-495v594h-123v389h123v80q0 90 27 162t70.5 116.5t102.5 74t117.5 41t120.5 11.5q144 0 256 -38v-363q-46 27 -100 27q-43 0 -71 -20t-28 -62v-29h179v-389h-179v-594z" />
    <glyph glyph-name="g" unicode="g" horiz-adv-x="1284" 
d="M37 512q0 109 25.5 199t77 159.5t136 108.5t195.5 39q89 0 168.5 -39.5t140.5 -104.5v109h437v-903q0 -121 -34 -217.5t-91 -160.5t-136.5 -107t-167.5 -61.5t-186 -18.5q-148 0 -249 17t-216 60v402q160 -78 361 -78q223 0 223 131v39q-96 -80 -250 -80
q-111 0 -195.5 39t-136 108.5t-77 159.5t-25.5 199zM721 606q-29 29 -72 29q-50 0 -75 -38.5t-25 -94.5t25 -94.5t75 -38.5q23 0 43 9t29 19v209z" />
    <glyph glyph-name="h" unicode="h" horiz-adv-x="1222" 
d="M68 1434h495v-488q106 72 232 72q78 0 141.5 -22t105 -58t69.5 -84.5t40 -98t12 -100.5v-655h-495v559q0 47 -52 47q-30 0 -53 -18v-588h-495v1434z" />
    <glyph glyph-name="i" unicode="i" horiz-adv-x="630" 
d="M563 0h-495v983h495v-983zM561 1288q0 -114 -70.5 -174.5t-175.5 -60.5t-175 60.5t-70 174.5t70 175t175 61t175.5 -61t70.5 -175z" />
    <glyph glyph-name="j" unicode="j" horiz-adv-x="630" 
d="M563 -94q0 -103 -35.5 -180.5t-98.5 -122.5t-140 -66.5t-168 -21.5q-124 0 -219 30v398q27 -6 71 -6q47 0 71 22t24 74v950h495v-1077zM561 1288q0 -114 -70.5 -174.5t-175.5 -60.5t-175 60.5t-70 174.5t70 175t175 61t175.5 -61t70.5 -175z" />
    <glyph glyph-name="k" unicode="k" horiz-adv-x="1277" 
d="M1294 0h-532l-146 301h-53v-301h-495v1434h495v-744h53l144 293h532l-291 -487z" />
    <glyph glyph-name="l" unicode="l" horiz-adv-x="630" 
d="M68 1495h495v-1495h-495v1495z" />
    <glyph glyph-name="m" unicode="m" horiz-adv-x="1769" 
d="M555 0h-487v983h436v-84q45 50 129.5 84.5t167.5 34.5q193 0 272 -127q57 58 140 92.5t165 34.5q332 0 332 -410v-608h-487v569q0 37 -41 37q-21 0 -49 -14v-35v-557h-488v569q0 37 -41 37q-21 0 -49 -14v-592z" />
    <glyph glyph-name="n" unicode="n" horiz-adv-x="1222" 
d="M502 897q130 121 293 121q78 0 141.5 -22t105 -58t69.5 -84.5t40 -98t12 -100.5v-655h-495v559q0 47 -52 47q-30 0 -53 -18v-588h-495v983h434v-86z" />
    <glyph glyph-name="o" unicode="o" horiz-adv-x="1218" 
d="M33 492q0 131 45 233t124 165t182 95.5t224 32.5t224.5 -32.5t183 -95.5t125 -165.5t45.5 -232.5t-45.5 -232.5t-125 -166t-183 -96t-224.5 -32.5t-224 32.5t-182 96t-124 165.5t-45 233zM715 492q0 63 -24.5 97t-82.5 34q-57 0 -80.5 -34t-23.5 -97q0 -132 104 -132
q107 0 107 132z" />
    <glyph glyph-name="p" unicode="p" horiz-adv-x="1284" 
d="M504 874q61 65 140.5 104.5t168.5 39.5q110 0 195 -42t136 -115.5t77 -166.5t26 -202t-26 -202t-77 -167t-136 -116t-195 -42q-154 0 -250 80v-496h-495v1434h436v-109zM735 492q0 56 -25 94.5t-75 38.5q-43 0 -72 -29v-209q9 -11 29 -20t43 -9q50 0 75 38.5t25 95.5z
" />
    <glyph glyph-name="q" unicode="q" horiz-adv-x="1284" 
d="M37 492q0 109 26 202t77 166.5t136 115.5t195 42q89 0 168.5 -39.5t140.5 -104.5v109h437v-1434h-496v496q-96 -80 -250 -80q-110 0 -195 42t-136 116t-77 167t-26 202zM721 596q-29 29 -72 29q-50 0 -75 -38.5t-25 -94.5q0 -57 25 -95.5t75 -38.5q23 0 43 9t29 20v209z
" />
    <glyph glyph-name="r" unicode="r" horiz-adv-x="880" 
d="M504 883q20 25 39 43t50 38.5t65.5 29t86 14.5t111.5 -4v-457q-69 28 -157.5 25t-135.5 -35v-537h-495v983h436v-100z" />
    <glyph glyph-name="s" unicode="s" horiz-adv-x="1013" 
d="M47 700q0 71 25.5 126.5t68 91t102.5 58.5t124 32.5t137 9.5q216 0 399 -84v-324q-64 34 -142.5 56t-142.5 22q-51 0 -51 -24q0 -16 23 -28.5t60 -23t81.5 -24t89 -36t81.5 -54t60 -84t23 -119.5q0 -76 -28 -134.5t-74 -95t-112 -59.5t-135 -32t-151 -9q-262 0 -426 84
v371q78 -58 172.5 -85.5t165.5 -27.5q72 0 72 27q0 15 -23.5 27t-60.5 23t-82 25t-90 37.5t-82 54.5t-60.5 82.5t-23.5 116.5z" />
    <glyph glyph-name="t" unicode="t" horiz-adv-x="901" 
d="M164 1237l498 115v-369h182v-389h-182v-154q0 -71 106 -71q48 0 86 10v-379q-151 -37 -287 -37q-403 0 -403 406v225h-123v389h123v254z" />
    <glyph glyph-name="u" unicode="u" horiz-adv-x="1222" 
d="M659 983h496v-983h-434v86q-130 -121 -293 -121q-78 0 -141.5 22t-105 58.5t-70 84.5t-40.5 97.5t-12 100.5v655h496v-559q0 -47 51 -47q30 0 53 18v588z" />
    <glyph glyph-name="v" unicode="v" horiz-adv-x="1267" 
d="M754 983h516l-373 -983h-526l-373 983h518l119 -534z" />
    <glyph glyph-name="w" unicode="w" horiz-adv-x="1748" 
d="M1247 983h494l-301 -983h-461l-105 416l-104 -416h-461l-301 983h494l92 -504l119 504h323l119 -504z" />
    <glyph glyph-name="x" unicode="x" horiz-adv-x="1200" 
d="M713 983h499l-305 -494l316 -489h-518l-105 203l-104 -203h-519l316 489l-305 494h499l113 -219z" />
    <glyph glyph-name="y" unicode="y" horiz-adv-x="1282" 
d="M670 487l110 496h500l-346 -1008q-44 -127 -109.5 -219t-143.5 -142.5t-158 -73.5t-169 -23q-121 0 -243 39v397q87 -25 153 -25q108 0 166 80l-442 975h508z" />
    <glyph glyph-name="z" unicode="z" horiz-adv-x="1048" 
d="M80 983h889v-293l-291 -301h319v-389h-950v293l291 301h-258v389z" />
    <glyph glyph-name="braceleft" unicode="{" horiz-adv-x="878" 
d="M834 139v-364q-301 -71 -481.5 36t-180.5 347v248q0 65 -41 86.5t-115 21.5v406q28 0 47.5 1.5t41.5 8t35.5 17.5t22.5 31.5t9 49.5v248q0 240 180.5 347t481.5 36v-365q-94 19 -133 -22.5t-39 -141.5v-167q0 -106 -56.5 -173t-154.5 -73q98 -6 154.5 -73t56.5 -173v-168
q0 -100 39 -141.5t133 -22.5z" />
    <glyph glyph-name="bar" unicode="|" horiz-adv-x="675" 
d="M584 -205h-492v1864h492v-1864z" />
    <glyph glyph-name="braceright" unicode="}" horiz-adv-x="878" 
d="M707 158q0 -240 -180.5 -347t-481.5 -36v364q94 -19 133 22.5t39 141.5v168q0 106 56.5 173t154.5 73q-98 6 -154.5 73t-56.5 173v167q0 100 -39 141.5t-133 22.5v365q301 71 481.5 -36t180.5 -347v-248q0 -29 8.5 -49.5t21.5 -32t35.5 -17.5t41.5 -7.5t48 -1.5v-406
q-74 0 -114.5 -21.5t-40.5 -86.5v-248z" />
    <glyph glyph-name="asciitilde" unicode="~" horiz-adv-x="1243" 
d="M1178 905q29 -233 -53.5 -344.5t-243.5 -111.5q-64 0 -148 23t-150.5 46t-86.5 23q-24 0 -33 -18.5t-6 -59.5h-381q-29 233 53.5 345t243.5 112q64 0 148 -23t150.5 -46.5t86.5 -23.5q24 0 33 18.5t6 59.5h381z" />
    <glyph glyph-name="exclamdown" unicode="&#xa1;" horiz-adv-x="641" 
d="M586 -451h-533l72 848h389zM584 764q0 -123 -76 -188.5t-189 -65.5q-112 0 -187 65.5t-75 188.5t75 188.5t187 65.5q113 0 189 -65.5t76 -188.5z" />
    <glyph glyph-name="cent" unicode="&#xa2;" horiz-adv-x="1040" 
d="M831 379q60 7 125 31v-396q-69 -20 -125 -28v-232h-163v213q-18 -2 -56 -2q-90 0 -171 17t-153.5 55t-125.5 94t-84 140t-31 188q0 118 33.5 214t89.5 160t133.5 107.5t162 62.5t177.5 19h25v207h163v-228q61 -13 115 -30v-400q-55 23 -115 35v-227zM668 608
q-109 -21 -109 -116q0 -94 109 -115v231z" />
    <glyph glyph-name="sterling" unicode="&#xa3;" horiz-adv-x="1251" 
d="M1196 0h-1137v424h43q111 0 111 104v17h-119v340h125v39q0 127 41.5 224.5t117 158t174 90.5t218.5 30q201 0 371 -69v-404q-114 62 -242 62q-77 0 -115.5 -32.5t-38.5 -88.5v-10h316v-340h-316v-6q0 -65 -45 -115h496v-424z" />
    <glyph glyph-name="currency" unicode="&#xa4;" horiz-adv-x="1132" 
d="M365 330l-121 -121l-189 188l107 107q-51 97 -51 213q0 120 53 215l-109 108l187 189l125 -125q90 37 198 37q111 0 201 -37l125 127l186 -191l-110 -110q53 -95 53 -213q0 -120 -51 -211l108 -109l-188 -188l-121 121q-90 -37 -203 -37q-110 0 -200 37zM496 717
q0 -26 17.5 -46t51.5 -20t52 20t18 46t-18 45.5t-52 19.5t-51.5 -19.5t-17.5 -45.5z" />
    <glyph glyph-name="yen" unicode="&#xa5;" horiz-adv-x="1599" 
d="M981 1393h582l-375 -656h186v-225h-305v-61h305v-226h-305v-225h-541v225h-301v226h301v61h-301v225h183l-373 656h579l183 -463z" />
    <glyph glyph-name="brokenbar" unicode="&#xa6;" horiz-adv-x="684" 
d="M588 844h-492v815h492v-815zM588 -205h-492v815h492v-815z" />
    <glyph glyph-name="section" unicode="&#xa7;" horiz-adv-x="1081" 
d="M1020 254q0 -71 -28 -127t-75.5 -93.5t-114.5 -62.5t-142 -36t-160 -11q-242 0 -406 84v371q78 -58 172.5 -85.5t165.5 -27.5q72 0 72 27q0 10 -9.5 18.5t-29 15.5t-39.5 13t-52 15.5t-55 17.5q-40 14 -71 28.5t-65.5 39t-57.5 53.5t-38 71.5t-15 93.5q0 159 159 240
q-159 108 -159 252q0 81 38.5 143t105.5 99.5t151 56t182 18.5q206 0 389 -84v-323q-149 78 -305 78q-41 0 -41 -25q0 -19 31 -32t96.5 -31.5t107.5 -36.5q193 -81 193 -269q0 -157 -133 -262q133 -90 133 -229zM508 637q3 -1 90 -31q50 28 55 60q7 32 -51 59
q-103 42 -104 43q-44 -26 -47 -63q-7 -45 57 -68z" />
    <glyph glyph-name="dieresis" unicode="&#xa8;" horiz-adv-x="1001" 
d="M961 1712q0 -100 -60.5 -157.5t-155.5 -57.5t-155 57.5t-60 157.5t60 157.5t155 57.5t155.5 -57.5t60.5 -157.5zM473 1712q0 -100 -60 -157.5t-155 -57.5t-155 57.5t-60 157.5t60 157.5t155 57.5t155 -57.5t60 -157.5z" />
    <glyph glyph-name="copyright" unicode="&#xa9;" horiz-adv-x="1677" 
d="M1624 717q0 -147 -40.5 -270.5t-112 -211.5t-170 -149.5t-215.5 -91t-248 -29.5q-130 0 -246.5 29.5t-215.5 91t-170.5 149.5t-112 211.5t-40.5 270.5q0 183 62 328t170 236.5t248.5 139t304.5 47.5q131 0 248 -29.5t215.5 -90.5t170 -149t112 -211.5t40.5 -270.5z
M1180 362q-78 -40 -141.5 -54.5t-174.5 -14.5q-64 0 -126 14t-121 46t-103 78t-71 115.5t-27 153.5q0 91 25.5 165.5t69 125t104 85t129 50t145.5 15.5q175 0 291 -70v-283q-37 23 -92 37.5t-109 14.5q-69 0 -113.5 -28t-44.5 -87q0 -69 47.5 -101t120.5 -32q54 0 106.5 15
t84.5 40v-285zM223 717q0 -145 49.5 -260.5t134.5 -188t195 -111t236 -38.5t236 38.5t195 111t134 188t49 260.5t-49 260.5t-134 188t-195 111t-236 38.5t-236 -38.5t-195 -111t-134.5 -188t-49.5 -260.5z" />
    <glyph glyph-name="guillemotleft" unicode="&#xab;" horiz-adv-x="1476" 
d="M1444 53h-496l-286 396v86l286 395h496l-311 -438zM827 53h-495l-285 396v86l285 395h495l-307 -438z" />
    <glyph glyph-name="logicalnot" unicode="&#xac;" horiz-adv-x="1185" 
d="M1100 367h-410v225h-629v391h1039v-616z" />
    <glyph glyph-name="registered" unicode="&#xae;" horiz-adv-x="1677" 
d="M1624 717q0 -147 -40.5 -270.5t-112 -211.5t-170 -149.5t-215.5 -91t-248 -29.5q-130 0 -246.5 29.5t-215.5 91t-170.5 149.5t-112 211.5t-40.5 270.5q0 183 62 328t170 236.5t248.5 139t304.5 47.5q131 0 248 -29.5t215.5 -90.5t170 -149t112 -211.5t40.5 -270.5z
M223 717q0 -145 49.5 -260.5t134.5 -188t195 -111t236 -38.5t236 38.5t195 111t134 188t49 260.5t-49 260.5t-134 188t-195 111t-236 38.5t-236 -38.5t-195 -111t-134.5 -188t-49.5 -260.5zM803 317h-305v799h397q56 0 105 -8.5t95 -30t78.5 -53.5t52 -83t19.5 -116
q0 -164 -123 -239l193 -269h-330l-143 218h-15h-24v-218zM803 877v-123h76q32 0 47.5 17t15.5 44t-15.5 44.5t-47.5 17.5h-76z" />
    <glyph glyph-name="macron" unicode="&#xaf;" horiz-adv-x="737" 
d="M-27 1833h779v-322h-779v322z" />
    <glyph glyph-name="degree" unicode="&#xb0;" horiz-adv-x="935" 
d="M905 1067q0 -202 -118 -308t-320 -106q-200 0 -319 106.5t-119 307.5q0 190 120 295.5t318 105.5q200 0 319 -105.5t119 -295.5zM377 1061q0 -40 23 -64t67 -24q43 0 64.5 24t21.5 64t-21.5 64t-64.5 24q-44 0 -67 -24t-23 -64z" />
    <glyph glyph-name="plusminus" unicode="&#xb1;" horiz-adv-x="1196" 
d="M793 1436v-285h325v-389h-325v-285h-390v285h-325v389h325v285h390zM1118 0h-1040v389h1040v-389z" />
    <glyph glyph-name="acute" unicode="&#xb4;" horiz-adv-x="833" 
d="M494 1526h-412l215 360h465z" />
    <glyph glyph-name="paragraph" unicode="&#xb6;" horiz-adv-x="1777" 
d="M1049 -451h-508v943q-235 0 -368.5 125t-133.5 346t133.5 346t368.5 125h1120v-1885h-508v1414h-104v-1414z" />
    <glyph glyph-name="periodcentered" unicode="&#xb7;" horiz-adv-x="610" 
d="M569 487q0 -123 -75.5 -188.5t-188.5 -65.5q-112 0 -187 65.5t-75 188.5t75 188.5t187 65.5q113 0 188.5 -65.5t75.5 -188.5z" />
    <glyph glyph-name="cedilla" unicode="&#xb8;" horiz-adv-x="477" 
d="M90 0h283l-31 -88q197 -25 197 -180q0 -75 -46.5 -125.5t-120 -72t-169.5 -21.5q-158 0 -262 38v230q89 -27 165 -27q117 0 117 49q0 34 -61 43.5t-123 1.5z" />
    <glyph glyph-name="guillemotright" unicode="&#xbb;" horiz-adv-x="1474" 
d="M1145 53h-498l311 439l-311 438h498l282 -395v-86zM530 53h-497l309 439l-309 438h497l283 -395v-86z" />
    <glyph glyph-name="onequarter" unicode="&#xbc;" horiz-adv-x="1880" 
d="M1413 836h322v-496h98v-246h-98v-94h-289v94h-408v258zM1446 340v160l-123 -160h123zM526 -35h-139l952 1503h140zM279 1393h239v-572h127v-264h-582v264h140v271l-127 -48v271z" />
    <glyph glyph-name="onehalf" unicode="&#xbd;" horiz-adv-x="1814" 
d="M520 -35h-139l952 1503h140zM1100 768q149 88 323 88q70 0 129 -15.5t108 -47.5t77 -88t28 -130q0 -72 -27 -117.5t-79 -86.5q-13 -11 -63 -46.5t-76 -60.5h243v-264h-690l2 127q0 59 16 106t50 85t63 61.5t78 56.5q24 16 66.5 39.5t58.5 37.5t16 32q0 35 -55 35
q-124 0 -268 -107v295zM272 1393h240v-572h127v-264h-582v264h140v271l-127 -48v271z" />
    <glyph glyph-name="threequarters" unicode="&#xbe;" horiz-adv-x="1978" 
d="M625 -35h-140l953 1503h139zM1511 836h322v-496h98v-246h-98v-94h-289v94h-407v258zM1544 340v160l-123 -160h123zM700 1182q0 -60 -34.5 -110.5t-100.5 -72.5q74 -15 122 -64t48 -130q0 -68 -29.5 -118.5t-81.5 -79.5t-114 -42.5t-135 -13.5q-162 0 -314 57v269
q58 -28 141.5 -47t145.5 -19q76 0 76 39q0 12 -10.5 20.5t-30.5 8.5h-154l2 227l125 -2q37 0 37 24q0 35 -76 35q-55 0 -125.5 -20t-115.5 -49v258q56 35 136.5 55t160.5 20q89 0 160 -23t119 -80t48 -142z" />
    <glyph glyph-name="questiondown" unicode="&#xbf;" horiz-adv-x="1032" 
d="M973 -399q-191 -86 -420 -86q-516 0 -516 379q0 55 17.5 108.5t46 95.5t62.5 81.5t68.5 73.5t63 64t46 60t17.5 55h459q0 -68 -24.5 -126.5t-59.5 -97.5t-69.5 -71t-59 -60.5t-24.5 -51.5q0 -52 88 -52q66 0 155.5 25.5t149.5 60.5v-458zM850 764q0 -123 -75.5 -188.5
t-188.5 -65.5q-112 0 -187 65.5t-75 188.5t75 188.5t187 65.5q113 0 188.5 -65.5t75.5 -188.5z" />
    <glyph glyph-name="Agrave" unicode="&#xc0;" horiz-adv-x="1589" 
d="M539 0h-551l514 1434h585l515 -1434h-551l-47 164h-418zM752 754l-64 -222h211l-61 222q-33 124 -43 215q-10 -91 -43 -215zM1047 1526h-412l-268 360h464z" />
    <glyph glyph-name="Aacute" unicode="&#xc1;" horiz-adv-x="1589" 
d="M539 0h-551l514 1434h585l515 -1434h-551l-47 164h-418zM752 754l-64 -222h211l-61 222q-33 124 -43 215q-10 -91 -43 -215zM954 1526h-411l215 360h465z" />
    <glyph glyph-name="Acircumflex" unicode="&#xc2;" horiz-adv-x="1589" 
d="M539 0h-551l514 1434h585l515 -1434h-551l-47 164h-418zM752 754l-64 -222h211l-61 222q-33 124 -43 215q-10 -91 -43 -215zM578 1894h434l274 -368h-391l-100 121l-101 -121h-391z" />
    <glyph glyph-name="Atilde" unicode="&#xc3;" horiz-adv-x="1589" 
d="M539 0h-551l514 1434h585l515 -1434h-551l-47 164h-418zM752 754l-64 -222h211l-61 222q-33 124 -43 215q-10 -91 -43 -215zM1227 1903q24 -111 2.5 -201t-91.5 -146.5t-167 -56.5q-59 0 -115.5 21t-97 42t-60.5 21q-27 0 -35.5 -22t-3.5 -50h-301q-24 111 -2.5 201
t91.5 146.5t167 56.5q59 0 115.5 -21t97 -42t60.5 -21q27 0 35.5 22t3.5 50h301z" />
    <glyph glyph-name="Adieresis" unicode="&#xc4;" horiz-adv-x="1589" 
d="M539 0h-551l514 1434h585l515 -1434h-551l-47 164h-418zM752 754l-64 -222h211l-61 222q-33 124 -43 215q-10 -91 -43 -215zM1253 1712q0 -100 -60 -157.5t-155 -57.5t-155 57.5t-60 157.5t60 157.5t155 57.5t155 -57.5t60 -157.5zM766 1712q0 -100 -60 -157.5
t-155 -57.5t-155 57.5t-60 157.5t60 157.5t155 57.5t155 -57.5t60 -157.5z" />
    <glyph glyph-name="Aring" unicode="&#xc5;" horiz-adv-x="1589" 
d="M539 0h-551l514 1434h585l515 -1434h-551l-47 164h-418zM752 754l-64 -222h211l-61 222q-33 124 -43 215q-10 -91 -43 -215zM1108 1755q0 -133 -87.5 -205.5t-221.5 -72.5q-130 0 -217.5 73t-87.5 205q0 127 88 201t217 74q133 0 221 -73.5t88 -201.5zM733 1753
q0 -30 17 -48.5t51 -18.5q67 0 67 67q0 68 -67 68q-34 0 -51 -19t-17 -49z" />
    <glyph glyph-name="AE" unicode="&#xc6;" horiz-adv-x="2115" 
d="M1526 537v-123h532v-414h-1057v164h-393l-90 -164h-547l854 1434h1221v-410h-520v-123h438v-364h-438zM809 532h192v351z" />
    <glyph glyph-name="Ccedilla" unicode="&#xc7;" horiz-adv-x="1327" 
d="M1270 528v-479q-127 -56 -266 -74l-23 -63q197 -25 197 -180q0 -75 -46.5 -125.5t-120 -72t-169.5 -21.5q-158 0 -262 38v230q89 -27 165 -27q117 0 117 49q0 34 -61 43.5t-123 1.5l41 123q-112 13 -210.5 47t-185.5 94.5t-149 143t-97.5 198t-35.5 253.5
q-1 159 43.5 288.5t120 216t178.5 145.5t215.5 85t235.5 26q232 0 426 -84v-471q-62 34 -151.5 59t-178.5 25q-67 0 -124 -15.5t-104 -48.5t-73.5 -90.5t-26.5 -135.5q0 -67 26 -118.5t71 -82.5t100.5 -46.5t118.5 -15.5q112 0 207 22.5t145 61.5z" />
    <glyph glyph-name="Egrave" unicode="&#xc8;" horiz-adv-x="1282" 
d="M86 1434h1126v-410h-581v-123h499v-364h-499v-123h594v-414h-1139v1434zM893 1526h-412l-268 360h465z" />
    <glyph glyph-name="Eacute" unicode="&#xc9;" horiz-adv-x="1282" 
d="M86 1434h1126v-410h-581v-123h499v-364h-499v-123h594v-414h-1139v1434zM801 1526h-412l215 360h465z" />
    <glyph glyph-name="Ecircumflex" unicode="&#xca;" horiz-adv-x="1282" 
d="M86 1434h1126v-410h-581v-123h499v-364h-499v-123h594v-414h-1139v1434zM424 1894h434l275 -368h-392l-100 121l-100 -121h-391z" />
    <glyph glyph-name="Edieresis" unicode="&#xcb;" horiz-adv-x="1282" 
d="M86 1434h1126v-410h-581v-123h499v-364h-499v-123h594v-414h-1139v1434zM1100 1712q0 -100 -60 -157.5t-155 -57.5t-155 57.5t-60 157.5t60 157.5t155 57.5t155 -57.5t60 -157.5zM612 1712q0 -100 -60 -157.5t-155 -57.5t-155 57.5t-60 157.5t60 157.5t155 57.5
t155 -57.5t60 -157.5z" />
    <glyph glyph-name="Igrave" unicode="&#xcc;" horiz-adv-x="716" 
d="M86 1434h545v-1434h-545v1434zM608 1526h-411l-269 360h465z" />
    <glyph glyph-name="Iacute" unicode="&#xcd;" horiz-adv-x="716" 
d="M86 1434h545v-1434h-545v1434zM516 1526h-412l215 360h465z" />
    <glyph glyph-name="Icircumflex" unicode="&#xce;" horiz-adv-x="716" 
d="M86 1434h545v-1434h-545v1434zM139 1894h434l275 -368h-391l-101 121l-100 -121h-391z" />
    <glyph glyph-name="Idieresis" unicode="&#xcf;" horiz-adv-x="716" 
d="M86 1434h545v-1434h-545v1434zM815 1712q0 -100 -60 -157.5t-155 -57.5t-155 57.5t-60 157.5t60 157.5t155 57.5t155 -57.5t60 -157.5zM328 1712q0 -100 -60 -157.5t-155 -57.5t-155 57.5t-60 157.5t60 157.5t155 57.5t155 -57.5t60 -157.5z" />
    <glyph glyph-name="Eth" unicode="&#xd0;" horiz-adv-x="1544" 
d="M109 1434h653q189 0 332.5 -52t232 -148.5t132.5 -226t44 -290.5t-44 -290.5t-132.5 -226t-232 -148.5t-332.5 -52h-653v569h-103v287h103v578zM653 451h88q97 0 149 60t52 206t-52 206t-149 60h-88v-127h168v-287h-168v-118z" />
    <glyph glyph-name="Ntilde" unicode="&#xd1;" horiz-adv-x="1560" 
d="M631 0h-545v1434h432l426 -557q-14 100 -14 249v308h545v-1434h-433l-426 557q15 -107 15 -250v-307zM1192 1903q24 -111 2.5 -201t-91.5 -146.5t-167 -56.5q-59 0 -115 21t-96.5 42t-60.5 21q-27 0 -35.5 -22t-3.5 -50h-301q-24 111 -2.5 201t91.5 146.5t167 56.5
q59 0 115 -21t96.5 -42t60.5 -21q27 0 35.5 22t3.5 50h301z" />
    <glyph glyph-name="Ograve" unicode="&#xd2;" horiz-adv-x="1640" 
d="M37 717q0 160 50 295.5t145.5 238t246 160t340.5 57.5t341 -57.5t247 -160t146.5 -238t50.5 -295.5t-50.5 -296t-146.5 -238t-247 -160t-341 -58t-340.5 58t-246 160t-145.5 238t-50 296zM1042 717q0 126 -59.5 193t-163.5 67q-102 0 -161.5 -67t-59.5 -193t59.5 -193
t161.5 -67q104 0 163.5 67t59.5 193zM1069 1526h-412l-268 360h465z" />
    <glyph glyph-name="Oacute" unicode="&#xd3;" horiz-adv-x="1640" 
d="M37 717q0 160 50 295.5t145.5 238t246 160t340.5 57.5t341 -57.5t247 -160t146.5 -238t50.5 -295.5t-50.5 -296t-146.5 -238t-247 -160t-341 -58t-340.5 58t-246 160t-145.5 238t-50 296zM1042 717q0 126 -59.5 193t-163.5 67q-102 0 -161.5 -67t-59.5 -193t59.5 -193
t161.5 -67q104 0 163.5 67t59.5 193zM977 1526h-412l215 360h465z" />
    <glyph glyph-name="Ocircumflex" unicode="&#xd4;" horiz-adv-x="1640" 
d="M37 717q0 160 50 295.5t145.5 238t246 160t340.5 57.5t341 -57.5t247 -160t146.5 -238t50.5 -295.5t-50.5 -296t-146.5 -238t-247 -160t-341 -58t-340.5 58t-246 160t-145.5 238t-50 296zM1042 717q0 126 -59.5 193t-163.5 67q-102 0 -161.5 -67t-59.5 -193t59.5 -193
t161.5 -67q104 0 163.5 67t59.5 193zM600 1894h434l275 -368h-391l-101 121l-100 -121h-391z" />
    <glyph glyph-name="Otilde" unicode="&#xd5;" horiz-adv-x="1640" 
d="M37 717q0 160 50 295.5t145.5 238t246 160t340.5 57.5t341 -57.5t247 -160t146.5 -238t50.5 -295.5t-50.5 -296t-146.5 -238t-247 -160t-341 -58t-340.5 58t-246 160t-145.5 238t-50 296zM1042 717q0 126 -59.5 193t-163.5 67q-102 0 -161.5 -67t-59.5 -193t59.5 -193
t161.5 -67q104 0 163.5 67t59.5 193zM1249 1903q24 -111 2.5 -201t-91.5 -146.5t-167 -56.5q-59 0 -115 21t-96.5 42t-60.5 21q-27 0 -35.5 -22t-3.5 -50h-301q-24 111 -2.5 201t91.5 146.5t167 56.5q59 0 115 -21t96.5 -42t60.5 -21q27 0 35.5 22t3.5 50h301z" />
    <glyph glyph-name="Odieresis" unicode="&#xd6;" horiz-adv-x="1640" 
d="M37 717q0 160 50 295.5t145.5 238t246 160t340.5 57.5t341 -57.5t247 -160t146.5 -238t50.5 -295.5t-50.5 -296t-146.5 -238t-247 -160t-341 -58t-340.5 58t-246 160t-145.5 238t-50 296zM1042 717q0 126 -59.5 193t-163.5 67q-102 0 -161.5 -67t-59.5 -193t59.5 -193
t161.5 -67q104 0 163.5 67t59.5 193zM1276 1712q0 -100 -60 -157.5t-155 -57.5t-155 57.5t-60 157.5t60 157.5t155 57.5t155 -57.5t60 -157.5zM788 1712q0 -100 -60 -157.5t-155 -57.5t-155 57.5t-60 157.5t60 157.5t155 57.5t155 -57.5t60 -157.5z" />
    <glyph glyph-name="multiply" unicode="&#xd7;" horiz-adv-x="1110" 
d="M555 459l-250 -248l-254 256l248 248l-248 248l254 256l250 -248l248 248l256 -256l-250 -248l250 -248l-256 -256z" />
    <glyph glyph-name="Oslash" unicode="&#xd8;" horiz-adv-x="1640" 
d="M1528 1532l-170 -238q121 -100 183.5 -248.5t62.5 -328.5q0 -160 -50.5 -296t-146.5 -238t-247 -160t-341 -58q-201 0 -362 68l-95 -131h-225l160 223q-129 101 -194.5 253.5t-65.5 338.5q0 160 50 295.5t145.5 238t246 160t340.5 57.5q221 0 383 -75l101 139h225z
M819 977q-102 0 -161.5 -67t-59.5 -193q0 -76 25 -137l274 385q-35 12 -78 12zM764 463q24 -6 55 -6q104 0 163.5 67t59.5 193q0 61 -16 114z" />
    <glyph glyph-name="Ugrave" unicode="&#xd9;" horiz-adv-x="1507" 
d="M891 1434h545v-869q0 -131 -37 -235t-99.5 -171.5t-151 -112t-185.5 -63t-209 -18.5q-111 0 -208 18.5t-185.5 63t-151.5 112t-100 171.5t-37 235v869h544v-844q0 -133 138 -133q137 0 137 133v844zM1008 1526h-412l-268 360h465z" />
    <glyph glyph-name="Uacute" unicode="&#xda;" horiz-adv-x="1507" 
d="M891 1434h545v-869q0 -131 -37 -235t-99.5 -171.5t-151 -112t-185.5 -63t-209 -18.5q-111 0 -208 18.5t-185.5 63t-151.5 112t-100 171.5t-37 235v869h544v-844q0 -133 138 -133q137 0 137 133v844zM915 1526h-411l215 360h465z" />
    <glyph glyph-name="Ucircumflex" unicode="&#xdb;" horiz-adv-x="1507" 
d="M891 1434h545v-869q0 -131 -37 -235t-99.5 -171.5t-151 -112t-185.5 -63t-209 -18.5q-111 0 -208 18.5t-185.5 63t-151.5 112t-100 171.5t-37 235v869h544v-844q0 -133 138 -133q137 0 137 133v844zM539 1894h434l274 -368h-391l-100 121l-101 -121h-391z" />
    <glyph glyph-name="Udieresis" unicode="&#xdc;" horiz-adv-x="1507" 
d="M891 1434h545v-869q0 -131 -37 -235t-99.5 -171.5t-151 -112t-185.5 -63t-209 -18.5q-111 0 -208 18.5t-185.5 63t-151.5 112t-100 171.5t-37 235v869h544v-844q0 -133 138 -133q137 0 137 133v844zM1214 1712q0 -100 -60 -157.5t-155 -57.5t-155 57.5t-60 157.5
t60 157.5t155 57.5t155 -57.5t60 -157.5zM727 1712q0 -100 -60 -157.5t-155 -57.5t-155 57.5t-60 157.5t60 157.5t155 57.5t155 -57.5t60 -157.5z" />
    <glyph glyph-name="Yacute" unicode="&#xdd;" horiz-adv-x="1585" 
d="M1063 0h-541v489l-534 945h614l191 -504l192 504h614l-536 -945v-489zM942 1526h-412l215 360h465z" />
    <glyph glyph-name="Thorn" unicode="&#xde;" horiz-adv-x="1441" 
d="M631 1276h127q657 0 657 -559t-657 -559h-127v-158h-545v1434h545v-158zM631 596h106q146 0 146 121t-146 121h-106v-242z" />
    <glyph glyph-name="germandbls" unicode="&#xdf;" horiz-adv-x="1310" 
d="M1292 279q0 -159 -94 -236.5t-252 -77.5q-114 0 -280 49v385q40 -16 77 -16q34 0 56 14.5t22 46.5q0 26 -28.5 65t-62.5 73.5t-62.5 83t-28.5 92.5q0 56 36 121.5t36 113.5q0 24 -18 46t-50 22q-38 0 -59 -22t-21 -60v-979h-495v956q0 150 63.5 264t192.5 180.5t309 67.5
q109 1 199 -22t149 -60.5t99 -86.5t57.5 -98t17.5 -97q0 -49 -19 -95.5t-42.5 -76.5t-42.5 -68t-19 -73q0 -33 27 -74.5t65 -86.5t76 -95.5t65 -118t27 -137.5z" />
    <glyph glyph-name="agrave" unicode="&#xe0;" horiz-adv-x="1187" 
d="M1102 334q0 -47 49 -47q17 0 41 4v-281q-41 -19 -115 -31t-135 -12q-182 0 -254 101q-127 -103 -317 -103q-94 0 -169.5 30.5t-124 98t-48.5 164.5q0 72 25.5 128.5t66.5 91.5t99.5 57.5t118 31t128.5 8.5q103 0 180 -18v16q0 52 -44.5 74.5t-143.5 22.5q-169 0 -361 -66
v348q89 26 204.5 46t213.5 20q114 0 199 -12.5t161 -45t123.5 -87t75 -141.5t27.5 -206v-192zM590 371q-39 0 -67.5 -17.5t-28.5 -56.5q0 -33 22 -48.5t55 -15.5q38 0 76 23v109q-24 6 -57 6zM823 1096h-411l-269 360h465z" />
    <glyph glyph-name="aacute" unicode="&#xe1;" horiz-adv-x="1187" 
d="M1102 334q0 -47 49 -47q17 0 41 4v-281q-41 -19 -115 -31t-135 -12q-182 0 -254 101q-127 -103 -317 -103q-94 0 -169.5 30.5t-124 98t-48.5 164.5q0 72 25.5 128.5t66.5 91.5t99.5 57.5t118 31t128.5 8.5q103 0 180 -18v16q0 52 -44.5 74.5t-143.5 22.5q-169 0 -361 -66
v348q89 26 204.5 46t213.5 20q114 0 199 -12.5t161 -45t123.5 -87t75 -141.5t27.5 -206v-192zM590 371q-39 0 -67.5 -17.5t-28.5 -56.5q0 -33 22 -48.5t55 -15.5q38 0 76 23v109q-24 6 -57 6zM731 1096h-412l216 360h464z" />
    <glyph glyph-name="acircumflex" unicode="&#xe2;" horiz-adv-x="1187" 
d="M1102 334q0 -47 49 -47q17 0 41 4v-281q-41 -19 -115 -31t-135 -12q-182 0 -254 101q-127 -103 -317 -103q-94 0 -169.5 30.5t-124 98t-48.5 164.5q0 72 25.5 128.5t66.5 91.5t99.5 57.5t118 31t128.5 8.5q103 0 180 -18v16q0 52 -44.5 74.5t-143.5 22.5q-169 0 -361 -66
v348q89 26 204.5 46t213.5 20q114 0 199 -12.5t161 -45t123.5 -87t75 -141.5t27.5 -206v-192zM590 371q-39 0 -67.5 -17.5t-28.5 -56.5q0 -33 22 -48.5t55 -15.5q38 0 76 23v109q-24 6 -57 6zM354 1464h434l275 -368h-391l-101 121l-100 -121h-391z" />
    <glyph glyph-name="atilde" unicode="&#xe3;" horiz-adv-x="1187" 
d="M1102 334q0 -47 49 -47q17 0 41 4v-281q-41 -19 -115 -31t-135 -12q-182 0 -254 101q-127 -103 -317 -103q-94 0 -169.5 30.5t-124 98t-48.5 164.5q0 72 25.5 128.5t66.5 91.5t99.5 57.5t118 31t128.5 8.5q103 0 180 -18v16q0 52 -44.5 74.5t-143.5 22.5q-169 0 -361 -66
v348q89 26 204.5 46t213.5 20q114 0 199 -12.5t161 -45t123.5 -87t75 -141.5t27.5 -206v-192zM590 371q-39 0 -67.5 -17.5t-28.5 -56.5q0 -33 22 -48.5t55 -15.5q38 0 76 23v109q-24 6 -57 6zM1004 1473q24 -111 2.5 -201t-91.5 -146.5t-167 -56.5q-59 0 -115.5 21t-97 42
t-60.5 21q-27 0 -35.5 -22t-3.5 -50h-301q-24 111 -2.5 201t91.5 146.5t167 56.5q59 0 115.5 -21t97 -42t60.5 -21q27 0 35 22t3 50h302z" />
    <glyph glyph-name="adieresis" unicode="&#xe4;" horiz-adv-x="1187" 
d="M1102 334q0 -47 49 -47q17 0 41 4v-281q-41 -19 -115 -31t-135 -12q-182 0 -254 101q-127 -103 -317 -103q-94 0 -169.5 30.5t-124 98t-48.5 164.5q0 72 25.5 128.5t66.5 91.5t99.5 57.5t118 31t128.5 8.5q103 0 180 -18v16q0 52 -44.5 74.5t-143.5 22.5q-169 0 -361 -66
v348q89 26 204.5 46t213.5 20q114 0 199 -12.5t161 -45t123.5 -87t75 -141.5t27.5 -206v-192zM590 371q-39 0 -67.5 -17.5t-28.5 -56.5q0 -33 22 -48.5t55 -15.5q38 0 76 23v109q-24 6 -57 6zM1030 1282q0 -100 -60 -157.5t-155 -57.5t-155 57.5t-60 157.5t60 157.5
t155 57.5t155 -57.5t60 -157.5zM543 1282q0 -100 -60 -157.5t-155 -57.5t-155 57.5t-60 157.5t60 157.5t155 57.5t155 -57.5t60 -157.5z" />
    <glyph glyph-name="aring" unicode="&#xe5;" horiz-adv-x="1187" 
d="M1102 334q0 -47 49 -47q17 0 41 4v-281q-41 -19 -115 -31t-135 -12q-182 0 -254 101q-127 -103 -317 -103q-94 0 -169.5 30.5t-124 98t-48.5 164.5q0 72 25.5 128.5t66.5 91.5t99.5 57.5t118 31t128.5 8.5q103 0 180 -18v16q0 52 -44.5 74.5t-143.5 22.5q-169 0 -361 -66
v348q89 26 204.5 46t213.5 20q114 0 199 -12.5t161 -45t123.5 -87t75 -141.5t27.5 -206v-192zM590 371q-39 0 -67.5 -17.5t-28.5 -56.5q0 -33 22 -48.5t55 -15.5q38 0 76 23v109q-24 6 -57 6zM885 1325q0 -133 -88 -205.5t-222 -72.5q-130 0 -217.5 73t-87.5 205
q0 127 88 200.5t217 73.5q133 0 221.5 -73t88.5 -201zM510 1323q0 -30 17 -49t51 -19q67 0 67 68t-67 68q-34 0 -51 -19t-17 -49z" />
    <glyph glyph-name="ae" unicode="&#xe6;" horiz-adv-x="1687" 
d="M827 96q-91 -70 -189 -100.5t-249 -30.5q-70 0 -133.5 18t-115.5 52.5t-82.5 92t-30.5 130.5q0 72 25.5 128.5t66.5 91.5t99.5 57.5t118 31t128.5 8.5q125 0 201 -18v16q0 97 -189 97q-179 0 -371 -66v348q89 26 204.5 46t213.5 20q244 0 338 -105q138 105 322 105
q83 0 153.5 -20t121.5 -55.5t90 -83.5t62 -103.5t34.5 -116.5t10 -122t-13.5 -120h-575q22 -48 92.5 -74t159.5 -26q164 0 280 29v-316q-158 -45 -348 -45q-270 0 -424 131zM512 299q0 -33 23 -49.5t55 -16.5q62 0 115 37q-17 51 -27 90q-27 11 -70 11q-39 0 -67.5 -16.5
t-28.5 -55.5zM1171 713q-55 0 -83.5 -35t-28.5 -84h207q6 50 -18.5 84.5t-76.5 34.5z" />
    <glyph glyph-name="ccedilla" unicode="&#xe7;" horiz-adv-x="997" 
d="M942 410v-396q-108 -29 -184 -39l-23 -63q197 -25 197 -180q0 -75 -46.5 -125.5t-120 -72t-169.5 -21.5q-158 0 -262 38v230q89 -27 166 -27q116 0 116 49q0 34 -61 43.5t-123 1.5l43 125q-94 14 -172 48.5t-139.5 92.5t-96 146t-34.5 199q0 118 33.5 214t89.5 160
t133.5 107.5t162 62.5t177.5 19q145 0 303 -51v-400q-103 45 -207 45q-79 0 -129.5 -29.5t-50.5 -94.5q0 -121 172 -121q118 0 225 39z" />
    <glyph glyph-name="egrave" unicode="&#xe8;" horiz-adv-x="1118" 
d="M33 502q0 111 35 201t90 147.5t127.5 96.5t143.5 55t142 16q96 0 175 -20t135 -55.5t97.5 -83.5t64.5 -103t34 -117t9 -122t-15 -120h-575q22 -48 92.5 -74t159.5 -26q161 0 284 33v-316q-146 -49 -352 -49q-98 0 -186.5 16t-174 55.5t-148 99t-100.5 153.5t-38 213z
M694 590q6 50 -18 84.5t-76 34.5q-55 0 -84 -35t-29 -84h207zM815 1075h-412l-268 361h465z" />
    <glyph glyph-name="eacute" unicode="&#xe9;" horiz-adv-x="1118" 
d="M33 502q0 111 35 201t90 147.5t127.5 96.5t143.5 55t142 16q96 0 175 -20t135 -55.5t97.5 -83.5t64.5 -103t34 -117t9 -122t-15 -120h-575q22 -48 92.5 -74t159.5 -26q161 0 284 33v-316q-146 -49 -352 -49q-98 0 -186.5 16t-174 55.5t-148 99t-100.5 153.5t-38 213z
M694 590q6 50 -18 84.5t-76 34.5q-55 0 -84 -35t-29 -84h207zM723 1075h-412l215 361h465z" />
    <glyph glyph-name="ecircumflex" unicode="&#xea;" horiz-adv-x="1118" 
d="M33 502q0 111 35 201t90 147.5t127.5 96.5t143.5 55t142 16q96 0 175 -20t135 -55.5t97.5 -83.5t64.5 -103t34 -117t9 -122t-15 -120h-575q22 -48 92.5 -74t159.5 -26q161 0 284 33v-316q-146 -49 -352 -49q-98 0 -186.5 16t-174 55.5t-148 99t-100.5 153.5t-38 213z
M694 590q6 50 -18 84.5t-76 34.5q-55 0 -84 -35t-29 -84h207zM346 1444h434l275 -369h-391l-101 121l-100 -121h-391z" />
    <glyph glyph-name="edieresis" unicode="&#xeb;" horiz-adv-x="1118" 
d="M33 502q0 111 35 201t90 147.5t127.5 96.5t143.5 55t142 16q96 0 175 -20t135 -55.5t97.5 -83.5t64.5 -103t34 -117t9 -122t-15 -120h-575q22 -48 92.5 -74t159.5 -26q161 0 284 33v-316q-146 -49 -352 -49q-98 0 -186.5 16t-174 55.5t-148 99t-100.5 153.5t-38 213z
M694 590q6 50 -18 84.5t-76 34.5q-55 0 -84 -35t-29 -84h207zM1022 1262q0 -100 -60 -157.5t-155 -57.5t-155 57.5t-60 157.5t60 157.5t155 57.5t155 -57.5t60 -157.5zM535 1262q0 -100 -60.5 -157.5t-155.5 -57.5t-155 57.5t-60 157.5t60 157.5t155 57.5t155.5 -57.5
t60.5 -157.5z" />
    <glyph glyph-name="igrave" unicode="&#xec;" horiz-adv-x="632" 
d="M565 0h-497v983h497v-983zM545 1075h-412l-166 361h465z" />
    <glyph glyph-name="iacute" unicode="&#xed;" horiz-adv-x="632" 
d="M68 983h497v-983h-497v983zM473 1075h-412l215 361h465z" />
    <glyph glyph-name="icircumflex" unicode="&#xee;" horiz-adv-x="632" 
d="M96 1444h434l234 -369h-371l-80 142l-80 -142h-370zM68 983h497v-983h-497v983z" />
    <glyph glyph-name="idieresis" unicode="&#xef;" horiz-adv-x="632" 
d="M727 1262q0 -96 -57.5 -150.5t-147.5 -54.5t-147.5 54.5t-57.5 150.5t57.5 150t147.5 54t147.5 -54t57.5 -150zM281 1262q0 -96 -57.5 -150.5t-147.5 -54.5t-147.5 54.5t-57.5 150.5t57.5 150t147.5 54t147.5 -54t57.5 -150zM68 983h497v-983h-497v983z" />
    <glyph glyph-name="eth" unicode="&#xf0;" horiz-adv-x="1167" 
d="M1126 608q0 -140 -29.5 -251t-79.5 -183.5t-120.5 -120t-149 -68t-169.5 -20.5q-116 0 -213.5 27.5t-173.5 83.5t-119 149t-43 215q0 106 35 189t94 132.5t130 75t148 25.5q172 0 264 -106q0 47 -20 94q-41 98 -152 166l-125 -125l-129 131l68 68q-79 20 -188 20v399
q291 0 501 -106l129 129l129 -131l-98 -98q151 -120 231 -298.5t80 -396.5zM485 428q0 -50 25.5 -76t67.5 -26t67 25.5t25 76.5t-25 76.5t-67 25.5t-67.5 -26t-25.5 -76z" />
    <glyph glyph-name="ntilde" unicode="&#xf1;" horiz-adv-x="1222" 
d="M502 897q130 121 293 121q78 0 141.5 -22t105 -58t69.5 -84.5t40 -98t12 -100.5v-655h-495v559q0 47 -52 47q-30 0 -53 -18v-588h-495v983h434v-86zM1020 1452q24 -111 2.5 -200.5t-91.5 -146t-167 -56.5q-59 0 -115 21t-96.5 42t-60.5 21q-27 0 -35.5 -22t-3.5 -50h-301
q-24 111 -2.5 200.5t91.5 146t167 56.5q59 0 115 -21t96.5 -42t60.5 -21q27 0 35.5 22t3.5 50h301z" />
    <glyph glyph-name="ograve" unicode="&#xf2;" horiz-adv-x="1218" 
d="M33 492q0 131 45 233t124 165t182 95.5t224 32.5t224.5 -32.5t183 -95.5t125 -165.5t45.5 -232.5t-45.5 -232.5t-125 -166t-183 -96t-224.5 -32.5t-224 32.5t-182 96t-124 165.5t-45 233zM715 492q0 63 -24.5 97t-82.5 34q-57 0 -80.5 -34t-23.5 -97q0 -132 104 -132
q107 0 107 132zM858 1075h-412l-268 361h465z" />
    <glyph glyph-name="oacute" unicode="&#xf3;" horiz-adv-x="1218" 
d="M33 492q0 131 45 233t124 165t182 95.5t224 32.5t224.5 -32.5t183 -95.5t125 -165.5t45.5 -232.5t-45.5 -232.5t-125 -166t-183 -96t-224.5 -32.5t-224 32.5t-182 96t-124 165.5t-45 233zM715 492q0 63 -24.5 97t-82.5 34q-57 0 -80.5 -34t-23.5 -97q0 -132 104 -132
q107 0 107 132zM766 1075h-412l215 361h465z" />
    <glyph glyph-name="ocircumflex" unicode="&#xf4;" horiz-adv-x="1218" 
d="M33 492q0 131 45 233t124 165t182 95.5t224 32.5t224.5 -32.5t183 -95.5t125 -165.5t45.5 -232.5t-45.5 -232.5t-125 -166t-183 -96t-224.5 -32.5t-224 32.5t-182 96t-124 165.5t-45 233zM715 492q0 63 -24.5 97t-82.5 34q-57 0 -80.5 -34t-23.5 -97q0 -132 104 -132
q107 0 107 132zM389 1444h434l275 -369h-391l-101 121l-100 -121h-391z" />
    <glyph glyph-name="otilde" unicode="&#xf5;" horiz-adv-x="1218" 
d="M33 492q0 131 45 233t124 165t182 95.5t224 32.5t224.5 -32.5t183 -95.5t125 -165.5t45.5 -232.5t-45.5 -232.5t-125 -166t-183 -96t-224.5 -32.5t-224 32.5t-182 96t-124 165.5t-45 233zM715 492q0 63 -24.5 97t-82.5 34q-57 0 -80.5 -34t-23.5 -97q0 -132 104 -132
q107 0 107 132zM1038 1452q24 -111 2.5 -200.5t-91.5 -146t-167 -56.5q-59 0 -115 21t-96.5 42t-60.5 21q-27 0 -35.5 -22t-3.5 -50h-301q-24 111 -2.5 200.5t91.5 146t167 56.5q59 0 115 -21t96.5 -42t60.5 -21q27 0 35.5 22t3.5 50h301z" />
    <glyph glyph-name="odieresis" unicode="&#xf6;" horiz-adv-x="1218" 
d="M33 492q0 131 45 233t124 165t182 95.5t224 32.5t224.5 -32.5t183 -95.5t125 -165.5t45.5 -232.5t-45.5 -232.5t-125 -166t-183 -96t-224.5 -32.5t-224 32.5t-182 96t-124 165.5t-45 233zM715 492q0 63 -24.5 97t-82.5 34q-57 0 -80.5 -34t-23.5 -97q0 -132 104 -132
q107 0 107 132zM1065 1262q0 -100 -60 -157.5t-155 -57.5t-155 57.5t-60 157.5t60 157.5t155 57.5t155 -57.5t60 -157.5zM578 1262q0 -100 -60.5 -157.5t-155.5 -57.5t-155 57.5t-60 157.5t60 157.5t155 57.5t155.5 -57.5t60.5 -157.5z" />
    <glyph glyph-name="divide" unicode="&#xf7;" horiz-adv-x="1159" 
d="M1112 535h-1065v368h1065v-368zM844 219q0 -123 -75.5 -188.5t-188.5 -65.5q-112 0 -187.5 65.5t-75.5 188.5t75.5 188.5t187.5 65.5q113 0 188.5 -65.5t75.5 -188.5zM844 1219q0 -123 -75.5 -188.5t-188.5 -65.5q-112 0 -187.5 65.5t-75.5 188.5t75.5 188.5t187.5 65.5
q113 0 188.5 -65.5t75.5 -188.5z" />
    <glyph glyph-name="oslash" unicode="&#xf8;" horiz-adv-x="1218" 
d="M1057 1112l-113 -174q114 -64 178 -176.5t64 -269.5q0 -130 -45.5 -232.5t-125 -166t-183 -96t-224.5 -32.5q-149 0 -262 45l-92 -143h-88l113 174q-116 64 -181 177.5t-65 273.5q0 131 45 233t124 165t182 95.5t224 32.5q148 0 269 -47l92 141h88zM608 623
q-57 0 -80.5 -34t-23.5 -97q0 -48 14 -80l131 204q-21 7 -41 7zM575 365q20 -5 33 -5q107 0 107 132q0 40 -10 73z" />
    <glyph glyph-name="ugrave" unicode="&#xf9;" horiz-adv-x="1222" 
d="M659 983h496v-983h-434v86q-130 -121 -293 -121q-78 0 -141.5 22t-105 58.5t-70 84.5t-40.5 97.5t-12 100.5v655h496v-559q0 -47 51 -47q30 0 53 18v588zM858 1075h-412l-268 361h465z" />
    <glyph glyph-name="uacute" unicode="&#xfa;" horiz-adv-x="1222" 
d="M659 983h496v-983h-434v86q-130 -121 -293 -121q-78 0 -141.5 22t-105 58.5t-70 84.5t-40.5 97.5t-12 100.5v655h496v-559q0 -47 51 -47q30 0 53 18v588zM766 1075h-412l215 361h465z" />
    <glyph glyph-name="ucircumflex" unicode="&#xfb;" horiz-adv-x="1222" 
d="M659 983h496v-983h-434v86q-130 -121 -293 -121q-78 0 -141.5 22t-105 58.5t-70 84.5t-40.5 97.5t-12 100.5v655h496v-559q0 -47 51 -47q30 0 53 18v588zM389 1444h434l275 -369h-391l-101 121l-100 -121h-391z" />
    <glyph glyph-name="udieresis" unicode="&#xfc;" horiz-adv-x="1222" 
d="M659 983h496v-983h-434v86q-130 -121 -293 -121q-78 0 -141.5 22t-105 58.5t-70 84.5t-40.5 97.5t-12 100.5v655h496v-559q0 -47 51 -47q30 0 53 18v588zM1065 1262q0 -100 -60 -157.5t-155 -57.5t-155 57.5t-60 157.5t60 157.5t155 57.5t155 -57.5t60 -157.5zM578 1262
q0 -100 -60.5 -157.5t-155.5 -57.5t-155 57.5t-60 157.5t60 157.5t155 57.5t155.5 -57.5t60.5 -157.5z" />
    <glyph glyph-name="yacute" unicode="&#xfd;" horiz-adv-x="1282" 
d="M670 487l110 496h500l-346 -1008q-44 -127 -109.5 -219t-143.5 -142.5t-158 -73.5t-169 -23q-121 0 -243 39v397q87 -25 153 -25q108 0 166 80l-442 975h508zM786 1075h-411l215 361h465z" />
    <glyph glyph-name="thorn" unicode="&#xfe;" horiz-adv-x="1284" 
d="M68 1434h495v-496q96 80 250 80q110 0 195 -42t136 -115.5t77 -166.5t26 -202t-26 -202t-77 -167t-136 -116t-195 -42q-154 0 -250 80v-496h-495v1885zM735 492q0 56 -25 94.5t-75 38.5q-23 0 -43 -9t-29 -20v-209q9 -11 29 -20t43 -9q50 0 75 38.5t25 95.5z" />
    <glyph glyph-name="ydieresis" unicode="&#xff;" horiz-adv-x="1282" 
d="M670 487l110 496h500l-346 -1008q-44 -127 -109.5 -219t-143.5 -142.5t-158 -73.5t-169 -23q-121 0 -243 39v397q87 -25 153 -25q108 0 166 80l-442 975h508zM1085 1262q0 -100 -60 -157.5t-155 -57.5t-155 57.5t-60 157.5t60 157.5t155 57.5t155 -57.5t60 -157.5z
M598 1262q0 -100 -60 -157.5t-155 -57.5t-155 57.5t-60 157.5t60 157.5t155 57.5t155 -57.5t60 -157.5z" />
    <glyph glyph-name="Amacron" unicode="&#x100;" horiz-adv-x="1589" 
d="M539 0h-551l514 1434h585l515 -1434h-551l-47 164h-418zM752 754l-64 -222h211l-61 222q-33 124 -43 215q-10 -91 -43 -215zM408 1853h778v-321h-778v321z" />
    <glyph glyph-name="amacron" unicode="&#x101;" horiz-adv-x="1187" 
d="M1102 334q0 -47 49 -47q17 0 41 4v-281q-41 -19 -115 -31t-135 -12q-182 0 -254 101q-127 -103 -317 -103q-94 0 -169.5 30.5t-124 98t-48.5 164.5q0 72 25.5 128.5t66.5 91.5t99.5 57.5t118 31t128.5 8.5q103 0 180 -18v16q0 52 -44.5 74.5t-143.5 22.5q-169 0 -361 -66
v348q89 26 204.5 46t213.5 20q114 0 199 -12.5t161 -45t123.5 -87t75 -141.5t27.5 -206v-192zM590 371q-39 0 -67.5 -17.5t-28.5 -56.5q0 -33 22 -48.5t55 -15.5q38 0 76 23v109q-24 6 -57 6zM184 1423h779v-321h-779v321z" />
    <glyph glyph-name="Abreve" unicode="&#x102;" horiz-adv-x="1589" 
d="M539 0h-551l514 1434h585l515 -1434h-551l-47 164h-418zM752 754l-64 -222h211l-61 222q-33 124 -43 215q-10 -91 -43 -215zM1192 1634q-171 -112 -395 -112q-225 0 -396 112v320q165 -101 396 -101q230 0 395 101v-320z" />
    <glyph glyph-name="abreve" unicode="&#x103;" horiz-adv-x="1187" 
d="M1102 334q0 -47 49 -47q17 0 41 4v-281q-41 -19 -115 -31t-135 -12q-182 0 -254 101q-127 -103 -317 -103q-94 0 -169.5 30.5t-124 98t-48.5 164.5q0 72 25.5 128.5t66.5 91.5t99.5 57.5t118 31t128.5 8.5q103 0 180 -18v16q0 52 -44.5 74.5t-143.5 22.5q-169 0 -361 -66
v348q89 26 204.5 46t213.5 20q114 0 199 -12.5t161 -45t123.5 -87t75 -141.5t27.5 -206v-192zM590 371q-39 0 -67.5 -17.5t-28.5 -56.5q0 -33 22 -48.5t55 -15.5q38 0 76 23v109q-24 6 -57 6zM969 1204q-171 -112 -396 -112q-224 0 -395 112v320q165 -101 395 -101
q231 0 396 101v-320z" />
    <glyph glyph-name="Aogonek" unicode="&#x104;" horiz-adv-x="1589" 
d="M1602 0q-46 -35 -74.5 -75t-28.5 -68q0 -41 45 -41q26 4 37 10v-260q-100 -54 -223 -51q-60 2 -111.5 15t-94.5 38t-68 68.5t-25 99.5q0 73 45 143.5t129 120.5h-182l-47 164h-418l-47 -164h-551l514 1434h585zM752 754l-64 -222h211l-61 222q-33 124 -43 215
q-10 -91 -43 -215z" />
    <glyph glyph-name="aogonek" unicode="&#x105;" horiz-adv-x="1189" 
d="M1192 291v-281q-46 -36 -74 -76.5t-28 -68.5q0 -41 45 -41q18 0 36 6v-276q-95 -29 -206 -29q-134 0 -203.5 61.5t-67.5 153.5q-1 60 36 123.5t97 116.5q-94 26 -139 88q-127 -103 -317 -103q-94 0 -169.5 30.5t-124 98t-48.5 164.5q0 72 25.5 128.5t66.5 91.5t99.5 57.5
t118 31t128.5 8.5q103 0 180 -18v16q0 52 -44.5 74.5t-143.5 22.5q-169 0 -361 -66v348q89 26 204.5 46t213.5 20q114 0 199 -12.5t161 -45t123.5 -87t75 -141.5t27.5 -206v-192q0 -47 49 -47q17 0 41 4zM571 233q38 0 76 23v109q-24 6 -57 6q-39 0 -67.5 -17.5t-28.5 -56.5
q0 -33 22 -48.5t55 -15.5z" />
    <glyph glyph-name="Cacute" unicode="&#x106;" horiz-adv-x="1327" 
d="M41 707q-1 159 43.5 288.5t120 216t178.5 145.5t215.5 85t235.5 26q232 0 426 -84v-471q-62 34 -151.5 59t-178.5 25q-67 0 -124 -15.5t-104 -48.5t-73.5 -90.5t-26.5 -135.5q0 -67 26 -118.5t71 -82.5t100.5 -46.5t118.5 -15.5q112 0 207 22.5t145 61.5v-479
q-190 -84 -420 -84q-129 0 -245 26t-220 83.5t-180 142.5t-120 210.5t-44 279.5zM987 1526h-412l216 360h464z" />
    <glyph glyph-name="cacute" unicode="&#x107;" horiz-adv-x="997" 
d="M33 459q0 118 33.5 214t89.5 160t133.5 107.5t162 62.5t177.5 19q145 0 303 -51v-400q-103 45 -207 45q-79 0 -129.5 -29.5t-50.5 -94.5q0 -121 172 -121q118 0 225 39v-396q-164 -49 -344 -49q-90 0 -171 17t-153.5 55t-125.5 94t-84 140t-31 188zM705 1075h-412
l215 361h465z" />
    <glyph glyph-name="Cdotaccent" unicode="&#x10a;" horiz-adv-x="1327" 
d="M41 707q-1 159 43.5 288.5t120 216t178.5 145.5t215.5 85t235.5 26q232 0 426 -84v-471q-62 34 -151.5 59t-178.5 25q-67 0 -124 -15.5t-104 -48.5t-73.5 -90.5t-26.5 -135.5q0 -67 26 -118.5t71 -82.5t100.5 -46.5t118.5 -15.5q112 0 207 22.5t145 61.5v-479
q-190 -84 -420 -84q-129 0 -245 26t-220 83.5t-180 142.5t-120 210.5t-44 279.5zM608 1720q0 106 63.5 160.5t159.5 54.5q98 0 161 -54t63 -161q0 -108 -63 -161.5t-161 -53.5q-97 0 -160 53.5t-63 161.5z" />
    <glyph glyph-name="cdotaccent" unicode="&#x10b;" horiz-adv-x="997" 
d="M33 459q0 118 33.5 214t89.5 160t133.5 107.5t162 62.5t177.5 19q145 0 303 -51v-400q-103 45 -207 45q-79 0 -129.5 -29.5t-50.5 -94.5q0 -121 172 -121q118 0 225 39v-396q-164 -49 -344 -49q-90 0 -171 17t-153.5 55t-125.5 94t-84 140t-31 188zM326 1270
q0 106 63.5 160.5t159.5 54.5q97 0 160 -54t63 -161q0 -108 -62.5 -161.5t-160.5 -53.5q-97 0 -160 53.5t-63 161.5z" />
    <glyph glyph-name="Ccaron" unicode="&#x10c;" horiz-adv-x="1327" 
d="M41 707q-1 159 43.5 288.5t120 216t178.5 145.5t215.5 85t235.5 26q232 0 426 -84v-471q-62 34 -151.5 59t-178.5 25q-67 0 -124 -15.5t-104 -48.5t-73.5 -90.5t-26.5 -135.5q0 -67 26 -118.5t71 -82.5t100.5 -46.5t118.5 -15.5q112 0 207 22.5t145 61.5v-479
q-190 -84 -420 -84q-129 0 -245 26t-220 83.5t-180 142.5t-120 210.5t-44 279.5zM1309 1894l-275 -368h-434l-274 368h391l100 -120l101 120h391z" />
    <glyph glyph-name="ccaron" unicode="&#x10d;" horiz-adv-x="997" 
d="M33 459q0 118 33.5 214t89.5 160t133.5 107.5t162 62.5t177.5 19q145 0 303 -51v-400q-103 45 -207 45q-79 0 -129.5 -29.5t-50.5 -94.5q0 -121 172 -121q118 0 225 39v-396q-164 -49 -344 -49q-90 0 -171 17t-153.5 55t-125.5 94t-84 140t-31 188zM1026 1444l-274 -369
h-435l-274 369h391l101 -121l100 121h391z" />
    <glyph glyph-name="Dcaron" unicode="&#x10e;" horiz-adv-x="1521" 
d="M86 1434h653q189 0 332.5 -52t232.5 -148.5t133 -226t44 -290.5t-44 -290.5t-133 -226t-232.5 -148.5t-332.5 -52h-653v1434zM920 717q0 146 -52 206t-149 60h-88v-532h88q97 0 149 60t52 206zM1221 1894l-275 -368h-434l-274 368h391l100 -120l100 120h392z" />
    <glyph glyph-name="dcaron" unicode="&#x10f;" horiz-adv-x="1337" 
d="M1307 1434h385l-86 -449h-332zM721 1434h496v-1434h-437v109q-61 -65 -140.5 -104.5t-168.5 -39.5q-110 0 -195 42t-136 116t-77 167t-26 202t26 202t77 166.5t136 115.5t195 42q154 0 250 -80v496zM721 596q-9 11 -29 20t-43 9q-50 0 -75 -38.5t-25 -94.5
q0 -57 25 -95.5t75 -38.5q43 0 72 29v209z" />
    <glyph glyph-name="Dcroat" unicode="&#x110;" horiz-adv-x="1544" 
d="M109 1434h653q189 0 332.5 -52t232 -148.5t132.5 -226t44 -290.5t-44 -290.5t-132.5 -226t-232 -148.5t-332.5 -52h-653v569h-103v287h103v578zM653 451h88q97 0 149 60t52 206t-52 206t-149 60h-88v-127h168v-287h-168v-118z" />
    <glyph glyph-name="dcroat" unicode="&#x111;" horiz-adv-x="1284" 
d="M1217 1307h139v-215h-139v-1092h-437v109q-61 -65 -140.5 -104.5t-168.5 -39.5q-110 0 -195 42t-136 116t-77 167t-26 202t26 202t77 166.5t136 115.5t195 42q154 0 250 -80v154h-246v215h246v127h496v-127zM649 358q43 0 72 29v209q-9 11 -29 20t-43 9q-50 0 -75 -38.5
t-25 -94.5q0 -57 25 -95.5t75 -38.5z" />
    <glyph glyph-name="Emacron" unicode="&#x112;" horiz-adv-x="1282" 
d="M86 1434h1126v-410h-581v-123h499v-364h-499v-123h594v-414h-1139v1434zM254 1853h778v-321h-778v321z" />
    <glyph glyph-name="emacron" unicode="&#x113;" horiz-adv-x="1118" 
d="M33 502q0 111 35 201t90 147.5t127.5 96.5t143.5 55t142 16q96 0 175 -20t135 -55.5t97.5 -83.5t64.5 -103t34 -117t9 -122t-15 -120h-575q22 -48 92.5 -74t159.5 -26q161 0 284 33v-316q-146 -49 -352 -49q-98 0 -186.5 16t-174 55.5t-148 99t-100.5 153.5t-38 213z
M694 590q6 50 -18 84.5t-76 34.5q-55 0 -84 -35t-29 -84h207zM176 1403h778v-322h-778v322z" />
    <glyph glyph-name="Edotaccent" unicode="&#x116;" horiz-adv-x="1282" 
d="M86 1434h1126v-410h-581v-123h499v-364h-499v-123h594v-414h-1139v1434zM422 1720q0 106 63.5 160.5t159.5 54.5q97 0 160 -54t63 -161q0 -108 -62.5 -161.5t-160.5 -53.5q-97 0 -160 53.5t-63 161.5z" />
    <glyph glyph-name="edotaccent" unicode="&#x117;" horiz-adv-x="1118" 
d="M33 502q0 111 35 201t90 147.5t127.5 96.5t143.5 55t142 16q96 0 175 -20t135 -55.5t97.5 -83.5t64.5 -103t34 -117t9 -122t-15 -120h-575q22 -48 92.5 -74t159.5 -26q161 0 284 33v-316q-146 -49 -352 -49q-98 0 -186.5 16t-174 55.5t-148 99t-100.5 153.5t-38 213z
M694 590q6 50 -18 84.5t-76 34.5q-55 0 -84 -35t-29 -84h207zM344 1270q0 106 63.5 160.5t159.5 54.5q98 0 161 -54t63 -161q0 -108 -63 -161.5t-161 -53.5q-97 0 -160 53.5t-63 161.5z" />
    <glyph glyph-name="Eogonek" unicode="&#x118;" horiz-adv-x="1282" 
d="M1225 414v-414q-47 -36 -75 -76.5t-28 -68.5q0 -41 45 -41q19 0 37 6v-277q-92 -28 -207 -28q-134 0 -203 61.5t-67 153.5q-1 69 48.5 142.5t121.5 127.5h-811v1434h1126v-410h-581v-123h499v-364h-499v-123h594z" />
    <glyph glyph-name="eogonek" unicode="&#x119;" horiz-adv-x="1120" 
d="M983 -457q-92 -28 -207 -28q-134 0 -203 61.5t-67 153.5q-1 60 37.5 123t103.5 112q-78 4 -117 10q-81 12 -151.5 36.5t-135.5 67t-110.5 100t-72.5 140.5t-27 183q0 111 35 201t90 147.5t127.5 96.5t143.5 55t142 16q96 0 175 -20t135 -55.5t97.5 -83.5t64.5 -103
t34 -117t9 -122t-15 -120h-575q22 -48 92.5 -74t159.5 -26q161 0 284 33v-316q-135 -82 -135 -155q0 -45 49 -45q19 0 37 6v-277zM600 709q-55 0 -84 -35t-29 -84h207q6 50 -18 84.5t-76 34.5z" />
    <glyph glyph-name="Ecaron" unicode="&#x11a;" horiz-adv-x="1282" 
d="M86 1434h1126v-410h-581v-123h499v-364h-499v-123h594v-414h-1139v1434zM1122 1894l-274 -368h-434l-275 368h391l101 -120l100 120h391z" />
    <glyph glyph-name="ecaron" unicode="&#x11b;" horiz-adv-x="1118" 
d="M33 502q0 111 35 201t90 147.5t127.5 96.5t143.5 55t142 16q96 0 175 -20t135 -55.5t97.5 -83.5t64.5 -103t34 -117t9 -122t-15 -120h-575q22 -48 92.5 -74t159.5 -26q161 0 284 33v-316q-146 -49 -352 -49q-98 0 -186.5 16t-174 55.5t-148 99t-100.5 153.5t-38 213z
M694 590q6 50 -18 84.5t-76 34.5q-55 0 -84 -35t-29 -84h207zM1044 1444l-274 -369h-434l-275 369h392l100 -121l100 121h391z" />
    <glyph glyph-name="Gbreve" unicode="&#x11e;" horiz-adv-x="1411" 
d="M37 717q0 151 44 276.5t119 212t177 146.5t215.5 88t236.5 28q269 0 478 -84v-471q-67 39 -168 61.5t-195 22.5q-74 0 -134.5 -15.5t-109 -47.5t-75.5 -87t-27 -130q0 -72 24.5 -125.5t61 -79.5t68.5 -37.5t59 -11.5h23v346h507v-748q-252 -96 -495 -96
q-128 0 -245.5 29.5t-220.5 90.5t-179 149t-120 212t-44 271zM1184 1634q-171 -112 -396 -112q-224 0 -395 112v320q165 -101 395 -101q231 0 396 101v-320z" />
    <glyph glyph-name="gbreve" unicode="&#x11f;" horiz-adv-x="1284" 
d="M37 512q0 109 25.5 199t77 159.5t136 108.5t195.5 39q89 0 168.5 -39.5t140.5 -104.5v109h437v-903q0 -121 -34 -217.5t-91 -160.5t-136.5 -107t-167.5 -61.5t-186 -18.5q-148 0 -249 17t-216 60v402q160 -78 361 -78q223 0 223 131v39q-96 -80 -250 -80
q-111 0 -195.5 39t-136 108.5t-77 159.5t-25.5 199zM721 606q-29 29 -72 29q-50 0 -75 -38.5t-25 -94.5t25 -94.5t75 -38.5q23 0 43 9t29 19v209zM1049 1184q-173 -113 -396 -113q-222 0 -395 113v319q163 -100 395 -100q233 0 396 100v-319z" />
    <glyph glyph-name="Gdotaccent" unicode="&#x120;" horiz-adv-x="1411" 
d="M37 717q0 151 44 276.5t119 212t177 146.5t215.5 88t236.5 28q269 0 478 -84v-471q-67 39 -168 61.5t-195 22.5q-74 0 -134.5 -15.5t-109 -47.5t-75.5 -87t-27 -130q0 -72 24.5 -125.5t61 -79.5t68.5 -37.5t59 -11.5h23v346h507v-748q-252 -96 -495 -96
q-128 0 -245.5 29.5t-220.5 90.5t-179 149t-120 212t-44 271zM567 1720q0 106 64 160.5t160 54.5q97 0 160 -54t63 -161q0 -108 -62.5 -161.5t-160.5 -53.5q-97 0 -160.5 53.5t-63.5 161.5z" />
    <glyph glyph-name="gdotaccent" unicode="&#x121;" horiz-adv-x="1284" 
d="M37 512q0 109 25.5 199t77 159.5t136 108.5t195.5 39q89 0 168.5 -39.5t140.5 -104.5v109h437v-903q0 -121 -34 -217.5t-91 -160.5t-136.5 -107t-167.5 -61.5t-186 -18.5q-148 0 -249 17t-216 60v402q160 -78 361 -78q223 0 223 131v39q-96 -80 -250 -80
q-111 0 -195.5 39t-136 108.5t-77 159.5t-25.5 199zM721 606q-29 29 -72 29q-50 0 -75 -38.5t-25 -94.5t25 -94.5t75 -38.5q23 0 43 9t29 19v209zM432 1270q0 106 63.5 160.5t159.5 54.5q98 0 161 -54t63 -161q0 -108 -63 -161.5t-161 -53.5q-97 0 -160 53.5t-63 161.5z" />
    <glyph glyph-name="Gcommaaccent" unicode="&#x122;" horiz-adv-x="1411" 
d="M37 717q0 151 44 276.5t119 212t177 146.5t215.5 88t236.5 28q269 0 478 -84v-471q-67 39 -168 61.5t-195 22.5q-74 0 -134.5 -15.5t-109 -47.5t-75.5 -87t-27 -130q0 -72 24.5 -125.5t61 -79.5t68.5 -37.5t59 -11.5h23v346h507v-748q-252 -96 -495 -96
q-128 0 -245.5 29.5t-220.5 90.5t-179 149t-120 212t-44 271zM895 -696h-375l88 573h451z" />
    <glyph glyph-name="gcommaaccent" unicode="&#x123;" horiz-adv-x="1284" 
d="M844 1083h-406l107 449h352zM37 512q0 109 25.5 199t77 159.5t136 108.5t195.5 39q89 0 168.5 -39.5t140.5 -104.5v109h437v-903q0 -121 -34 -217.5t-91 -160.5t-136.5 -107t-167.5 -61.5t-186 -18.5q-148 0 -249 17t-216 60v402q160 -78 361 -78q223 0 223 131v39
q-96 -80 -250 -80q-111 0 -195.5 39t-136 108.5t-77 159.5t-25.5 199zM721 606q-29 29 -72 29q-50 0 -75 -38.5t-25 -94.5t25 -94.5t75 -38.5q23 0 43 9t29 19v209z" />
    <glyph glyph-name="Hbar" unicode="&#x126;" horiz-adv-x="1642" 
d="M682 0h-545v1094h-135v209h135v131h545v-131h279v131h544v-131h135v-209h-135v-1094h-544v481h-279v-481zM682 1094v-142h279v142h-279z" />
    <glyph glyph-name="hbar" unicode="&#x127;" horiz-adv-x="1222" 
d="M563 946q106 72 232 72q78 0 141.5 -22t105 -58t69.5 -84.5t40 -98t12 -100.5v-655h-495v559q0 47 -52 47q-30 0 -53 -18v-588h-495v1092h-136v215h136v127h495v-127h250v-215h-250v-146z" />
    <glyph glyph-name="Imacron" unicode="&#x12a;" horiz-adv-x="716" 
d="M86 1434h545v-1434h-545v1434zM-31 1853h779v-321h-779v321z" />
    <glyph glyph-name="imacron" unicode="&#x12b;" horiz-adv-x="632" 
d="M-12 1423h655v-307h-655v307zM68 983h497v-983h-497v983z" />
    <glyph glyph-name="Iogonek" unicode="&#x12e;" horiz-adv-x="716" 
d="M631 1434v-1434q-47 -36 -75 -76.5t-28 -68.5q0 -41 45 -41q19 0 37 6v-277q-92 -28 -207 -28q-134 0 -203 61.5t-67 153.5q-1 69 48.5 142.5t121.5 127.5h-217v1434h545z" />
    <glyph glyph-name="iogonek" unicode="&#x12f;" horiz-adv-x="632" 
d="M561 1288q0 -114 -70.5 -174.5t-175.5 -60.5t-175 60.5t-70 174.5t70 175t175 61t175.5 -61t70.5 -175zM565 983v-983q-46 -36 -74 -76.5t-28 -68.5q0 -41 45 -41q19 0 37 6v-256q-88 -49 -207 -49q-134 1 -202 61.5t-68 153.5q0 72 53 145.5t137 124.5h-190v983h497z
" />
    <glyph glyph-name="Idotaccent" unicode="&#x130;" horiz-adv-x="716" 
d="M86 1434h545v-1434h-545v1434zM137 1720q0 106 63.5 160.5t159.5 54.5q98 0 161 -54t63 -161q0 -108 -63 -161.5t-161 -53.5q-97 0 -160 53.5t-63 161.5z" />
    <glyph glyph-name="dotlessi" unicode="&#x131;" horiz-adv-x="632" 
d="M68 983h497v-983h-497v983z" />
    <glyph glyph-name="IJ" unicode="&#x132;" horiz-adv-x="1781" 
d="M86 1434h545v-1434h-545v1434zM856 1434h852v-895q0 -92 -18 -170t-49 -134.5t-76 -101t-95 -73t-110 -47t-117.5 -26t-120.5 -7.5q-240 0 -372 57v471q106 -37 225 -37q188 0 188 131v361h-307v471z" />
    <glyph glyph-name="ij" unicode="&#x133;" horiz-adv-x="1261" 
d="M563 0h-495v983h495v-983zM561 1288q0 -114 -70.5 -174.5t-175.5 -60.5t-175 60.5t-70 174.5t70 175t175 61t175.5 -61t70.5 -175zM1194 -94q0 -103 -35.5 -180.5t-98.5 -122.5t-140 -66.5t-168 -21.5q-126 0 -220 30v398q27 -6 72 -6q47 0 70.5 22t23.5 74v950h496
v-1077zM1192 1288q0 -114 -70.5 -174.5t-175.5 -60.5t-175.5 60.5t-70.5 174.5t70.5 175t175.5 61t175.5 -61t70.5 -175z" />
    <glyph glyph-name="Kcommaaccent" unicode="&#x136;" horiz-adv-x="1523" 
d="M631 0h-545v1434h545v-482h74l253 482h598l-423 -719l423 -715h-598l-270 481h-57v-481zM854 -676h-375l88 574h451z" />
    <glyph glyph-name="kcommaaccent" unicode="&#x137;" horiz-adv-x="1277" 
d="M1294 0h-532l-146 301h-53v-301h-495v1434h495v-744h53l144 293h532l-291 -487zM739 -676h-374l88 574h450z" />
    <glyph glyph-name="Lacute" unicode="&#x139;" horiz-adv-x="1234" 
d="M86 1434h545v-963h581v-471h-1126v1434zM526 1526h-411l215 360h465z" />
    <glyph glyph-name="lacute" unicode="&#x13a;" horiz-adv-x="630" 
d="M68 1495h495v-1495h-495v1495zM496 1597h-412l215 361h465z" />
    <glyph glyph-name="Lcommaaccent" unicode="&#x13b;" horiz-adv-x="1234" 
d="M86 1434h545v-963h581v-471h-1126v1434zM735 -676h-375l89 574h450z" />
    <glyph glyph-name="lcommaaccent" unicode="&#x13c;" horiz-adv-x="630" 
d="M68 1495h495v-1495h-495v1495zM358 -676h-374l88 574h450z" />
    <glyph glyph-name="Lcaron" unicode="&#x13d;" horiz-adv-x="1247" 
d="M807 1434h385l-86 -510h-332zM86 1434h545v-963h581v-471h-1126v1434z" />
    <glyph glyph-name="lcaron" unicode="&#x13e;" horiz-adv-x="684" 
d="M653 1495h385l-86 -510h-331zM68 1495h495v-1495h-495v1495z" />
    <glyph glyph-name="Ldot" unicode="&#x13f;" horiz-adv-x="1269" 
d="M1194 866q0 -110 -66.5 -167.5t-166.5 -57.5q-99 0 -165.5 57.5t-66.5 167.5t66.5 168t165.5 58q100 0 166.5 -58t66.5 -168zM86 1434h545v-963h581v-471h-1126v1434z" />
    <glyph glyph-name="ldot" unicode="&#x140;" horiz-adv-x="1153" 
d="M68 1495h495v-1495h-495v1495zM1153 717q0 -123 -75.5 -188.5t-188.5 -65.5q-112 0 -187 65.5t-75 188.5t75 188.5t187 65.5q113 0 188.5 -65.5t75.5 -188.5z" />
    <glyph glyph-name="Lslash" unicode="&#x141;" horiz-adv-x="1357" 
d="M1335 0h-1126v424l-164 -55v438l164 55v572h545v-385l227 77v-438l-227 -78v-139h581v-471z" />
    <glyph glyph-name="lslash" unicode="&#x142;" horiz-adv-x="847" 
d="M176 1495h496v-563l139 51v-365l-139 -49v-569h-496v375l-139 -51v364l139 49v758z" />
    <glyph glyph-name="Nacute" unicode="&#x143;" horiz-adv-x="1560" 
d="M631 0h-545v1434h432l426 -557q-14 100 -14 249v308h545v-1434h-433l-426 557q15 -107 15 -250v-307zM920 1526h-412l215 360h465z" />
    <glyph glyph-name="nacute" unicode="&#x144;" horiz-adv-x="1222" 
d="M502 897q130 121 293 121q78 0 141.5 -22t105 -58t69.5 -84.5t40 -98t12 -100.5v-655h-495v559q0 47 -52 47q-30 0 -53 -18v-588h-495v983h434v-86zM748 1075h-412l215 361h465z" />
    <glyph glyph-name="Ncommaaccent" unicode="&#x145;" horiz-adv-x="1560" 
d="M631 0h-545v1434h432l426 -557q-14 100 -14 249v308h545v-1434h-433l-426 557q15 -107 15 -250v-307zM909 -676h-374l88 574h450z" />
    <glyph glyph-name="ncommaaccent" unicode="&#x146;" horiz-adv-x="1222" 
d="M502 897q130 121 293 121q78 0 141.5 -22t105 -58t69.5 -84.5t40 -98t12 -100.5v-655h-495v559q0 47 -52 47q-30 0 -53 -18v-588h-495v983h434v-86zM692 -676h-375l89 574h450z" />
    <glyph glyph-name="Ncaron" unicode="&#x147;" horiz-adv-x="1560" 
d="M631 0h-545v1434h432l426 -557q-14 100 -14 249v308h545v-1434h-433l-426 557q15 -107 15 -250v-307zM1241 1894l-274 -368h-435l-274 368h391l101 -120l100 120h391z" />
    <glyph glyph-name="ncaron" unicode="&#x148;" horiz-adv-x="1222" 
d="M502 897q130 121 293 121q78 0 141.5 -22t105 -58t69.5 -84.5t40 -98t12 -100.5v-655h-495v559q0 47 -52 47q-30 0 -53 -18v-588h-495v983h434v-86zM1069 1444l-274 -369h-435l-274 369h391l101 -121l100 121h391z" />
    <glyph glyph-name="Eng" unicode="&#x14a;" horiz-adv-x="1560" 
d="M1475 0q0 -225 -119.5 -350t-335.5 -125q-59 0 -191 22v392q29 -11 56 -11q36 0 61 19.5t25 58.5v90l-355 461q15 -107 15 -250v-307h-545v1434h432l426 -557q-14 100 -14 249v308h545v-1434z" />
    <glyph glyph-name="eng" unicode="&#x14b;" horiz-adv-x="1222" 
d="M1163 -80q0 -92 -25.5 -164t-66.5 -116.5t-97 -73.5t-111 -40t-115 -11q-119 0 -185 32v367q24 -4 39 -4q66 0 66 88v561q0 47 -52 47q-30 0 -53 -18v-588h-495v983h434v-86q130 121 293 121q78 0 141.5 -22t105 -58t69.5 -84.5t40 -98t12 -100.5v-735z" />
    <glyph glyph-name="Omacron" unicode="&#x14c;" horiz-adv-x="1640" 
d="M37 717q0 160 50 295.5t145.5 238t246 160t340.5 57.5t341 -57.5t247 -160t146.5 -238t50.5 -295.5t-50.5 -296t-146.5 -238t-247 -160t-341 -58t-340.5 58t-246 160t-145.5 238t-50 296zM1042 717q0 126 -59.5 193t-163.5 67q-102 0 -161.5 -67t-59.5 -193t59.5 -193
t161.5 -67q104 0 163.5 67t59.5 193zM430 1853h778v-321h-778v321z" />
    <glyph glyph-name="omacron" unicode="&#x14d;" horiz-adv-x="1218" 
d="M33 492q0 131 45 233t124 165t182 95.5t224 32.5t224.5 -32.5t183 -95.5t125 -165.5t45.5 -232.5t-45.5 -232.5t-125 -166t-183 -96t-224.5 -32.5t-224 32.5t-182 96t-124 165.5t-45 233zM715 492q0 63 -24.5 97t-82.5 34q-57 0 -80.5 -34t-23.5 -97q0 -132 104 -132
q107 0 107 132zM219 1403h778v-322h-778v322z" />
    <glyph glyph-name="Ohungarumlaut" unicode="&#x150;" horiz-adv-x="1640" 
d="M37 717q0 160 50 295.5t145.5 238t246 160t340.5 57.5t341 -57.5t247 -160t146.5 -238t50.5 -295.5t-50.5 -296t-146.5 -238t-247 -160t-341 -58t-340.5 58t-246 160t-145.5 238t-50 296zM1042 717q0 126 -59.5 193t-163.5 67q-102 0 -161.5 -67t-59.5 -193t59.5 -193
t161.5 -67q104 0 163.5 67t59.5 193zM1208 1516h-379l193 362h410zM727 1516h-379l162 362h410z" />
    <glyph glyph-name="ohungarumlaut" unicode="&#x151;" horiz-adv-x="1218" 
d="M33 492q0 131 45 233t124 165t182 95.5t224 32.5t224.5 -32.5t183 -95.5t125 -165.5t45.5 -232.5t-45.5 -232.5t-125 -166t-183 -96t-224.5 -32.5t-224 32.5t-182 96t-124 165.5t-45 233zM715 492q0 63 -24.5 97t-82.5 34q-57 0 -80.5 -34t-23.5 -97q0 -132 104 -132
q107 0 107 132zM997 1065h-379l193 362h410zM516 1065h-379l162 362h410z" />
    <glyph glyph-name="OE" unicode="&#x152;" horiz-adv-x="2058" 
d="M1006 0q-119 -35 -248 -35q-214 0 -379.5 100t-253.5 270.5t-88 381.5t88 381t253.5 270t379.5 100q130 0 248 -34h983v-410h-480v-123h398v-364h-398v-123h492v-414h-995zM596 717q0 -75 24.5 -129t63.5 -81t77.5 -38.5t76.5 -11.5q82 0 147 24v471q-67 25 -147 25
q-38 0 -76.5 -11.5t-77.5 -38.5t-63.5 -81t-24.5 -129z" />
    <glyph glyph-name="oe" unicode="&#x153;" horiz-adv-x="1818" 
d="M954 117q-59 -75 -155.5 -113.5t-208.5 -38.5q-162 0 -285 56t-196.5 176.5t-73.5 294.5q0 131 42 232.5t117 165t175 96t221 32.5q103 0 195.5 -36.5t158.5 -107.5q144 144 369 144q101 0 182.5 -27t135 -74t90 -107.5t51 -131t15 -141t-14.5 -140.5h-576
q22 -48 92.5 -74t159.5 -26q171 0 283 33v-316q-155 -49 -330 -49q-298 0 -447 152zM506 492q0 -132 104 -132q107 0 107 132q0 63 -24.5 97t-82.5 34q-57 0 -80.5 -34t-23.5 -97zM1300 709q-55 0 -83.5 -35t-28.5 -84h207q6 50 -18.5 84.5t-76.5 34.5z" />
    <glyph glyph-name="Racute" unicode="&#x154;" horiz-adv-x="1515" 
d="M631 0h-545v1434h713q100 0 187.5 -15.5t170 -54t141 -96.5t94 -149.5t35.5 -207.5q0 -297 -223 -428l346 -483h-592l-256 389h-71v-389zM631 1004v-222h137q56 0 85.5 32t29.5 79t-29.5 79t-85.5 32h-137zM889 1526h-412l215 360h465z" />
    <glyph glyph-name="racute" unicode="&#x155;" horiz-adv-x="880" 
d="M504 883q20 25 39 43t50 38.5t65.5 29t86 14.5t111.5 -4v-457q-69 28 -157.5 25t-135.5 -35v-537h-495v983h436v-100zM604 1075h-411l215 361h464z" />
    <glyph glyph-name="Rcommaaccent" unicode="&#x156;" horiz-adv-x="1515" 
d="M631 0h-545v1434h713q100 0 187.5 -15.5t170 -54t141 -96.5t94 -149.5t35.5 -207.5q0 -297 -223 -428l346 -483h-592l-256 389h-71v-389zM631 1004v-222h137q56 0 85.5 32t29.5 79t-29.5 79t-85.5 32h-137zM850 -676h-375l88 574h451z" />
    <glyph glyph-name="rcommaaccent" unicode="&#x157;" horiz-adv-x="880" 
d="M504 883q20 25 39 43t50 38.5t65.5 29t86 14.5t111.5 -4v-457q-69 28 -157.5 25t-135.5 -35v-537h-495v983h436v-100zM354 -676h-374l88 574h450z" />
    <glyph glyph-name="Rcaron" unicode="&#x158;" horiz-adv-x="1515" 
d="M631 0h-545v1434h713q100 0 187.5 -15.5t170 -54t141 -96.5t94 -149.5t35.5 -207.5q0 -297 -223 -428l346 -483h-592l-256 389h-71v-389zM631 1004v-222h137q56 0 85.5 32t29.5 79t-29.5 79t-85.5 32h-137zM1210 1894l-274 -368h-434l-275 368h391l101 -120l100 120h391z
" />
    <glyph glyph-name="rcaron" unicode="&#x159;" horiz-adv-x="880" 
d="M504 883q20 25 39 43t50 38.5t65.5 29t86 14.5t111.5 -4v-457q-69 28 -157.5 25t-135.5 -35v-537h-495v983h436v-100zM926 1444l-275 -369h-434l-274 369h391l100 -121l101 121h391z" />
    <glyph glyph-name="Sacute" unicode="&#x15a;" horiz-adv-x="1316" 
d="M57 1006q0 114 45 203t124.5 145t183.5 85t227 29q148 0 297.5 -32t263.5 -90v-459q-115 66 -246 104t-245 37q-86 0 -86 -41q0 -21 28 -38t74.5 -28t105.5 -28t120.5 -36t120.5 -53.5t105.5 -79t74.5 -115t28 -158.5q0 -112 -32.5 -198t-88 -140t-136.5 -87.5t-170 -47
t-198 -13.5q-334 0 -581 137v486q134 -85 271 -129.5t249 -44.5q76 0 100.5 12t24.5 37q0 20 -36.5 36t-94.5 31t-128.5 34.5t-141 54t-128.5 82t-94.5 126.5t-36.5 179zM788 1526h-411l215 360h465z" />
    <glyph glyph-name="sacute" unicode="&#x15b;" horiz-adv-x="1013" 
d="M47 700q0 71 25.5 126.5t68 91t102.5 58.5t124 32.5t137 9.5q216 0 399 -84v-324q-64 34 -142.5 56t-142.5 22q-51 0 -51 -24q0 -16 23 -28.5t60 -23t81.5 -24t89 -36t81.5 -54t60 -84t23 -119.5q0 -76 -28 -134.5t-74 -95t-112 -59.5t-135 -32t-151 -9q-262 0 -426 84
v371q78 -58 172.5 -85.5t165.5 -27.5q72 0 72 27q0 15 -23.5 27t-60.5 23t-82 25t-90 37.5t-82 54.5t-60.5 82.5t-23.5 116.5zM649 1075h-411l215 361h465z" />
    <glyph glyph-name="Scedilla" unicode="&#x15e;" horiz-adv-x="1316" 
d="M621 987q0 -21 28 -38t74.5 -28t105.5 -28t120.5 -36t120.5 -53.5t105.5 -79t74.5 -115t28 -158.5q0 -116 -33.5 -203.5t-96.5 -142.5t-142.5 -86t-182.5 -44l-22 -63q196 -25 196 -180q0 -75 -46.5 -125.5t-119.5 -72t-169 -21.5q-159 0 -263 38v230q89 -27 166 -27
q117 0 117 49q0 34 -61 43.5t-123 1.5l41 121q-266 21 -467 133v486q134 -85 271 -129.5t249 -44.5q76 0 100.5 12t24.5 37q0 20 -36.5 36t-94.5 31t-128.5 34.5t-141 54t-128.5 82t-94.5 126.5t-36.5 179q0 114 45 203t124.5 145t183.5 85t227 29q148 0 297.5 -32
t263.5 -90v-459q-115 66 -246 104t-245 37q-86 0 -86 -41z" />
    <glyph glyph-name="scedilla" unicode="&#x15f;" horiz-adv-x="1013" 
d="M567 664q0 -16 23 -28.5t60 -23t81.5 -24t89 -36t81.5 -54t60 -84t23 -119.5q0 -256 -311 -315l-25 -68q197 -25 197 -180q0 -75 -46.5 -125.5t-120 -72t-169.5 -21.5q-158 0 -262 38v230q89 -27 166 -27q116 0 116 49q0 34 -61 43.5t-123 1.5l41 119q-196 12 -328 82
v371q78 -58 172.5 -85.5t165.5 -27.5q72 0 72 27q0 15 -23.5 27t-60.5 23t-82 25t-90 37.5t-82 54.5t-60.5 82.5t-23.5 116.5q0 71 25.5 126.5t68 91t102.5 58.5t124 32.5t137 9.5q216 0 399 -84v-324q-64 34 -142.5 56t-142.5 22q-51 0 -51 -24z" />
    <glyph glyph-name="Scaron" unicode="&#x160;" horiz-adv-x="1316" 
d="M57 1006q0 114 45 203t124.5 145t183.5 85t227 29q148 0 297.5 -32t263.5 -90v-459q-115 66 -246 104t-245 37q-86 0 -86 -41q0 -21 28 -38t74.5 -28t105.5 -28t120.5 -36t120.5 -53.5t105.5 -79t74.5 -115t28 -158.5q0 -112 -32.5 -198t-88 -140t-136.5 -87.5t-170 -47
t-198 -13.5q-334 0 -581 137v486q134 -85 271 -129.5t249 -44.5q76 0 100.5 12t24.5 37q0 20 -36.5 36t-94.5 31t-128.5 34.5t-141 54t-128.5 82t-94.5 126.5t-36.5 179zM1110 1894l-274 -368h-435l-274 368h391l100 -120l101 120h391z" />
    <glyph glyph-name="scaron" unicode="&#x161;" horiz-adv-x="1013" 
d="M47 700q0 71 25.5 126.5t68 91t102.5 58.5t124 32.5t137 9.5q216 0 399 -84v-324q-64 34 -142.5 56t-142.5 22q-51 0 -51 -24q0 -16 23 -28.5t60 -23t81.5 -24t89 -36t81.5 -54t60 -84t23 -119.5q0 -76 -28 -134.5t-74 -95t-112 -59.5t-135 -32t-151 -9q-262 0 -426 84
v371q78 -58 172.5 -85.5t165.5 -27.5q72 0 72 27q0 15 -23.5 27t-60.5 23t-82 25t-90 37.5t-82 54.5t-60.5 82.5t-23.5 116.5zM971 1444l-275 -369h-434l-274 369h391l100 -121l101 121h391z" />
    <glyph glyph-name="Tcommaaccent" unicode="&#x162;" horiz-adv-x="1327" 
d="M23 1434h1282v-471h-369v-963h-545v963h-368v471zM737 -676h-375l89 574h450z" />
    <glyph glyph-name="tcommaaccent" unicode="&#x163;" horiz-adv-x="901" 
d="M164 1237l498 115v-369h182v-389h-182v-154q0 -71 106 -71q48 0 86 10v-379q-151 -37 -287 -37q-403 0 -403 406v225h-123v389h123v254zM604 -676h-375l88 574h451z" />
    <glyph glyph-name="Tcaron" unicode="&#x164;" horiz-adv-x="1327" 
d="M23 1434h1282v-471h-369v-963h-545v963h-368v471zM1157 1894l-274 -368h-434l-275 368h391l101 -120l100 120h391z" />
    <glyph glyph-name="tcaron" unicode="&#x165;" horiz-adv-x="901" 
d="M784 1589h385l-86 -510h-331zM164 1237l498 115v-369h182v-389h-182v-154q0 -71 106 -71q48 0 86 10v-379q-151 -37 -287 -37q-403 0 -403 406v225h-123v389h123v254z" />
    <glyph glyph-name="Tbar" unicode="&#x166;" horiz-adv-x="1347" 
d="M946 0h-545v444h-219l2 308h217v211h-368v471h1282v-471h-369v-211h219v-308h-219v-444z" />
    <glyph glyph-name="tbar" unicode="&#x167;" horiz-adv-x="901" 
d="M662 428q0 -59 106 -59q48 0 86 10v-379q-151 -37 -287 -37q-403 0 -403 406v65h-72v123h72v57h-123v369h123v254l498 115v-369h182v-369h-182v-57h147v-123h-147v-6z" />
    <glyph glyph-name="Umacron" unicode="&#x16a;" horiz-adv-x="1507" 
d="M891 1434h545v-869q0 -131 -37 -235t-99.5 -171.5t-151 -112t-185.5 -63t-209 -18.5q-111 0 -208 18.5t-185.5 63t-151.5 112t-100 171.5t-37 235v869h544v-844q0 -133 138 -133q137 0 137 133v844zM369 1853h778v-321h-778v321z" />
    <glyph glyph-name="umacron" unicode="&#x16b;" horiz-adv-x="1222" 
d="M659 983h496v-983h-434v86q-130 -121 -293 -121q-78 0 -141.5 22t-105 58.5t-70 84.5t-40.5 97.5t-12 100.5v655h496v-559q0 -47 51 -47q30 0 53 18v588zM219 1403h778v-322h-778v322z" />
    <glyph glyph-name="Uring" unicode="&#x16e;" horiz-adv-x="1507" 
d="M891 1434h545v-869q0 -131 -37 -235t-99.5 -171.5t-151 -112t-185.5 -63t-209 -18.5q-111 0 -208 18.5t-185.5 63t-151.5 112t-100 171.5t-37 235v869h544v-844q0 -133 138 -133q137 0 137 133v844zM1069 1755q0 -133 -87.5 -205.5t-221.5 -72.5q-130 0 -217.5 73
t-87.5 205q0 127 88 201t217 74q133 0 221 -73.5t88 -201.5zM694 1753q0 -30 17 -48.5t51 -18.5q67 0 67 67q0 68 -67 68q-34 0 -51 -19t-17 -49z" />
    <glyph glyph-name="uring" unicode="&#x16f;" horiz-adv-x="1222" 
d="M659 983h496v-983h-434v86q-130 -121 -293 -121q-78 0 -141.5 22t-105 58.5t-70 84.5t-40.5 97.5t-12 100.5v655h496v-559q0 -47 51 -47q30 0 53 18v588zM920 1305q0 -133 -88 -206t-222 -73q-130 0 -217.5 73.5t-87.5 205.5q0 127 88 200.5t217 73.5q133 0 221.5 -73
t88.5 -201zM545 1303q0 -30 17 -49t50 -19q35 0 51.5 19t16.5 49t-16.5 48.5t-51.5 18.5q-34 0 -50.5 -18.5t-16.5 -48.5z" />
    <glyph glyph-name="Uhungarumlaut" unicode="&#x170;" horiz-adv-x="1507" 
d="M891 1434h545v-869q0 -131 -37 -235t-99.5 -171.5t-151 -112t-185.5 -63t-209 -18.5q-111 0 -208 18.5t-185.5 63t-151.5 112t-100 171.5t-37 235v869h544v-844q0 -133 138 -133q137 0 137 133v844zM1147 1516h-379l193 362h409zM666 1516h-379l162 362h409z" />
    <glyph glyph-name="uhungarumlaut" unicode="&#x171;" horiz-adv-x="1222" 
d="M659 983h496v-983h-434v86q-130 -121 -293 -121q-78 0 -141.5 22t-105 58.5t-70 84.5t-40.5 97.5t-12 100.5v655h496v-559q0 -47 51 -47q30 0 53 18v588zM997 1065h-379l193 362h410zM516 1065h-379l162 362h410z" />
    <glyph glyph-name="Uogonek" unicode="&#x172;" horiz-adv-x="1507" 
d="M1176 -436q-88 -49 -207 -49q-141 0 -216 62.5t-75 160.5q0 111 96 227h-20q-111 0 -208 18.5t-185.5 63t-151.5 112t-100 171.5t-37 235v869h544v-844q0 -133 138 -133q137 0 137 133v844h545v-869q0 -313 -201 -463q-87 -64 -126.5 -123.5t-39.5 -99.5q0 -24 15 -37.5
t40 -13.5q28 0 52 12v-276z" />
    <glyph glyph-name="uogonek" unicode="&#x173;" horiz-adv-x="1222" 
d="M1155 983v-983q-46 -36 -74 -76.5t-28 -68.5q0 -41 45 -41q19 0 37 6v-277q-92 -28 -207 -28q-134 0 -203.5 61.5t-67.5 153.5q-1 69 48.5 142.5t121.5 127.5h-106v86q-130 -121 -293 -121q-78 0 -141.5 22t-105 58.5t-70 84.5t-40.5 97.5t-12 100.5v655h496v-559
q0 -47 51 -47q30 0 53 18v588h496z" />
    <glyph glyph-name="Wcircumflex" unicode="&#x174;" horiz-adv-x="2322" 
d="M1735 1434h587l-428 -1434h-583l-150 596l-147 -596h-586l-428 1434h586l174 -752l184 752h434l183 -752zM938 1894h434l275 -368h-392l-100 121l-100 -121h-391z" />
    <glyph glyph-name="wcircumflex" unicode="&#x175;" horiz-adv-x="1748" 
d="M1247 983h494l-301 -983h-461l-105 416l-104 -416h-461l-301 983h494l92 -504l119 504h323l119 -504zM655 1444h435l274 -369h-391l-101 121l-100 -121h-391z" />
    <glyph glyph-name="Ycircumflex" unicode="&#x176;" horiz-adv-x="1585" 
d="M1063 0h-541v489l-534 945h614l191 -504l192 504h614l-536 -945v-489zM565 1894h434l275 -368h-391l-101 121l-100 -121h-391z" />
    <glyph glyph-name="ycircumflex" unicode="&#x177;" horiz-adv-x="1282" 
d="M670 487l110 496h500l-346 -1008q-44 -127 -109.5 -219t-143.5 -142.5t-158 -73.5t-169 -23q-121 0 -243 39v397q87 -25 153 -25q108 0 166 80l-442 975h508zM410 1444h434l274 -369h-391l-100 121l-101 -121h-391z" />
    <glyph glyph-name="Ydieresis" unicode="&#x178;" horiz-adv-x="1585" 
d="M1063 0h-541v489l-534 945h614l191 -504l192 504h614l-536 -945v-489zM1241 1712q0 -100 -60 -157.5t-155 -57.5t-155 57.5t-60 157.5t60 157.5t155 57.5t155 -57.5t60 -157.5zM754 1712q0 -100 -60 -157.5t-155 -57.5t-155 57.5t-60 157.5t60 157.5t155 57.5t155 -57.5
t60 -157.5z" />
    <glyph glyph-name="Zacute" unicode="&#x179;" horiz-adv-x="1353" 
d="M1300 0h-1247v336l463 627h-432v471h1188v-336l-463 -627h491v-471zM842 1526h-412l215 360h465z" />
    <glyph glyph-name="zacute" unicode="&#x17a;" horiz-adv-x="1048" 
d="M80 983h889v-293l-291 -301h319v-389h-950v293l291 301h-258v389zM707 1075h-412l215 361h465z" />
    <glyph glyph-name="Zdotaccent" unicode="&#x17b;" horiz-adv-x="1353" 
d="M1300 0h-1247v336l463 627h-432v471h1188v-336l-463 -627h491v-471zM463 1720q0 106 63.5 160.5t159.5 54.5q97 0 160 -54t63 -161q0 -108 -62.5 -161.5t-160.5 -53.5q-97 0 -160 53.5t-63 161.5z" />
    <glyph glyph-name="zdotaccent" unicode="&#x17c;" horiz-adv-x="1048" 
d="M80 983h889v-293l-291 -301h319v-389h-950v293l291 301h-258v389zM328 1270q0 106 63.5 160.5t159.5 54.5q97 0 160 -54t63 -161q0 -108 -62.5 -161.5t-160.5 -53.5q-97 0 -160 53.5t-63 161.5z" />
    <glyph glyph-name="Zcaron" unicode="&#x17d;" horiz-adv-x="1353" 
d="M1300 0h-1247v336l463 627h-432v471h1188v-336l-463 -627h491v-471zM1163 1894l-274 -368h-434l-275 368h391l101 -120l100 120h391z" />
    <glyph glyph-name="zcaron" unicode="&#x17e;" horiz-adv-x="1048" 
d="M80 983h889v-293l-291 -301h319v-389h-950v293l291 301h-258v389zM1028 1444l-274 -369h-435l-274 369h391l101 -121l100 121h391z" />
    <glyph glyph-name="Scommaaccent" unicode="&#x218;" horiz-adv-x="1316" 
d="M57 1006q0 114 45 203t124.5 145t183.5 85t227 29q148 0 297.5 -32t263.5 -90v-459q-115 66 -246 104t-245 37q-86 0 -86 -41q0 -21 28 -38t74.5 -28t105.5 -28t120.5 -36t120.5 -53.5t105.5 -79t74.5 -115t28 -158.5q0 -112 -32.5 -198t-88 -140t-136.5 -87.5t-170 -47
t-198 -13.5q-334 0 -581 137v486q134 -85 271 -129.5t249 -44.5q76 0 100.5 12t24.5 37q0 20 -36.5 36t-94.5 31t-128.5 34.5t-141 54t-128.5 82t-94.5 126.5t-36.5 179zM737 -676h-375l89 574h450z" />
    <glyph glyph-name="scommaaccent" unicode="&#x219;" horiz-adv-x="1013" 
d="M47 700q0 71 25.5 126.5t68 91t102.5 58.5t124 32.5t137 9.5q216 0 399 -84v-324q-64 34 -142.5 56t-142.5 22q-51 0 -51 -24q0 -16 23 -28.5t60 -23t81.5 -24t89 -36t81.5 -54t60 -84t23 -119.5q0 -76 -28 -134.5t-74 -95t-112 -59.5t-135 -32t-151 -9q-262 0 -426 84
v371q78 -58 172.5 -85.5t165.5 -27.5q72 0 72 27q0 15 -23.5 27t-60.5 23t-82 25t-90 37.5t-82 54.5t-60.5 82.5t-23.5 116.5zM586 -676h-375l88 574h451z" />
    <glyph glyph-name="uni021A" unicode="&#x21a;" horiz-adv-x="1327" 
d="M23 1434h1282v-471h-369v-963h-545v963h-368v471zM737 -676h-375l89 574h450z" />
    <glyph glyph-name="uni021B" unicode="&#x21b;" horiz-adv-x="901" 
d="M164 1237l498 115v-369h182v-389h-182v-154q0 -71 106 -71q48 0 86 10v-379q-151 -37 -287 -37q-403 0 -403 406v225h-123v389h123v254zM604 -676h-375l88 574h451z" />
    <glyph glyph-name="circumflex" unicode="&#x2c6;" horiz-adv-x="901" 
d="M233 1894h435l274 -368h-391l-100 121l-101 -121h-391z" />
    <glyph glyph-name="caron" unicode="&#x2c7;" horiz-adv-x="901" 
d="M942 1894l-274 -368h-435l-274 368h391l101 -120l100 120h391z" />
    <glyph glyph-name="breve" unicode="&#x2d8;" horiz-adv-x="966" 
d="M877 1634q-171 -112 -396 -112q-224 0 -395 112v320q165 -101 395 -101q231 0 396 101v-320z" />
    <glyph glyph-name="dotaccent" unicode="&#x2d9;" horiz-adv-x="481" 
d="M20 1720q0 106 64 160.5t160 54.5q97 0 160 -54t63 -161q0 -108 -62.5 -161.5t-160.5 -53.5q-97 0 -160.5 53.5t-63.5 161.5z" />
    <glyph glyph-name="ring" unicode="&#x2da;" horiz-adv-x="593" 
d="M604 1755q0 -133 -87.5 -205.5t-221.5 -72.5q-130 0 -217.5 73t-87.5 205q0 127 88 201t217 74q133 0 221 -73.5t88 -201.5zM229 1753q0 -30 17 -48.5t51 -18.5q35 0 51.5 18.5t16.5 48.5t-16.5 49t-51.5 19q-34 0 -51 -19t-17 -49z" />
    <glyph glyph-name="ogonek" unicode="&#x2db;" horiz-adv-x="495" 
d="M172 0h328q-47 -36 -75 -76.5t-28 -68.5q0 -41 45 -41q19 0 37 6v-277q-92 -28 -207 -28q-134 0 -203 61.5t-67 153.5q-1 69 48.5 142.5t121.5 127.5z" />
    <glyph glyph-name="tilde" unicode="&#x2dc;" horiz-adv-x="958" 
d="M913 1903q24 -111 2.5 -201t-91.5 -146.5t-167 -56.5q-59 0 -115 21t-96.5 42t-60.5 21q-27 0 -35.5 -22t-3.5 -50h-301q-24 111 -2.5 201t91.5 146.5t167 56.5q59 0 115 -21t96.5 -42t60.5 -21q27 0 35.5 22t3.5 50h301z" />
    <glyph glyph-name="hungarumlaut" unicode="&#x2dd;" horiz-adv-x="1103" 
d="M881 1516h-379l192 362h410zM399 1516h-379l162 362h410z" />
    <glyph glyph-name="uni0326" unicode="&#x326;" horiz-adv-x="641" 
d="M436 -676h-375l89 574h450z" />
    <glyph glyph-name="uni0401" unicode="&#x401;" horiz-adv-x="1282" 
d="M1100 1712q0 -100 -60 -157.5t-155 -57.5t-155 57.5t-60 157.5t60 157.5t155 57.5t155 -57.5t60 -157.5zM612 1712q0 -100 -60 -157.5t-155 -57.5t-155 57.5t-60 157.5t60 157.5t155 57.5t155 -57.5t60 -157.5zM86 1434h1126v-410h-581v-123h499v-364h-499v-123h594v-414
h-1139v1434z" />
    <glyph glyph-name="uni0410" unicode="&#x410;" horiz-adv-x="1589" 
d="M539 0h-551l514 1434h585l515 -1434h-551l-47 164h-418zM752 754l-64 -222h211l-61 222q-33 124 -43 215q-10 -91 -43 -215z" />
    <glyph glyph-name="uni0411" unicode="&#x411;" horiz-adv-x="1400" 
d="M631 913h188q62 0 116 -5t111.5 -19t104.5 -35.5t89.5 -57t71 -82t45.5 -112t17 -145.5q0 -110 -32.5 -193.5t-84.5 -132.5t-127 -79.5t-149 -41t-162 -10.5h-733v1434h1167v-410h-622v-111zM631 356h86q61 0 93 22.5t32 78.5q0 55 -32 77.5t-93 22.5h-86v-201z" />
    <glyph glyph-name="uni0412" unicode="&#x412;" horiz-adv-x="1449" 
d="M86 1434h772q512 0 512 -363q0 -112 -44 -187t-155 -120q256 -78 256 -348q0 -95 -30 -168t-82 -119.5t-128 -76t-159.5 -41t-185.5 -11.5h-756v1434zM883 481q0 39 -23 65.5t-72 26.5h-157v-184h157q49 0 72 26.5t23 65.5zM856 963q0 35 -22 60.5t-68 25.5h-135v-172
h135q46 0 68 25.5t22 60.5z" />
    <glyph glyph-name="uni0413" unicode="&#x413;" horiz-adv-x="1212" 
d="M631 0h-545v1434h1106v-471h-561v-963z" />
    <glyph glyph-name="uni0414" unicode="&#x414;" horiz-adv-x="1767" 
d="M522 -264h-491v715h176q63 120 104.5 244t61 252t26.5 237t7 250h1138v-983h189v-715h-492v264h-719v-264zM879 983q-15 -180 -40 -300t-79 -232h252v532h-133z" />
    <glyph glyph-name="uni0415" unicode="&#x415;" horiz-adv-x="1282" 
d="M86 1434h1126v-410h-581v-123h499v-364h-499v-123h594v-414h-1139v1434z" />
    <glyph glyph-name="uni0416" unicode="&#x416;" horiz-adv-x="2191" 
d="M578 0h-598l362 715l-362 719h598l200 -482h45v482h545v-482h45l201 482h598l-363 -719l363 -715h-598l-215 481h-31v-481h-545v481h-30z" />
    <glyph glyph-name="uni0417" unicode="&#x417;" horiz-adv-x="1298" 
d="M1262 395q0 -99 -36.5 -175t-96 -123.5t-143.5 -78t-171.5 -42t-187.5 -11.5q-275 0 -570 96v467q113 -55 245 -82.5t245 -27.5q170 0 170 71q0 25 -18.5 39.5t-51.5 14.5h-344v356h293q66 0 66 47q0 66 -134 66q-99 0 -232.5 -32t-213.5 -73v467q242 94 498 94
q302 0 463 -102.5t161 -308.5q0 -103 -53.5 -185t-163.5 -120q140 -52 207.5 -137.5t67.5 -219.5z" />
    <glyph glyph-name="uni0418" unicode="&#x418;" horiz-adv-x="1560" 
d="M1475 0h-545v307q0 150 14 250l-426 -557h-432v1434h545v-308q0 -142 -15 -249l426 557h433v-1434z" />
    <glyph glyph-name="uni0419" unicode="&#x419;" horiz-adv-x="1560" 
d="M930 0h545v1434h-433l-426 -557q15 107 15 249v308h-545v-1434h432l426 557q-14 -100 -14 -250v-307zM1194 1634q-171 -112 -395 -112q-225 0 -396 112v320q165 -101 396 -101q230 0 395 101v-320z" />
    <glyph glyph-name="uni041A" unicode="&#x41a;" horiz-adv-x="1523" 
d="M631 0h-545v1434h545v-482h74l253 482h598l-423 -719l423 -715h-598l-270 481h-57v-481z" />
    <glyph glyph-name="uni041B" unicode="&#x41b;" horiz-adv-x="1560" 
d="M319 1434h1156v-1434h-545v963h-115q-7 -110 -17.5 -201.5t-31 -197t-48.5 -188t-72.5 -162t-100.5 -131.5t-134.5 -84t-172.5 -32q-146 0 -246 33v471q110 -35 178 27q37 33 63 96.5t39.5 133.5t22 169t11 178t6 187t7.5 172z" />
    <glyph glyph-name="uni041C" unicode="&#x41c;" horiz-adv-x="1851" 
d="M1298 1434h467v-1434h-524v571l-178 -280h-275l-178 284v-575h-524v1434h467l373 -592z" />
    <glyph glyph-name="uni041D" unicode="&#x41d;" horiz-adv-x="1540" 
d="M909 1434h545v-1434h-545v481h-278v-481h-545v1434h545v-482h278v482z" />
    <glyph glyph-name="uni041E" unicode="&#x41e;" horiz-adv-x="1640" 
d="M37 717q0 160 50 295.5t145.5 238t246 160t340.5 57.5t341 -57.5t247 -160t146.5 -238t50.5 -295.5t-50.5 -296t-146.5 -238t-247 -160t-341 -58t-340.5 58t-246 160t-145.5 238t-50 296zM1042 717q0 126 -59.5 193t-163.5 67q-102 0 -161.5 -67t-59.5 -193t59.5 -193
t161.5 -67q104 0 163.5 67t59.5 193z" />
    <glyph glyph-name="uni041F" unicode="&#x41f;" horiz-adv-x="1558" 
d="M629 0h-543v1434h1387v-1434h-545v963h-299v-963z" />
    <glyph glyph-name="uni0420" unicode="&#x420;" horiz-adv-x="1443" 
d="M86 1434h672q657 0 657 -560q0 -559 -657 -559h-127v-315h-545v1434zM883 874q0 121 -146 121h-106v-241h106q146 0 146 120z" />
    <glyph glyph-name="uni0421" unicode="&#x421;" horiz-adv-x="1327" 
d="M41 707q-1 159 43.5 288.5t120 216t178.5 145.5t215.5 85t235.5 26q232 0 426 -84v-471q-62 34 -151.5 59t-178.5 25q-67 0 -124 -15.5t-104 -48.5t-73.5 -90.5t-26.5 -135.5q0 -67 26 -118.5t71 -82.5t100.5 -46.5t118.5 -15.5q112 0 207 22.5t145 61.5v-479
q-190 -84 -420 -84q-129 0 -245 26t-220 83.5t-180 142.5t-120 210.5t-44 279.5z" />
    <glyph glyph-name="uni0422" unicode="&#x422;" horiz-adv-x="1327" 
d="M23 1434h1282v-471h-369v-963h-545v963h-368v471z" />
    <glyph glyph-name="uni0423" unicode="&#x423;" horiz-adv-x="1513" 
d="M1008 330q-91 -194 -218.5 -278.5t-328.5 -84.5q-124 0 -285 45v432q82 -28 170 -28q116 0 150 69l20 43l-532 906h573l219 -494l174 494h572z" />
    <glyph glyph-name="uni0424" unicode="&#x424;" horiz-adv-x="1847" 
d="M1165 -106h-483v188q-321 28 -499.5 194t-178.5 441t178.5 441t499.5 194v188h483v-188q321 -28 499.5 -194t178.5 -441t-178.5 -441t-499.5 -194v-188zM537 717q0 -185 155 -211v422q-155 -26 -155 -211zM1155 928v-422q156 26 156 211t-156 211z" />
    <glyph glyph-name="uni0425" unicode="&#x425;" horiz-adv-x="1560" 
d="M584 0h-635l493 733l-473 701h635l176 -332l174 332h635l-471 -701l492 -733h-635l-195 342z" />
    <glyph glyph-name="uni0426" unicode="&#x426;" horiz-adv-x="1671" 
d="M1626 -264h-491v264h-1049v1434h545v-963h282v963h545v-963h168v-735z" />
    <glyph glyph-name="uni0427" unicode="&#x427;" horiz-adv-x="1460" 
d="M1374 0h-545v428q-112 -39 -260 -39q-234 0 -376 123.5t-142 359.5v562h545v-478q0 -100 125 -100q56 0 108 23v555h545v-1434z" />
    <glyph glyph-name="uni0428" unicode="&#x428;" horiz-adv-x="2109" 
d="M2023 0h-1937v1434h545v-963h151v963h545v-963h152v963h544v-1434z" />
    <glyph glyph-name="uni0429" unicode="&#x429;" horiz-adv-x="2236" 
d="M2191 -264h-491v264h-1614v1434h545v-963h151v963h545v-963h152v963h544v-963h168v-735z" />
    <glyph glyph-name="uni042A" unicode="&#x42a;" horiz-adv-x="1638" 
d="M997 0h-671v963h-299v471h843v-377h127q99 0 184 -14t167 -51t139 -95t92 -152.5t35 -216.5t-35 -216.5t-92 -152.5t-139 -94.5t-167 -50.5t-184 -14zM870 618v-180h107q46 0 75 24t29 66t-29 66t-75 24h-107z" />
    <glyph glyph-name="uni042B" unicode="&#x42b;" horiz-adv-x="2084" 
d="M758 0h-672v1434h545v-377h127q99 0 184 -14t166.5 -51t138.5 -95t92 -152.5t35 -216.5t-35 -216.5t-92 -152.5t-138.5 -94.5t-166.5 -50.5t-184 -14zM631 618v-180h106q46 0 75.5 24t29.5 66t-29.5 66t-75.5 24h-106zM1999 0h-545v1434h545v-1434z" />
    <glyph glyph-name="uni042C" unicode="&#x42c;" horiz-adv-x="1398" 
d="M758 0h-672v1434h545v-377h127q99 0 184 -14t166.5 -51t138.5 -95t92 -152.5t35 -216.5t-35 -216.5t-92 -152.5t-138.5 -94.5t-166.5 -50.5t-184 -14zM631 618v-180h106q46 0 75.5 24t29.5 66t-29.5 66t-75.5 24h-106z" />
    <glyph glyph-name="uni042D" unicode="&#x42d;" horiz-adv-x="1320" 
d="M63 1384q194 84 426 84q123 0 235.5 -26t215.5 -85t178.5 -145.5t120 -216t43.5 -288.5q0 -154 -44 -279.5t-120 -210.5t-180 -142.5t-220 -83.5t-245 -26q-220 0 -410 84v438q53 -39 152.5 -61.5t210.5 -22.5q228 0 309 121h-471v389h467q-83 125 -317 125
q-94 0 -190 -25t-161 -59v430z" />
    <glyph glyph-name="uni042E" unicode="&#x42e;" horiz-adv-x="2301" 
d="M2265 717q0 -160 -50 -296t-146 -238t-247 -160t-341 -58q-291 0 -479 140t-252 376h-119v-481h-545v1434h545v-482h119q64 236 252 376t479 140q153 0 281 -37.5t220 -105.5t156.5 -161.5t95.5 -206.5t31 -240zM1260 717q0 -126 59.5 -193t161.5 -67q104 0 163.5 67
t59.5 193t-59.5 193t-163.5 67q-102 0 -161.5 -67t-59.5 -193z" />
    <glyph glyph-name="uni042F" unicode="&#x42f;" horiz-adv-x="1511" 
d="M584 0h-613l353 498q-240 133 -240 413q0 116 35.5 207.5t94.5 149.5t141.5 96.5t170 54t187.5 15.5h712v-1434h-544v389h-35zM629 893q0 -47 32.5 -79t94.5 -32h125v222h-125q-62 0 -94.5 -32t-32.5 -79z" />
    <glyph glyph-name="uni0430" unicode="&#x430;" horiz-adv-x="1210" 
d="M1102 334q0 -47 49 -47q17 0 41 4v-281q-41 -19 -115 -31t-135 -12q-182 0 -254 101q-127 -103 -317 -103q-94 0 -169.5 30.5t-124 98t-48.5 164.5q0 72 25.5 128.5t66.5 91.5t99.5 57.5t118 31t128.5 8.5q103 0 180 -18v16q0 52 -44.5 74.5t-143.5 22.5q-169 0 -361 -66
v348q89 26 204.5 46t213.5 20q114 0 199 -12.5t161 -45t123.5 -87t75 -141.5t27.5 -206v-192zM590 371q-39 0 -67.5 -17.5t-28.5 -56.5q0 -33 22 -48.5t55 -15.5q38 0 76 23v109q-24 6 -57 6z" />
    <glyph glyph-name="uni0431" unicode="&#x431;" horiz-adv-x="1187" 
d="M1169 416q0 -114 -45 -202.5t-121.5 -141.5t-170.5 -80t-199 -27q-93 0 -173 16t-159 59.5t-134.5 112t-89.5 180.5t-34 259q0 136 21.5 243.5t63.5 185t94 132t122 98.5q95 60 214 93t208 41t174.5 27t126.5 56v-434q-50 -42 -121.5 -59t-153.5 -25.5t-128 -25.5
q-58 -18 -101.5 -68t-46.5 -111q113 101 275 101q75 0 141.5 -26t120 -76.5t85 -135t31.5 -192.5zM514 446q0 -98 92 -98t92 98q0 99 -92 99t-92 -99z" />
    <glyph glyph-name="uni0432" unicode="&#x432;" horiz-adv-x="1155" 
d="M741 0h-673v983h647q94 0 165 -19t110.5 -46.5t64 -65.5t32 -69t7.5 -64q0 -162 -142 -227q185 -70 185 -238q0 -33 -9 -64.5t-36 -67t-69 -61.5t-114.5 -43.5t-167.5 -17.5zM518 377v-111h86q36 0 53 16t17 40t-17 39.5t-53 15.5h-86zM518 713v-111h76q70 0 70 57
q0 23 -17 38.5t-53 15.5h-76z" />
    <glyph glyph-name="uni0433" unicode="&#x433;" horiz-adv-x="897" 
d="M563 0h-495v983h802v-389h-307v-594z" />
    <glyph glyph-name="uni0434" unicode="&#x434;" horiz-adv-x="1388" 
d="M469 -248h-440v586h129q76 138 103.5 296t25.5 349h934v-645h133v-586h-441v248h-444v-248zM684 641q-3 -148 -76 -303h172v303h-96z" />
    <glyph glyph-name="uni0435" unicode="&#x435;" horiz-adv-x="1118" 
d="M33 502q0 111 35 201t90 147.5t127.5 96.5t143.5 55t142 16q96 0 175 -20t135 -55.5t97.5 -83.5t64.5 -103t34 -117t9 -122t-15 -120h-575q22 -48 92.5 -74t159.5 -26q161 0 284 33v-316q-146 -49 -352 -49q-98 0 -186.5 16t-174 55.5t-148 99t-100.5 153.5t-38 213z
M694 590q6 50 -18 84.5t-76 34.5q-55 0 -84 -35t-29 -84h207z" />
    <glyph glyph-name="uni0436" unicode="&#x436;" horiz-adv-x="1843" 
d="M1829 0h-512l-115 291h-45v-291h-471v291h-45l-115 -291h-512l213 481l-211 502h512l113 -303h45v303h471v-303h45l113 303h512l-211 -502z" />
    <glyph glyph-name="uni0437" unicode="&#x437;" horiz-adv-x="1032" 
d="M997 272q0 -307 -536 -307q-232 0 -416 74v315q67 -30 163 -49.5t179 -19.5q96 0 96 49q0 39 -63 39h-219v245l190 3q34 0 53 6.5t19 27.5q0 43 -103 43q-64 0 -150 -18t-140 -43v315q65 27 190 47t246 19q471 -5 471 -287q0 -84 -43.5 -144.5t-116.5 -82.5
q91 -31 135.5 -92t44.5 -140z" />
    <glyph glyph-name="uni0438" unicode="&#x438;" horiz-adv-x="1257" 
d="M430 0h-362v983h450v-346l309 346h363v-983h-451v346z" />
    <glyph glyph-name="uni0439" unicode="&#x439;" horiz-adv-x="1257" 
d="M983 1159q-67 -42 -163.5 -65t-190.5 -23t-191 23t-164 65v299q65 -37 161.5 -56.5t193.5 -19.5t193 19.5t161 56.5v-299zM430 0h-362v983h450v-346l309 346h363v-983h-451v346z" />
    <glyph glyph-name="uni043A" unicode="&#x43a;" horiz-adv-x="1277" 
d="M563 0h-495v983h495v-293h53l144 293h532l-291 -487l293 -496h-532l-146 301h-53v-301z" />
    <glyph glyph-name="uni043B" unicode="&#x43b;" horiz-adv-x="1292" 
d="M657 594q-39 -338 -134 -481.5t-302 -143.5q-106 0 -215 31v403q63 -15 105 0q20 7 36.5 20.5t28.5 35.5t20.5 45t14.5 59t9.5 66.5t6.5 78t4.5 83.5t4 93.5t4.5 98.5h985v-983h-496v594h-72z" />
    <glyph glyph-name="uni043C" unicode="&#x43c;" horiz-adv-x="1396" 
d="M498 0h-430v983h376l254 -393l254 393h377v-983h-430v352l-127 -194h-147l-127 194v-352z" />
    <glyph glyph-name="uni043D" unicode="&#x43d;" horiz-adv-x="1243" 
d="M563 0h-495v983h495v-307h117v307h496v-983h-496v307h-117v-307z" />
    <glyph glyph-name="uni043E" unicode="&#x43e;" horiz-adv-x="1218" 
d="M33 492q0 131 45 233t124 165t182 95.5t224 32.5t224.5 -32.5t183 -95.5t125 -165.5t45.5 -232.5t-45.5 -232.5t-125 -166t-183 -96t-224.5 -32.5t-224 32.5t-182 96t-124 165.5t-45 233zM715 492q0 63 -24.5 97t-82.5 34q-57 0 -80.5 -34t-23.5 -97q0 -132 104 -132
q107 0 107 132z" />
    <glyph glyph-name="uni043F" unicode="&#x43f;" horiz-adv-x="1230" 
d="M563 0h-495v983h1095v-983h-495v594h-105v-594z" />
    <glyph glyph-name="uni0440" unicode="&#x440;" horiz-adv-x="1284" 
d="M504 874q61 65 140.5 104.5t168.5 39.5q110 0 195 -42t136 -115.5t77 -166.5t26 -202t-26 -202t-77 -167t-136 -116t-195 -42q-154 0 -250 80v-496h-495v1434h436v-109zM735 492q0 56 -25 94.5t-75 38.5q-43 0 -72 -29v-209q9 -11 29 -20t43 -9q50 0 75 38.5t25 95.5z
" />
    <glyph glyph-name="uni0441" unicode="&#x441;" horiz-adv-x="997" 
d="M33 459q0 118 33.5 214t89.5 160t133.5 107.5t162 62.5t177.5 19q145 0 303 -51v-400q-103 45 -207 45q-79 0 -129.5 -29.5t-50.5 -94.5q0 -121 172 -121q118 0 225 39v-396q-164 -49 -344 -49q-90 0 -171 17t-153.5 55t-125.5 94t-84 140t-31 188z" />
    <glyph glyph-name="uni0442" unicode="&#x442;" horiz-adv-x="1007" 
d="M752 0h-496v594h-227v389h950v-389h-227v-594z" />
    <glyph glyph-name="uni0443" unicode="&#x443;" horiz-adv-x="1282" 
d="M670 487l110 496h500l-346 -1008q-44 -127 -109.5 -219t-143.5 -142.5t-158 -73.5t-169 -23q-121 0 -243 39v397q87 -25 153 -25q108 0 166 80l-442 975h508z" />
    <glyph glyph-name="uni0444" unicode="&#x444;" horiz-adv-x="1695" 
d="M1075 -451h-454v416q-265 14 -427.5 154.5t-162.5 372.5t162.5 372t427.5 154v416h454v-416q265 -14 427.5 -154t162.5 -372t-162.5 -372.5t-427.5 -154.5v-416zM502 492q0 -126 129 -146v291q-67 -10 -98 -45.5t-31 -99.5zM1065 637v-291q62 11 95.5 48t33.5 98
q0 123 -129 145z" />
    <glyph glyph-name="uni0445" unicode="&#x445;" horiz-adv-x="1200" 
d="M713 983h499l-305 -494l316 -489h-518l-105 203l-104 -203h-519l316 489l-305 494h499l113 -219z" />
    <glyph glyph-name="uni0446" unicode="&#x446;" horiz-adv-x="1335" 
d="M1296 -248h-440v248h-788v983h495v-594h105v594h495v-594h133v-637z" />
    <glyph glyph-name="uni0447" unicode="&#x447;" horiz-adv-x="1206" 
d="M1139 0h-496v250q-91 -29 -219 -29q-52 0 -103.5 12t-102 39.5t-89 67.5t-62.5 102t-24 138v403h496v-330q0 -43 53 -43q28 0 51 13v360h496v-983z" />
    <glyph glyph-name="uni0448" unicode="&#x448;" horiz-adv-x="1826" 
d="M1759 0h-1691v983h495v-594h103v594h495v-594h103v594h495v-983z" />
    <glyph glyph-name="uni0449" unicode="&#x449;" horiz-adv-x="1931" 
d="M1892 -248h-440v248h-1384v983h495v-594h103v594h495v-594h103v594h495v-594h133v-637z" />
    <glyph glyph-name="uni044A" unicode="&#x44a;" horiz-adv-x="1396" 
d="M750 758h194q208 0 317 -104.5t109 -272.5t-109 -274.5t-317 -106.5h-690v618h-227v365h723v-225zM750 303h55q42 0 66 23t24 63t-24 63t-66 23h-55v-172z" />
    <glyph glyph-name="uni044B" unicode="&#x44b;" horiz-adv-x="1822" 
d="M758 0h-690v983h495v-225h195q208 0 317 -104.5t109 -272.5t-109 -274.5t-317 -106.5zM563 475v-172h55q43 0 67 23t24 63t-24 63t-67 23h-55zM1755 0h-495v983h495v-983z" />
    <glyph glyph-name="uni044C" unicode="&#x44c;" horiz-adv-x="1208" 
d="M758 0h-690v983h495v-225h195q208 0 317 -104.5t109 -272.5t-109 -274.5t-317 -106.5zM563 475v-172h55q43 0 67 23t24 63t-24 63t-67 23h-55z" />
    <glyph glyph-name="uni044D" unicode="&#x44d;" horiz-adv-x="1073" 
d="M1040 467q0 -102 -34 -187t-91 -142t-132.5 -97t-156 -58t-163.5 -18q-140 0 -227.5 18.5t-184.5 67.5v328q55 -40 131 -61t150 -21q192 0 235 74h-356v241h356q-42 74 -223 74q-69 0 -146.5 -21.5t-136.5 -60.5v330q96 45 186.5 64.5t205.5 19.5q124 0 229.5 -34.5
t186 -100.5t126 -173t45.5 -243z" />
    <glyph glyph-name="uni044E" unicode="&#x44e;" horiz-adv-x="1759" 
d="M1726 492q0 -105 -29.5 -192t-82 -148.5t-125.5 -104t-158.5 -62.5t-181.5 -20q-118 0 -220.5 36.5t-182 115t-115.5 190.5h-72v-307h-491v983h491v-307h72q36 112 115.5 190.5t182 115t220.5 36.5q96 0 181.5 -20t158.5 -62.5t125.5 -103.5t82 -148t29.5 -192zM1044 492
q0 -50 24.5 -81.5t80.5 -31.5q106 0 106 113q0 112 -106 112q-105 0 -105 -112z" />
    <glyph glyph-name="uni044F" unicode="&#x44f;" horiz-adv-x="1210" 
d="M508 0h-500l213 311q-89 50 -131.5 130t-42.5 171q0 54 14.5 105t48.5 100t84 85.5t127.5 58.5t172.5 22h649v-983h-451v250h-28zM518 594q0 -37 22 -58.5t66 -21.5h86v160h-86q-44 0 -66 -21.5t-22 -58.5z" />
    <glyph glyph-name="uni0451" unicode="&#x451;" horiz-adv-x="1118" 
d="M1022 1262q0 -100 -60 -157.5t-155 -57.5t-155 57.5t-60 157.5t60 157.5t155 57.5t155 -57.5t60 -157.5zM535 1262q0 -100 -60.5 -157.5t-155.5 -57.5t-155 57.5t-60 157.5t60 157.5t155 57.5t155.5 -57.5t60.5 -157.5zM33 502q0 111 35 201t90 147.5t127.5 96.5
t143.5 55t142 16q96 0 175 -20t135 -55.5t97.5 -83.5t64.5 -103t34 -117t9 -122t-15 -120h-575q22 -48 92.5 -74t159.5 -26q161 0 284 33v-316q-146 -49 -352 -49q-98 0 -186.5 16t-174 55.5t-148 99t-100.5 153.5t-38 213zM694 590q6 50 -18 84.5t-76 34.5q-55 0 -84 -35
t-29 -84h207z" />
    <glyph glyph-name="Wgrave" unicode="&#x1e80;" horiz-adv-x="2322" 
d="M1735 1434h587l-428 -1434h-583l-150 596l-147 -596h-586l-428 1434h586l174 -752l184 752h434l183 -752zM1407 1526h-412l-268 360h465z" />
    <glyph glyph-name="wgrave" unicode="&#x1e81;" horiz-adv-x="1748" 
d="M1247 983h494l-301 -983h-461l-105 416l-104 -416h-461l-301 983h494l92 -504l119 504h323l119 -504zM1124 1075h-411l-269 361h465z" />
    <glyph glyph-name="Wacute" unicode="&#x1e82;" horiz-adv-x="2322" 
d="M1735 1434h587l-428 -1434h-583l-150 596l-147 -596h-586l-428 1434h586l174 -752l184 752h434l183 -752zM1315 1526h-412l215 360h465z" />
    <glyph glyph-name="wacute" unicode="&#x1e83;" horiz-adv-x="1748" 
d="M1247 983h494l-301 -983h-461l-105 416l-104 -416h-461l-301 983h494l92 -504l119 504h323l119 -504zM1032 1075h-411l215 361h464z" />
    <glyph glyph-name="Wdieresis" unicode="&#x1e84;" horiz-adv-x="2322" 
d="M1735 1434h587l-428 -1434h-583l-150 596l-147 -596h-586l-428 1434h586l174 -752l184 752h434l183 -752zM1614 1712q0 -100 -60 -157.5t-155 -57.5t-155 57.5t-60 157.5t60 157.5t155 57.5t155 -57.5t60 -157.5zM1126 1712q0 -100 -60 -157.5t-155 -57.5t-155 57.5
t-60 157.5t60 157.5t155 57.5t155 -57.5t60 -157.5z" />
    <glyph glyph-name="wdieresis" unicode="&#x1e85;" horiz-adv-x="1748" 
d="M1247 983h494l-301 -983h-461l-105 416l-104 -416h-461l-301 983h494l92 -504l119 504h323l119 -504zM1331 1262q0 -100 -60 -157.5t-155 -57.5t-155 57.5t-60 157.5t60 157.5t155 57.5t155 -57.5t60 -157.5zM844 1262q0 -100 -60 -157.5t-155 -57.5t-155 57.5t-60 157.5
t60 157.5t155 57.5t155 -57.5t60 -157.5z" />
    <glyph glyph-name="Ygrave" unicode="&#x1ef2;" horiz-adv-x="1585" 
d="M1063 0h-541v489l-534 945h614l191 -504l192 504h614l-536 -945v-489zM1034 1526h-411l-269 360h465z" />
    <glyph glyph-name="ygrave" unicode="&#x1ef3;" horiz-adv-x="1282" 
d="M670 487l110 496h500l-346 -1008q-44 -127 -109.5 -219t-143.5 -142.5t-158 -73.5t-169 -23q-121 0 -243 39v397q87 -25 153 -25q108 0 166 80l-442 975h508zM879 1075h-412l-268 361h465z" />
    <glyph glyph-name="endash" unicode="&#x2013;" horiz-adv-x="1198" 
d="M1118 307h-1038v369h1038v-369z" />
    <glyph glyph-name="emdash" unicode="&#x2014;" horiz-adv-x="1628" 
d="M1548 307h-1468v369h1468v-369z" />
    <glyph glyph-name="quoteleft" unicode="&#x2018;" horiz-adv-x="622" 
d="M461 778h-451l246 656h354z" />
    <glyph glyph-name="quoteright" unicode="&#x2019;" horiz-adv-x="616" 
d="M383 778h-354l149 656h451z" />
    <glyph glyph-name="quotesinglbase" unicode="&#x201a;" horiz-adv-x="591" 
d="M317 -293h-354l150 655h450z" />
    <glyph glyph-name="quotedblleft" unicode="&#x201c;" horiz-adv-x="1134" 
d="M973 778h-451l246 656h354zM461 778h-451l246 656h354z" />
    <glyph glyph-name="quotedblright" unicode="&#x201d;" horiz-adv-x="1128" 
d="M895 778h-354l149 656h451zM383 778h-354l149 656h451z" />
    <glyph glyph-name="quotedblbase" unicode="&#x201e;" horiz-adv-x="1103" 
d="M829 -293h-354l150 655h450zM317 -293h-354l150 655h450z" />
    <glyph glyph-name="dagger" unicode="&#x2020;" horiz-adv-x="1202" 
d="M874 -451h-544v957h-283v477h283v451h544v-451h281v-477h-281v-957z" />
    <glyph glyph-name="daggerdbl" unicode="&#x2021;" horiz-adv-x="1302" 
d="M924 -451h-545v330h-309v459h309v186h-309v459h309v451h545v-451h309v-459h-309v-186h309v-459h-309v-330z" />
    <glyph glyph-name="bullet" unicode="&#x2022;" horiz-adv-x="940" 
d="M90 717q0 93 31 164.5t84.5 114t120.5 64t145 21.5q79 0 146 -21.5t120 -64t83 -114t30 -164.5q0 -183 -107 -276t-272 -93q-77 0 -144.5 22t-121 65.5t-84.5 115.5t-31 166z" />
    <glyph glyph-name="ellipsis" unicode="&#x2026;" horiz-adv-x="1912" 
d="M1874 219q0 -123 -75.5 -188.5t-188.5 -65.5q-112 0 -187 65.5t-75 188.5t75 188.5t187 65.5q113 0 188.5 -65.5t75.5 -188.5zM563 219q0 -123 -75.5 -188.5t-188.5 -65.5q-112 0 -187 65.5t-75 188.5t75 188.5t187 65.5q113 0 188.5 -65.5t75.5 -188.5zM1219 219
q0 -123 -76 -188.5t-189 -65.5q-112 0 -187 65.5t-75 188.5t75 188.5t187 65.5q113 0 189 -65.5t76 -188.5z" />
    <glyph glyph-name="perthousand" unicode="&#x2030;" horiz-adv-x="2940" 
d="M731 -123h-287l838 1679h287zM909 1063q0 -133 -60 -226.5t-156 -136.5t-218 -43q-91 0 -168.5 25t-137.5 74t-94 127.5t-34 179.5t34 179.5t94 127t137.5 73.5t168.5 25q188 0 311 -104t123 -301zM389 1063q0 -94 86 -94t86 94t-86 94t-86 -94zM1970 371
q0 -133 -60 -226.5t-156 -136.5t-218 -43t-217.5 43t-155 136.5t-59.5 226.5t59.5 227t155.5 137t217 43q90 0 167.5 -25.5t137.5 -74t94.5 -127.5t34.5 -180zM1450 371q0 -95 86 -95t86 95q0 96 -86 96t-86 -96zM2900 371q0 -133 -60 -226.5t-156 -136.5t-218 -43
t-217.5 43t-155 136.5t-59.5 226.5t59.5 227t155.5 137t217 43q90 0 167.5 -25.5t137.5 -74t94.5 -127.5t34.5 -180zM2380 371q0 -95 86 -95t86 95q0 96 -86 96t-86 -96z" />
    <glyph glyph-name="guilsinglleft" unicode="&#x2039;" horiz-adv-x="862" 
d="M827 53h-495l-285 396v86l285 395h495l-307 -438z" />
    <glyph glyph-name="guilsinglright" unicode="&#x203a;" horiz-adv-x="860" 
d="M530 53h-497l309 439l-309 438h497l283 -395v-86z" />
    <glyph glyph-name="fraction" unicode="&#x2044;" horiz-adv-x="409" 
d="M-205 -35h-139l952 1503h140z" />
    <glyph glyph-name="Euro" unicode="&#x20ac;" horiz-adv-x="1464" 
d="M1372 49q-190 -84 -409 -84q-138 0 -261 31.5t-226.5 95t-177 168.5t-103.5 242h-148v164h127v30v31h-127v164h146q30 137 103 242t176 168t222 94.5t252 31.5q232 0 426 -84v-450q-62 34 -151.5 59t-178.5 25q-163 0 -241 -86h352v-164h-416q-2 -10 -2 -31q0 -20 2 -30
h416v-164h-348q78 -78 225 -78q105 0 198.5 22.5t143.5 61.5v-459z" />
    <glyph glyph-name="trademark" unicode="&#x2122;" horiz-adv-x="1449" 
d="M858 891h-248v543h240l137 -215l137 215h240v-543h-248v223l-65 -110h-127l-66 110v-223zM446 891h-268v305h-125v238h520v-238h-127v-305z" />
    <glyph glyph-name="oneeighth" unicode="&#x215b;" horiz-adv-x="1888" 
d="M1112 598q0 49 20 93.5t60.5 82t110.5 60t161 22.5q88 0 158 -21.5t111 -57t62 -77t20 -84.5q-3 -62 -29.5 -98.5t-75.5 -64.5q135 -76 135 -215q0 -111 -97 -184.5t-290 -73.5q-103 0 -178.5 20t-117.5 55.5t-61.5 77t-19.5 90.5q0 68 36 122t83 77q-88 72 -88 176z
M1468 305q-10 2 -28.5 7.5t-24.5 6.5q-18 -21 -18 -51q0 -24 17.5 -40.5t53.5 -16.5q60 0 60 43q0 36 -60 51zM1520 578q-2 21 -17 34t-43 13q-26 0 -39.5 -11t-13.5 -26q0 -27 55 -43q42 -14 47 -15q11 26 11 48zM508 -35h-139l952 1503h139zM281 1393h239v-572h127v-264
h-581v264h139v271l-127 -48v271z" />
    <glyph glyph-name="threeeighths" unicode="&#x215c;" horiz-adv-x="1925" 
d="M1149 598q0 49 20 93.5t60.5 82t110.5 60t161 22.5q88 0 158 -21.5t110.5 -57t61.5 -77t20 -84.5q-3 -62 -29 -98.5t-75 -64.5q135 -76 135 -215q0 -111 -97 -184.5t-290 -73.5q-103 0 -178.5 20t-117.5 55.5t-61.5 77t-19.5 90.5q0 68 36 122t83 77q-88 72 -88 176z
M1505 305q-10 2 -28.5 7.5t-24.5 6.5q-18 -21 -18 -51q0 -24 17.5 -40.5t53.5 -16.5q60 0 60 43q0 36 -60 51zM1556 578q-3 47 -59 47q-26 0 -39.5 -11t-13.5 -26q0 -27 55 -43q42 -14 47 -15q10 23 10 48zM545 -35h-139l952 1503h139zM700 1182q0 -60 -34.5 -110.5
t-100.5 -72.5q74 -15 122 -64t48 -130q0 -68 -29.5 -118.5t-81.5 -79.5t-114 -42.5t-135 -13.5q-162 0 -314 57v269q58 -28 141.5 -47t145.5 -19q76 0 76 39q0 12 -10.5 20.5t-30.5 8.5h-154l2 227l125 -2q37 0 37 24q0 35 -76 35q-55 0 -125.5 -20t-115.5 -49v258
q56 35 136.5 55t160.5 20q89 0 160 -23t119 -80t48 -142z" />
    <glyph glyph-name="fiveeighths" unicode="&#x215d;" horiz-adv-x="1914" 
d="M1139 598q0 49 20 93.5t60.5 82t110.5 60t161 22.5q88 0 158 -21.5t110.5 -57t61.5 -77t20 -84.5q-3 -62 -29 -98.5t-75 -64.5q135 -76 135 -215q0 -111 -97 -184.5t-290 -73.5q-103 0 -178.5 20t-117.5 55.5t-61.5 77t-19.5 90.5q0 68 36 122t83 77q-88 72 -88 176z
M1495 305q-10 2 -28.5 7.5t-24.5 6.5q-19 -22 -19 -51q0 -24 18 -40.5t54 -16.5q59 0 59 43q0 36 -59 51zM1546 578q-3 47 -59 47q-26 0 -39.5 -11t-13.5 -26q0 -27 55 -43q42 -14 47 -15q10 23 10 48zM535 -35h-140l953 1503h139zM117 1393h585v-265h-301l-6 -53q36 4 62 4
q54 0 100.5 -13t88.5 -41t66.5 -80.5t24.5 -123.5q0 -65 -23 -116t-61 -83t-90.5 -53t-106.5 -29t-114 -8q-163 0 -285 58v248q37 -22 100 -37t122 -15q133 0 133 60q0 63 -156 63q-89 0 -168 -18z" />
    <glyph glyph-name="seveneighths" unicode="&#x215e;" horiz-adv-x="1804" 
d="M412 -35h-140l953 1503h139zM1026 598q0 49 20 93.5t60.5 82t110.5 60t161 22.5q88 0 158 -21.5t111 -57t62 -77t20 -84.5q-3 -62 -29.5 -98.5t-75.5 -64.5q135 -76 135 -215q0 -111 -97 -184.5t-290 -73.5q-103 0 -178.5 20t-117.5 55.5t-61.5 77t-19.5 90.5
q0 68 36 122t83 77q-88 72 -88 176zM1382 305q-10 2 -29 7.5t-24 6.5q-18 -21 -18 -51q0 -24 17.5 -40.5t53.5 -16.5q60 0 60 43q0 36 -60 51zM1434 578q-2 21 -17 34t-43 13q-26 0 -39.5 -11t-13.5 -26q0 -27 55 -43q42 -14 47 -15q11 26 11 48zM461 553h-355l252 573h-305
v267h688v-203z" />
    <glyph glyph-name="partialdiff" unicode="&#x2202;" horiz-adv-x="1173" 
d="M1133 621q0 -320 -148 -488t-436 -168q-234 0 -374 134t-140 350q0 116 34 206t91 142.5t125.5 79t144.5 26.5q155 0 260 -88q0 38 -31 86q-50 71 -166 113.5t-292 23.5v430q238 7 418 -51t291.5 -172t167 -270.5t55.5 -353.5zM492 449q0 -99 92 -99t92 99q0 98 -92 98
t-92 -98z" />
    <glyph glyph-name="emptyset" unicode="&#x2205;" horiz-adv-x="1613" 
d="M1546 1434l-180 -211q91 -102 142 -232.5t51 -273.5q0 -154 -59 -293.5t-159.5 -240t-240 -159.5t-293.5 -59q-226 0 -414 123l-76 -88h-247l180 211q-93 102 -144 231.5t-51 274.5q0 154 59 293t159.5 239.5t240 159.5t293.5 59q230 0 416 -122l75 88h248zM807 1225
q-212 0 -360 -148t-148 -360q0 -180 111 -320l651 760q-117 68 -254 68zM553 276q118 -67 254 -67q212 0 360 148t148 360q0 181 -111 317z" />
    <glyph glyph-name="product" unicode="&#x220f;" horiz-adv-x="1716" 
d="M752 -451h-543v1414h-158v471h1614v-471h-158v-1414h-544v1414h-211v-1414z" />
    <glyph glyph-name="summation" unicode="&#x2211;" horiz-adv-x="1226" 
d="M1157 0h-1098v291l377 426l-377 426v291h1076v-471h-379l176 -199v-94l-176 -199h401v-471z" />
    <glyph glyph-name="minus" unicode="&#x2212;" horiz-adv-x="1054" 
d="M971 524h-887v389h887v-389z" />
    <glyph glyph-name="radical" unicode="&#x221a;" horiz-adv-x="1687" 
d="M952 0h-434l-252 506h-235v477h532l168 -393l434 1007h568z" />
    <glyph glyph-name="infinity" unicode="&#x221e;" horiz-adv-x="1847" 
d="M922 1010q186 198 409 198q127 0 230 -55t165 -164.5t62 -255.5t-62 -255.5t-165 -164.5t-230 -55q-222 0 -405 199q-183 -199 -410 -199q-127 0 -230 55t-165 164.5t-62 255.5t62 255.5t165 164.5t230 55q228 0 406 -198zM715 735q-37 49 -68 64.5t-65 15.5
q-32 0 -58 -22.5t-26 -59.5t26 -59.5t58 -22.5q71 0 133 84zM1350 733q0 37 -25.5 59.5t-56.5 22.5q-34 0 -65 -16.5t-70 -67.5q37 -49 68 -64.5t67 -15.5q31 0 56.5 22.5t25.5 59.5z" />
    <glyph glyph-name="integral" unicode="&#x222b;" horiz-adv-x="1062" 
d="M283 1169q0 106 28 188.5t74 133.5t110.5 83.5t131 45t141.5 12.5q169 0 287 -45v-411q-87 28 -158 28q-51 0 -85 -33.5t-34 -97.5v-1096q0 -106 -28.5 -188.5t-74.5 -133t-111 -83t-131.5 -45t-143.5 -12.5q-165 0 -283 45v411q87 -28 158 -28q49 0 84 35t35 96v1095z
" />
    <glyph glyph-name="approxequal" unicode="&#x2248;" horiz-adv-x="1275" 
d="M1190 1214q29 -233 -53.5 -344.5t-243.5 -111.5q-64 0 -148 23t-150.5 46t-86.5 23q-24 0 -33 -18.5t-6 -59.5h-381q-29 233 53.5 345t243.5 112q64 0 148 -23t150.5 -46t86.5 -23q24 0 33 18.5t6 58.5h381zM1190 702q29 -233 -53.5 -344.5t-243.5 -111.5q-64 0 -148 23
t-150.5 46t-86.5 23q-24 0 -33 -18.5t-6 -59.5h-381q-29 233 53.5 345t243.5 112q64 0 148 -23t150.5 -46t86.5 -23q24 0 33 18.5t6 58.5h381z" />
    <glyph glyph-name="notequal" unicode="&#x2260;" horiz-adv-x="1282" 
d="M434 84h-246l107 203h-186v368h376l66 123h-442v369h632l107 203h246l-107 -203h187v-369h-377l-66 -123h443v-368h-633z" />
    <glyph glyph-name="lessequal" unicode="&#x2264;" horiz-adv-x="1067" 
d="M973 813v-426l-895 246v495l895 246v-426l-522 -67zM973 0h-895v369h895v-369z" />
    <glyph glyph-name="greaterequal" unicode="&#x2265;" horiz-adv-x="1067" 
d="M989 633l-895 -246v426l522 68l-522 67v426l895 -246v-495zM989 0h-895v369h895v-369z" />
    <glyph glyph-name="lozenge" unicode="&#x25ca;" horiz-adv-x="1306" 
d="M932 0h-557l-332 717l332 717h557l332 -717zM522 717l131 -277l131 277l-131 276z" />
    <glyph glyph-name="i.loclTRK" horiz-adv-x="632" 
d="M68 983h497v-983h-497v983zM94 1270q0 106 63.5 160.5t159.5 54.5q98 0 161 -54t63 -161q0 -108 -63 -161.5t-161 -53.5q-97 0 -160 53.5t-63 161.5z" />
    <glyph glyph-name="a.ss01" horiz-adv-x="1284" 
d="M780 109q-61 -65 -140.5 -104.5t-168.5 -39.5q-110 0 -195 42t-136 116t-77 167t-26 202t26 202t77 166.5t136 115.5t195 42q89 0 168.5 -39.5t140.5 -104.5v109h437v-983h-437v109zM549 492q0 -57 25 -95.5t75 -38.5q43 0 72 29v209q-29 29 -72 29q-50 0 -75 -38.5
t-25 -94.5z" />
    <glyph glyph-name="aacute.ss01" horiz-adv-x="1284" 
d="M780 109q-61 -65 -140.5 -104.5t-168.5 -39.5q-110 0 -195 42t-136 116t-77 167t-26 202t26 202t77 166.5t136 115.5t195 42q89 0 168.5 -39.5t140.5 -104.5v109h437v-983h-437v109zM549 492q0 -57 25 -95.5t75 -38.5q43 0 72 29v209q-29 29 -72 29q-50 0 -75 -38.5
t-25 -94.5zM811 1075h-412l215 361h465z" />
    <glyph glyph-name="abreve.ss01" horiz-adv-x="1284" 
d="M780 109q-61 -65 -140.5 -104.5t-168.5 -39.5q-110 0 -195 42t-136 116t-77 167t-26 202t26 202t77 166.5t136 115.5t195 42q89 0 168.5 -39.5t140.5 -104.5v109h437v-983h-437v109zM549 492q0 -57 25 -95.5t75 -38.5q43 0 72 29v209q-29 29 -72 29q-50 0 -75 -38.5
t-25 -94.5zM1049 1184q-173 -113 -396 -113q-222 0 -395 113v319q163 -100 395 -100q233 0 396 100v-319z" />
    <glyph glyph-name="acircumflex.ss01" horiz-adv-x="1284" 
d="M780 109q-61 -65 -140.5 -104.5t-168.5 -39.5q-110 0 -195 42t-136 116t-77 167t-26 202t26 202t77 166.5t136 115.5t195 42q89 0 168.5 -39.5t140.5 -104.5v109h437v-983h-437v109zM549 492q0 -57 25 -95.5t75 -38.5q43 0 72 29v209q-29 29 -72 29q-50 0 -75 -38.5
t-25 -94.5zM434 1444h434l275 -369h-391l-101 121l-100 -121h-391z" />
    <glyph glyph-name="adieresis.ss01" horiz-adv-x="1284" 
d="M780 109q-61 -65 -140.5 -104.5t-168.5 -39.5q-110 0 -195 42t-136 116t-77 167t-26 202t26 202t77 166.5t136 115.5t195 42q89 0 168.5 -39.5t140.5 -104.5v109h437v-983h-437v109zM549 492q0 -57 25 -95.5t75 -38.5q43 0 72 29v209q-29 29 -72 29q-50 0 -75 -38.5
t-25 -94.5zM1110 1262q0 -100 -60 -157.5t-155 -57.5t-155 57.5t-60 157.5t60 157.5t155 57.5t155 -57.5t60 -157.5zM623 1262q0 -100 -60 -157.5t-155 -57.5t-155 57.5t-60 157.5t60 157.5t155 57.5t155 -57.5t60 -157.5z" />
    <glyph glyph-name="agrave.ss01" horiz-adv-x="1284" 
d="M780 109q-61 -65 -140.5 -104.5t-168.5 -39.5q-110 0 -195 42t-136 116t-77 167t-26 202t26 202t77 166.5t136 115.5t195 42q89 0 168.5 -39.5t140.5 -104.5v109h437v-983h-437v109zM549 492q0 -57 25 -95.5t75 -38.5q43 0 72 29v209q-29 29 -72 29q-50 0 -75 -38.5
t-25 -94.5zM903 1075h-411l-269 361h465z" />
    <glyph glyph-name="amacron.ss01" horiz-adv-x="1284" 
d="M780 109q-61 -65 -140.5 -104.5t-168.5 -39.5q-110 0 -195 42t-136 116t-77 167t-26 202t26 202t77 166.5t136 115.5t195 42q89 0 168.5 -39.5t140.5 -104.5v109h437v-983h-437v109zM549 492q0 -57 25 -95.5t75 -38.5q43 0 72 29v209q-29 29 -72 29q-50 0 -75 -38.5
t-25 -94.5zM264 1403h778v-322h-778v322z" />
    <glyph glyph-name="aogonek.ss01" horiz-adv-x="1284" 
d="M1217 983v-983q-47 -36 -75 -76.5t-28 -68.5q0 -41 45 -41q19 0 37 6v-277q-92 -28 -207 -28q-134 0 -203 61.5t-67 153.5q-1 69 48.5 142.5t121.5 127.5h-109v109q-61 -65 -140.5 -104.5t-168.5 -39.5q-110 0 -195 42t-136 116t-77 167t-26 202t26 202t77 166.5
t136 115.5t195 42q89 0 168.5 -39.5t140.5 -104.5v109h437zM649 358q43 0 72 29v209q-29 29 -72 29q-50 0 -75 -38.5t-25 -94.5q0 -57 25 -95.5t75 -38.5z" />
    <glyph glyph-name="aring.ss01" horiz-adv-x="1284" 
d="M780 109q-61 -65 -140.5 -104.5t-168.5 -39.5q-110 0 -195 42t-136 116t-77 167t-26 202t26 202t77 166.5t136 115.5t195 42q89 0 168.5 -39.5t140.5 -104.5v109h437v-983h-437v109zM549 492q0 -57 25 -95.5t75 -38.5q43 0 72 29v209q-29 29 -72 29q-50 0 -75 -38.5
t-25 -94.5zM965 1305q0 -133 -88 -206t-222 -73q-130 0 -217.5 73.5t-87.5 205.5q0 127 88 200.5t217 73.5q133 0 221.5 -73t88.5 -201zM590 1303q0 -30 17 -49t50 -19q35 0 51.5 19t16.5 49t-16.5 48.5t-51.5 18.5q-34 0 -50.5 -18.5t-16.5 -48.5z" />
    <glyph glyph-name="atilde.ss01" horiz-adv-x="1284" 
d="M780 109q-61 -65 -140.5 -104.5t-168.5 -39.5q-110 0 -195 42t-136 116t-77 167t-26 202t26 202t77 166.5t136 115.5t195 42q89 0 168.5 -39.5t140.5 -104.5v109h437v-983h-437v109zM549 492q0 -57 25 -95.5t75 -38.5q43 0 72 29v209q-29 29 -72 29q-50 0 -75 -38.5
t-25 -94.5zM1083 1452q24 -111 2.5 -200.5t-91.5 -146t-167 -56.5q-59 0 -115 21t-96.5 42t-60.5 21q-27 0 -35.5 -22t-3.5 -50h-301q-24 111 -2.5 200.5t91.5 146t167 56.5q59 0 115 -21t96.5 -42t60.5 -21q27 0 35.5 22t3.5 50h301z" />
    <glyph glyph-name="ae.ss01" horiz-adv-x="1861" 
d="M780 109q-61 -65 -140.5 -104.5t-168.5 -39.5q-110 0 -195 42t-136 116t-77 167t-26 202t26 202t77 166.5t136 115.5t195 42q89 0 168.5 -39.5t140.5 -104.5v109h416v-92q54 62 128 94.5t151 32.5q101 0 174 -39t111.5 -101t55.5 -145t13.5 -166.5t-21.5 -169.5h-575
q22 -48 92.5 -74t159.5 -26q152 0 250 29v-316q-103 -45 -217 -45q-201 0 -322 146v-111h-416v109zM549 492q0 -57 25 -95.5t75 -38.5q43 0 72 29v209q-29 29 -72 29q-50 0 -75 -38.5t-25 -94.5zM1337 709q-55 0 -83.5 -35t-28.5 -84h207q6 50 -18.5 84.5t-76.5 34.5z" />
    <glyph glyph-name="y.ss01" horiz-adv-x="1222" 
d="M1155 80q0 -145 -50.5 -257t-136 -177.5t-188.5 -98t-219 -32.5q-263 0 -444 51v416q56 -30 144.5 -48t174.5 -18q223 0 223 131v31q-106 -72 -231 -72q-78 0 -141.5 22t-105 58.5t-70 84.5t-40.5 97.5t-12 100.5v614h496v-559q0 -47 51 -47q30 0 53 18v588h496v-903z
" />
    <glyph glyph-name="yacute.ss01" horiz-adv-x="1222" 
d="M1155 80q0 -145 -50.5 -257t-136 -177.5t-188.5 -98t-219 -32.5q-263 0 -444 51v416q56 -30 144.5 -48t174.5 -18q223 0 223 131v31q-106 -72 -231 -72q-78 0 -141.5 22t-105 58.5t-70 84.5t-40.5 97.5t-12 100.5v614h496v-559q0 -47 51 -47q30 0 53 18v588h496v-903z
M766 1075h-412l215 361h465z" />
    <glyph glyph-name="ycircumflex.ss01" horiz-adv-x="1222" 
d="M1155 80q0 -145 -50.5 -257t-136 -177.5t-188.5 -98t-219 -32.5q-263 0 -444 51v416q56 -30 144.5 -48t174.5 -18q223 0 223 131v31q-106 -72 -231 -72q-78 0 -141.5 22t-105 58.5t-70 84.5t-40.5 97.5t-12 100.5v614h496v-559q0 -47 51 -47q30 0 53 18v588h496v-903z
M389 1444h434l275 -369h-391l-101 121l-100 -121h-391z" />
    <glyph glyph-name="ydieresis.ss01" horiz-adv-x="1222" 
d="M1155 80q0 -145 -50.5 -257t-136 -177.5t-188.5 -98t-219 -32.5q-263 0 -444 51v416q56 -30 144.5 -48t174.5 -18q223 0 223 131v31q-106 -72 -231 -72q-78 0 -141.5 22t-105 58.5t-70 84.5t-40.5 97.5t-12 100.5v614h496v-559q0 -47 51 -47q30 0 53 18v588h496v-903z
M1065 1262q0 -100 -60 -157.5t-155 -57.5t-155 57.5t-60 157.5t60 157.5t155 57.5t155 -57.5t60 -157.5zM578 1262q0 -100 -60.5 -157.5t-155.5 -57.5t-155 57.5t-60 157.5t60 157.5t155 57.5t155.5 -57.5t60.5 -157.5z" />
    <glyph glyph-name="ygrave.ss01" horiz-adv-x="1222" 
d="M1155 80q0 -145 -50.5 -257t-136 -177.5t-188.5 -98t-219 -32.5q-263 0 -444 51v416q56 -30 144.5 -48t174.5 -18q223 0 223 131v31q-106 -72 -231 -72q-78 0 -141.5 22t-105 58.5t-70 84.5t-40.5 97.5t-12 100.5v614h496v-559q0 -47 51 -47q30 0 53 18v588h496v-903z
M858 1075h-412l-268 361h465z" />
    <glyph glyph-name="f_b" horiz-adv-x="2117" 
d="M1397 938q96 80 250 80q110 0 195 -42t136 -115.5t77 -166.5t26 -202t-26 -202t-77 -167t-136 -116t-195 -42q-89 0 -169 39.5t-141 104.5v-109h-436v1069q-67 21 -113 18q-58 -2 -93.5 -24t-35.5 -62v-18h138v-389h-138v-594h-495v594h-123v389h123v53q0 144 66.5 247.5
t178.5 153.5t257 50q144 0 305 -47l426 35v-537zM1397 387q29 -29 71 -29q51 0 76 39t25 95t-25 94.5t-76 38.5q-23 0 -42.5 -9t-28.5 -20v-209z" />
    <glyph glyph-name="f_f_b" horiz-adv-x="2854" 
d="M2134 938q96 80 250 80q110 0 195 -42t136 -115.5t77 -166.5t26 -202t-26 -202t-77 -167t-136 -116t-195 -42q-89 0 -168.5 39.5t-140.5 104.5v-109h-437v1090q-67 21 -112 18q-129 -3 -129 -107v-18h137v-389h-137v-594h-496v594h-242v-594h-495v594h-123v389h123v59
q0 101 38 181t104 130t152 76.5t185 26.5q200 0 371 -92q137 143 389 143q144 0 305 -47l426 35v-557zM901 983v53v25q-67 31 -137 31q-45 0 -75 -22t-30 -58v-29h242zM2134 387q29 -29 72 -29q50 0 75 38.5t25 95.5q0 56 -25 94.5t-75 38.5q-23 0 -43 -9t-29 -20v-209z" />
    <glyph glyph-name="f_f_h" horiz-adv-x="2793" 
d="M2134 946q106 72 231 72q78 0 141.5 -22t105 -58.5t70 -84.5t40.5 -97.5t12 -100.5v-655h-496v559q0 47 -51 47q-31 0 -53 -18v-588h-496v1090q-67 21 -112 18q-129 -3 -129 -107v-18h137v-389h-137v-594h-496v594h-242v-594h-495v594h-123v389h123v59q0 101 38 181
t104 130t152 76.5t185 26.5q200 0 371 -92q137 143 389 143q144 0 305 -47l426 35v-549zM901 983v53v25q-67 31 -137 31q-45 0 -75 -22t-30 -58v-29h242z" />
    <glyph glyph-name="f_f_j" horiz-adv-x="2168" 
d="M2101 -100q0 -103 -35.5 -181t-96.5 -122.5t-134 -66.5t-156 -22q-113 0 -219 39v410q21 -6 51 -6q95 0 95 96v547h-209v-594h-496v594h-242v-594h-495v594h-123v389h123v59q0 101 38 181t104 130t152 76.5t185 26.5q205 0 375 -94q148 145 442 145q201 0 420 -73v-375
q-179 53 -313 53q-170 0 -170 -106v-23h704v-1083zM659 1012v-29h242v53v25q-67 31 -137 31q-45 0 -75 -22t-30 -58z" />
    <glyph glyph-name="f_f_k" horiz-adv-x="2848" 
d="M2863 983l-291 -487l293 -496h-532l-146 301h-53v-301h-496v1090q-67 21 -112 18q-129 -3 -129 -107v-18h137v-389h-137v-594h-496v594h-242v-594h-495v594h-123v389h123v59q0 101 38 181t104 130t152 76.5t185 26.5q200 0 371 -92q137 143 389 143q144 0 305 -47l426 35
v-805h53l144 293h532zM901 983v53v25q-67 31 -137 31q-45 0 -75 -22t-30 -58v-29h242z" />
    <glyph glyph-name="f_h" horiz-adv-x="2056" 
d="M1397 946q106 72 231 72q78 0 141.5 -22t105 -58.5t70 -84.5t40.5 -97.5t12 -100.5v-655h-496v559q0 47 -51 47q-30 0 -53 -18v-588h-496v1069q-67 21 -113 18q-58 -2 -93.5 -24t-35.5 -62v-18h138v-389h-138v-594h-495v594h-123v389h123v53q0 144 66.5 247.5
t178.5 153.5t257 50q144 0 305 -47l426 35v-529z" />
    <glyph glyph-name="f_i" horiz-adv-x="1431" 
d="M659 983h705v-983h-496v594h-209v-594h-495v594h-123v389h123v74q0 115 43 202.5t120 141t177 80t219 26.5q201 0 420 -73v-375q-179 53 -314 53q-170 0 -170 -106v-23z" />
    <glyph glyph-name="f_j" horiz-adv-x="1431" 
d="M659 983h705v-1083q0 -103 -35.5 -181t-96.5 -122.5t-134 -66.5t-156 -22q-113 0 -219 39v410q21 -6 51 -6q94 0 94 96v547h-209v-594h-495v594h-123v389h123v74q0 115 43 202.5t120 141t177 80t219 26.5q201 0 420 -73v-375q-179 53 -314 53q-170 0 -170 -106v-23z" />
    <glyph glyph-name="f_k" horiz-adv-x="2111" 
d="M2126 983l-291 -487l293 -496h-533l-145 301h-53v-301h-496v1069q-67 21 -113 18q-58 -2 -93.5 -24t-35.5 -62v-18h138v-389h-138v-594h-495v594h-123v389h123v53q0 144 66.5 247.5t178.5 153.5t257 50q144 0 305 -47l426 35v-785h53l143 293h533z" />
    <glyph glyph-name="f_l" horiz-adv-x="1464" 
d="M666 1507q144 0 305 -47l426 35v-1495h-496v1090q-67 21 -113 18q-129 -3 -129 -107v-18h138v-389h-138v-594h-495v594h-123v389h123v74q0 144 66.5 247.5t178.5 153t257 49.5z" />
    <glyph glyph-name="uni0414.loclBGR" horiz-adv-x="1843" 
d="M541 -264h-492v715h178l402 983h585l402 -983h178v-715h-491v264h-762v-264zM922 877l-156 -426h311z" />
    <glyph glyph-name="uni041B.loclBGR" horiz-adv-x="1562" 
d="M504 1434h557l514 -1434h-574l-219 797l-221 -797h-573z" />
    <glyph glyph-name="uni0424.loclBGR" horiz-adv-x="1884" 
d="M1184 -184h-484v200q-167 19 -300.5 82t-220 156.5t-132 211.5t-45.5 251t45.5 250.5t132 211t220 156.5t300.5 82v201h484v-201q167 -19 300.5 -82t220 -156.5t132 -211t45.5 -250.5t-45.5 -251t-132 -211.5t-220 -156.5t-300.5 -82v-200zM545 717q0 -220 166 -254v508
q-166 -34 -166 -254zM1174 971v-508q165 33 165 254t-165 254z" />
    <glyph glyph-name="uni0432.loclBGR" horiz-adv-x="1265" 
d="M1153 1081q0 -97 -46.5 -171t-125.5 -115q110 -36 182 -129t72 -222q0 -223 -156 -351t-420 -128q-115 0 -206.5 20.5t-169 69t-128.5 126t-79.5 194.5t-28.5 272v94q-1 366 158 546.5t459 180.5q112 0 205.5 -31.5t154.5 -85t95 -123.5t34 -147zM723 1012q0 78 -70 78
q-59 0 -92.5 -47.5t-40.5 -170.5l88 15q57 10 86 46.5t29 78.5zM522 545q4 -107 32.5 -149t96.5 -42q50 0 81.5 31t31.5 84q0 57 -39.5 79.5t-99.5 12.5z" />
    <glyph glyph-name="uni0433.loclBGR" horiz-adv-x="1019" 
d="M954 49q-164 -84 -426 -84q-80 0 -150.5 10t-135.5 33.5t-111.5 59t-74 91.5t-27.5 126q0 76 23.5 132.5t61.5 88t83.5 52.5t91 31t83.5 18t61.5 19t23.5 29q0 33 -62 33q-64 0 -142 -22t-142 -56v324q183 84 409 84q73 0 137 -9.5t124 -32.5t102.5 -58.5t68 -91
t25.5 -126.5q0 -69 -24 -122t-62 -84t-84 -52.5t-92 -33l-84 -21t-62 -21t-24 -28.5q0 -31 71 -31t165.5 27.5t172.5 85.5v-371z" />
    <glyph glyph-name="uni0434.loclBGR" horiz-adv-x="1284" 
d="M37 512q0 109 25.5 199t77 159.5t136 108.5t195.5 39q89 0 168.5 -39.5t140.5 -104.5v109h437v-903q0 -121 -34 -217.5t-91 -160.5t-136.5 -107t-167.5 -61.5t-186 -18.5q-148 0 -249 17t-216 60v402q160 -78 361 -78q223 0 223 131v39q-96 -80 -250 -80
q-111 0 -195.5 39t-136 108.5t-77 159.5t-25.5 199zM721 606q-29 29 -72 29q-50 0 -75 -38.5t-25 -94.5t25 -94.5t75 -38.5q23 0 43 9t29 19v209z" />
    <glyph glyph-name="uni0436.loclBGR" horiz-adv-x="1839" 
d="M524 0h-512l215 485l-213 498h512l115 -303h43v754h471v-754h43l115 303h512l-213 -498l215 -485h-512l-115 291h-45v-291h-471v291h-45z" />
    <glyph glyph-name="uni0438.loclBGR" horiz-adv-x="1222" 
d="M659 983h496v-983h-434v86q-130 -121 -293 -121q-78 0 -141.5 22t-105 58.5t-70 84.5t-40.5 97.5t-12 100.5v655h496v-559q0 -47 51 -47q30 0 53 18v588z" />
    <glyph glyph-name="uni0439.loclBGR" horiz-adv-x="1222" 
d="M963 1159q-67 -42 -164 -65t-191 -23t-190.5 23t-163.5 65v299q65 -37 161 -56.5t193 -19.5t193.5 19.5t161.5 56.5v-299zM659 983h496v-983h-434v86q-130 -121 -293 -121q-78 0 -141.5 22t-105 58.5t-70 84.5t-40.5 97.5t-12 100.5v655h496v-559q0 -47 51 -47
q30 0 53 18v588z" />
    <glyph glyph-name="uni043A.loclBGR" horiz-adv-x="1277" 
d="M1294 0h-532l-146 301h-53v-301h-495v1434h495v-744h53l144 293h532l-291 -487z" />
    <glyph glyph-name="uni043B.loclBGR" horiz-adv-x="1267" 
d="M1270 0h-516l-119 535l-119 -535h-518l373 983h526z" />
    <glyph glyph-name="uni043F.loclBGR" horiz-adv-x="1222" 
d="M502 897q130 121 293 121q78 0 141.5 -22t105 -58t69.5 -84.5t40 -98t12 -100.5v-655h-495v559q0 47 -52 47q-30 0 -53 -18v-588h-495v983h434v-86z" />
    <glyph glyph-name="uni0442.loclBGR" horiz-adv-x="1769" 
d="M555 0h-487v983h436v-84q45 50 129.5 84.5t167.5 34.5q193 0 272 -127q57 58 140 92.5t165 34.5q332 0 332 -410v-608h-487v569q0 37 -41 37q-21 0 -49 -14v-35v-557h-488v569q0 37 -41 37q-21 0 -49 -14v-592z" />
    <glyph glyph-name="uni0446.loclBGR" horiz-adv-x="1316" 
d="M1155 332q0 -19 12 -31t31 -12h90v-537h-420v238q-86 27 -135 104q-50 -62 -130.5 -95.5t-174.5 -33.5q-78 0 -141.5 22t-105 58.5t-70 84.5t-40.5 97.5t-12 100.5v655h496v-559q0 -47 51 -47q30 0 53 18v588h496v-651z" />
    <glyph glyph-name="uni0448.loclBGR" horiz-adv-x="1769" 
d="M1214 983h488v-983h-436v84q-45 -50 -129.5 -84.5t-167.5 -34.5q-194 0 -273 127q-57 -58 -140 -92.5t-165 -34.5q-332 0 -332 410v608h488v-569q0 -37 41 -37q21 0 49 14v35v557h487v-569q0 -37 41 -37q21 0 49 14v592z" />
    <glyph glyph-name="uni0449.loclBGR" horiz-adv-x="1871" 
d="M1710 332q0 -19 12 -31t31 -12h90v-537h-420v238q-86 27 -135 104q-56 -60 -139 -94.5t-172 -34.5q-185 0 -270 127q-58 -58 -142 -92.5t-166 -34.5q-170 0 -255 106.5t-85 303.5v608h496v-569q0 -37 41 -37q22 0 41 14v592h496v-569q0 -37 41 -37q21 0 40 14v592h496
v-651z" />
    <glyph glyph-name="uni044E.loclBGR" horiz-adv-x="1759" 
d="M1726 492q0 -105 -29.5 -192t-82 -148.5t-125.5 -104t-158.5 -62.5t-181.5 -20q-118 0 -220.5 36.5t-182 115t-115.5 190.5h-72v-307h-491v1434h491v-758h72q36 112 115.5 190.5t182 115t220.5 36.5q96 0 181.5 -20t158.5 -62.5t125.5 -103.5t82 -148t29.5 -192z
M1044 492q0 -50 24.5 -81.5t80.5 -31.5q106 0 106 113q0 112 -106 112q-105 0 -105 -112z" />
    <glyph glyph-name="uni0430.ss01" horiz-adv-x="1284" 
d="M780 109q-61 -65 -140.5 -104.5t-168.5 -39.5q-110 0 -195 42t-136 116t-77 167t-26 202t26 202t77 166.5t136 115.5t195 42q89 0 168.5 -39.5t140.5 -104.5v109h437v-983h-437v109zM549 492q0 -57 25 -95.5t75 -38.5q43 0 72 29v209q-29 29 -72 29q-50 0 -75 -38.5
t-25 -94.5z" />
    <glyph glyph-name="uni0437.ss01" horiz-adv-x="987" 
d="M899 631q0 -100 -44 -175t-120 -114q107 -37 176.5 -129.5t69.5 -218.5q0 -121 -48.5 -214.5t-133 -150t-192 -85.5t-232.5 -29q-214 0 -369 73v346q126 -63 285 -63q101 0 165 36t64 116q0 63 -44 92.5t-138 7.5l-107 -23v310l123 26q119 26 119 115q0 108 -166 108
q-154 0 -274 -71v344q167 84 368 84q148 1 258 -38.5t175 -128t65 -218.5z" />
    <glyph glyph-name="uni0443.ss01" horiz-adv-x="1222" 
d="M1155 80q0 -145 -50.5 -257t-136 -177.5t-188.5 -98t-219 -32.5q-263 0 -444 51v416q56 -30 144.5 -48t174.5 -18q223 0 223 131v31q-106 -72 -231 -72q-78 0 -141.5 22t-105 58.5t-70 84.5t-40.5 97.5t-12 100.5v614h496v-559q0 -47 51 -47q30 0 53 18v588h496v-903z
" />
    <glyph glyph-name="zero.osf" horiz-adv-x="1390" 
d="M1343 532q0 -117 -37.5 -217t-113 -179.5t-202.5 -125t-294 -45.5q-135 0 -244.5 30t-183.5 82t-124.5 124.5t-73.5 155t-23 175.5q0 77 16.5 147.5t49 134.5t86 116t124 90t165.5 59t208 21q167 0 294 -45.5t202.5 -125.5t113 -180t37.5 -217zM590 532q0 -68 28 -102.5
t78 -34.5q49 0 77 35t28 102t-28 102.5t-77 35.5q-50 0 -78 -35t-28 -103z" />
    <glyph glyph-name="one.osf" horiz-adv-x="1075" 
d="M430 1065h397v-645h211v-420h-968v420h231v184l-209 -78v410z" />
    <glyph glyph-name="two.osf" horiz-adv-x="1169" 
d="M1098 2h-1047v172q0 60 19.5 107.5t62 85.5t88.5 65.5t119 61.5q134 62 159 81q33 24 33 52q0 45 -73 45q-61 0 -155 -35.5t-189 -101.5v450q124 59 237.5 87t261.5 28q131 0 239.5 -39t177.5 -120.5t69 -192.5q0 -131 -94 -216q-67 -59 -211 -110h303v-420z" />
    <glyph glyph-name="three.osf" horiz-adv-x="1163" 
d="M1065 690q0 -101 -57 -183.5t-166 -119.5q120 -25 200 -108.5t80 -217.5q0 -92 -33 -165t-88.5 -120.5t-133 -79t-162.5 -45t-181 -13.5q-263 0 -463 73v439q183 -78 416 -78q129 0 129 65q0 20 -18 33.5t-51 13.5h-215v377h172q59 0 59 41q0 57 -125 57q-179 0 -342 -67
v422q91 42 207.5 64t226.5 22q86 0 164 -14t148.5 -45.5t121.5 -78t81 -116.5t30 -156z" />
    <glyph glyph-name="four.osf" horiz-adv-x="1333" 
d="M608 1065h537v-825h143v-410h-143v-158h-461v158h-659v389zM684 240v266l-184 -266h184z" />
    <glyph glyph-name="five.osf" horiz-adv-x="1165" 
d="M152 1065h911v-438h-445l-6 -90q50 6 95 6q193 -3 303 -117t110 -309q0 -108 -38.5 -192.5t-101 -137.5t-150 -87.5t-177 -48t-190.5 -13.5q-215 0 -410 77v414q140 -72 326 -72q94 0 146.5 26t52.5 79q0 38 -31 61.5t-71.5 31t-92.5 7.5q-163 0 -281 -29z" />
    <glyph glyph-name="six.osf" horiz-adv-x="1337" 
d="M588 838q117 63 258 63q86 0 163 -26.5t140.5 -77.5t101 -137.5t37.5 -196.5q0 -104 -32 -188.5t-86 -141t-127.5 -95.5t-155 -56t-170.5 -17q-330 0 -497 184.5t-167 526.5q0 151 38.5 277t104.5 212.5t155 146.5t187.5 87.5t204.5 27.5q234 0 445 -94v-397
q-149 86 -301 86q-116 0 -191.5 -42t-107.5 -142zM573 516q25 -166 125 -166q38 0 63 26.5t25 69.5q0 107 -102 107q-53 0 -111 -37z" />
    <glyph glyph-name="seven.osf" horiz-adv-x="1150" 
d="M35 1065h1100v-336l-465 -1057h-590l420 953h-465v440z" />
    <glyph glyph-name="eight.osf" horiz-adv-x="1310" 
d="M100 997q0 64 20.5 124.5t65 116t108.5 97.5t158 67t207 25q136 0 245.5 -36t174.5 -95t99 -128.5t32 -141.5q-3 -104 -47 -164.5t-127 -107.5q107 -58 166.5 -143t59.5 -214q0 -88 -37.5 -164.5t-110 -137t-192.5 -95.5t-273 -35q-161 0 -281 34.5t-187.5 93.5
t-99.5 129t-32 151q0 114 61 202t140 127q-150 121 -150 295zM662 510q-4 1 -28.5 9t-35.5 13q-31 -36 -31 -83q0 -40 24.5 -68.5t67.5 -28.5q39 0 61.5 21t22.5 51q0 56 -81 86zM729 967q0 33 -21.5 53t-54.5 20q-32 0 -51.5 -16.5t-19.5 -44.5q0 -43 55 -70q13 -6 39 -14
t37 -12q16 43 16 84z" />
    <glyph glyph-name="nine.osf" horiz-adv-x="1316" 
d="M37 602q0 104 32 188.5t86 141t127.5 95.5t155 56t170.5 17q330 0 497 -184.5t167 -526.5q0 -151 -38.5 -277t-104.5 -212.5t-155 -146.5t-187.5 -87.5t-204.5 -27.5q-234 0 -445 94v397q149 -86 301 -86q116 0 191.5 42t107.5 142q-117 -63 -258 -63q-86 0 -163 26.5
t-140.5 77.5t-101 137.5t-37.5 196.5zM627 715q-38 0 -63 -27t-25 -70q0 -106 102 -106q53 0 111 37q-25 166 -125 166z" />
    <glyph glyph-name="zero.sinf" horiz-adv-x="876" 
d="M840 213q0 -90 -23 -166.5t-69.5 -138.5t-126 -97.5t-183.5 -35.5q-105 0 -184 35.5t-125.5 97.5t-69 138.5t-22.5 166.5t22.5 166.5t69 138.5t125.5 97.5t184 35.5q104 0 183.5 -35.5t126 -97.5t69.5 -138.5t23 -166.5zM362 213q0 -85 18.5 -120.5t57.5 -35.5t57.5 35.5
t18.5 120.5t-18.5 120.5t-57.5 35.5t-57.5 -35.5t-18.5 -120.5z" />
    <glyph glyph-name="one.sinf" horiz-adv-x="661" 
d="M268 631h240v-572h127v-264h-582v264h140v271l-127 -47v270z" />
    <glyph glyph-name="two.sinf" horiz-adv-x="788" 
d="M72 563q149 88 323 88q70 0 129 -15.5t108 -47.5t77 -87.5t28 -129.5q0 -72 -27.5 -118t-78.5 -87q-13 -11 -63 -46.5t-76 -60.5h243v-264h-690l2 127q0 59 16 106t50 85t63 61.5t78 56.5q24 16 66.5 39.5t58.5 37.5t16 32q0 35 -55 35q-124 0 -268 -107v295z" />
    <glyph glyph-name="three.sinf" horiz-adv-x="759" 
d="M690 406q0 -60 -34.5 -110.5t-100.5 -72.5q74 -15 122 -64t48 -130q0 -68 -29.5 -118.5t-81.5 -79.5t-114 -42.5t-135 -13.5q-162 0 -314 57v268q58 -27 141.5 -46t145.5 -19q76 0 76 39q0 12 -10.5 20t-30.5 8h-154l2 228l125 -2q37 0 37 24q0 35 -76 35
q-54 0 -124.5 -20.5t-116.5 -49.5v258q57 35 136.5 55.5t159.5 20.5q52 0 99 -8t89 -27t73 -46.5t49 -69.5t18 -94z" />
    <glyph glyph-name="four.sinf" horiz-adv-x="864" 
d="M406 631h321v-496h98v-246h-98v-94h-289v94h-407v258zM438 135v160l-123 -160h123z" />
    <glyph glyph-name="five.sinf" horiz-adv-x="763" 
d="M104 635h586v-264h-301l-6 -54q45 5 61 5q53 0 100.5 -13t89.5 -41.5t66.5 -81t24.5 -123.5q0 -65 -23 -116t-61 -83t-90.5 -52.5t-106.5 -28.5t-114 -8q-165 0 -285 57v248q37 -22 99.5 -36.5t121.5 -14.5q133 0 133 59q0 64 -155 64q-85 0 -168 -19z" />
    <glyph glyph-name="six.sinf" horiz-adv-x="849" 
d="M354 283q77 53 185 53q75 0 135.5 -26.5t100.5 -87.5t40 -148q0 -78 -29 -137t-79.5 -93.5t-112 -51.5t-133.5 -17q-213 0 -317.5 115t-104.5 323q0 113 35 199t97 137t139 76.5t167 25.5q158 0 266 -57v-238q-99 52 -192 52q-87 0 -133.5 -27t-63.5 -98zM354 102
q19 -96 97 -96q28 0 45.5 15.5t17.5 41.5q0 64 -74 64q-41 0 -86 -25z" />
    <glyph glyph-name="seven.sinf" horiz-adv-x="733" 
d="M436 -205h-354l252 574h-305v266h688v-203z" />
    <glyph glyph-name="eight.sinf" horiz-adv-x="837" 
d="M68 401q0 49 20 93.5t60.5 82t110.5 60t161 22.5q88 0 158 -21.5t110.5 -56.5t61.5 -76.5t20 -84.5q-3 -62 -29 -99t-75 -65q135 -76 135 -215q0 -111 -97 -184.5t-290 -73.5q-103 0 -178.5 20.5t-117.5 56t-61.5 77t-19.5 90.5q0 68 36 121.5t83 76.5q-88 72 -88 176z
M424 109q-10 2 -28.5 7.5t-24.5 6.5q-19 -22 -19 -51q0 -24 18 -41t54 -17q59 0 59 43q0 37 -59 52zM475 381q-3 47 -59 47q-26 0 -40 -11t-14 -26q0 -17 15 -26t41 -17q34 -12 47 -14q10 23 10 47z" />
    <glyph glyph-name="nine.sinf" horiz-adv-x="849" 
d="M35 352q0 78 29 137t79.5 93.5t112 51.5t133.5 17q213 0 317.5 -115t104.5 -323q0 -113 -35 -199t-97 -137t-139 -76.5t-167 -25.5q-159 0 -267 57v238q99 -52 193 -52q87 0 133.5 27t63.5 98q-77 -53 -185 -53q-75 0 -135.5 26.5t-100.5 87.5t-40 148zM399 420
q-28 0 -45.5 -16t-17.5 -42q0 -63 74 -63q41 0 86 25q-19 96 -97 96z" />
    <glyph glyph-name="zero.sups" horiz-adv-x="876" 
d="M840 1194q0 -90 -23 -166.5t-69.5 -138.5t-126 -97.5t-183.5 -35.5q-105 0 -184 35.5t-125.5 97.5t-69 138.5t-22.5 166.5t22.5 166.5t69 138.5t125.5 97.5t184 35.5q104 0 183.5 -35.5t126 -97.5t69.5 -138.5t23 -166.5zM362 1194q0 -85 18.5 -120.5t57.5 -35.5
t57.5 35.5t18.5 120.5t-18.5 120.5t-57.5 35.5t-57.5 -35.5t-18.5 -120.5z" />
    <glyph glyph-name="one.sups" horiz-adv-x="661" 
d="M268 1597h240v-571h127v-264h-582v264h140v270l-127 -47v271z" />
    <glyph glyph-name="two.sups" horiz-adv-x="788" 
d="M72 1544q149 88 323 88q70 0 129 -15.5t108 -47.5t77 -87.5t28 -129.5q0 -72 -27.5 -118t-78.5 -87q-13 -11 -63 -46.5t-76 -60.5h243v-264h-690l2 127q0 59 16 106t50 85t63 61.5t78 56.5q24 16 66.5 39.5t58.5 37.5t16 32q0 35 -55 35q-124 0 -268 -107v295z" />
    <glyph glyph-name="three.sups" horiz-adv-x="759" 
d="M690 1386q0 -60 -34.5 -110t-100.5 -72q74 -15 122 -64t48 -130q0 -68 -29.5 -118.5t-81.5 -79.5t-114 -42.5t-135 -13.5q-162 0 -314 57v268q58 -27 141.5 -46t145.5 -19q76 0 76 39q0 12 -10.5 20t-30.5 8h-154l2 228l125 -2q37 0 37 24q0 35 -76 35
q-54 0 -124.5 -20.5t-116.5 -49.5v258q57 35 136.5 55.5t159.5 20.5q66 0 123 -14t104 -42t74 -77t27 -113z" />
    <glyph glyph-name="four.sups" horiz-adv-x="864" 
d="M406 1597h321v-495h98v-246h-98v-94h-289v94h-407v258zM438 1102v160l-123 -160h123z" />
    <glyph glyph-name="five.sups" horiz-adv-x="763" 
d="M104 1597h586v-264h-301l-6 -53q36 4 61 4q54 0 101 -13t89 -41t66.5 -80.5t24.5 -123.5q0 -65 -23 -116t-61 -83t-90.5 -53t-106.5 -29t-114 -8q-163 0 -285 58v247q37 -22 99.5 -36.5t121.5 -14.5q133 0 133 60q0 63 -155 63q-89 0 -168 -18z" />
    <glyph glyph-name="six.sups" horiz-adv-x="849" 
d="M354 1264q77 53 185 53q75 0 135.5 -26.5t100.5 -87.5t40 -148q0 -78 -29 -137t-79.5 -93.5t-112 -51.5t-133.5 -17q-213 0 -317.5 115t-104.5 323q0 113 35 199t97 137t139 76.5t167 25.5q158 0 266 -57v-238q-99 52 -192 52q-87 0 -133.5 -27t-63.5 -98zM354 1083
q19 -96 97 -96q28 0 45.5 15.5t17.5 41.5q0 64 -74 64q-41 0 -86 -25z" />
    <glyph glyph-name="seven.sups" horiz-adv-x="735" 
d="M436 758h-354l252 573h-305v266h688v-202z" />
    <glyph glyph-name="eight.sups" horiz-adv-x="837" 
d="M68 1382q0 49 20 93.5t60.5 82t110.5 60t161 22.5q88 0 158 -21.5t110.5 -56.5t61.5 -76.5t20 -84.5q-3 -62 -29 -99t-75 -65q135 -76 135 -215q0 -111 -97 -184.5t-290 -73.5q-103 0 -178.5 20.5t-117.5 56t-61.5 77t-19.5 90.5q0 68 36 121.5t83 76.5q-88 72 -88 176z
M424 1090q-10 2 -28.5 7.5t-24.5 6.5q-19 -22 -19 -51q0 -24 18 -41t54 -17q59 0 59 43q0 37 -59 52zM475 1362q-3 47 -59 47q-26 0 -40 -11t-14 -26q0 -17 15 -26t41 -17q34 -11 47 -14q10 23 10 47z" />
    <glyph glyph-name="nine.sups" horiz-adv-x="849" 
d="M35 1333q0 78 29 137t79.5 93.5t112 51.5t133.5 17q213 0 317.5 -115t104.5 -323q0 -113 -35 -199t-97 -137t-139 -76.5t-167 -25.5q-159 0 -267 57v238q99 -52 193 -52q87 0 133.5 27t63.5 98q-77 -53 -185 -53q-75 0 -135.5 26.5t-100.5 87.5t-40 148zM399 1401
q-28 0 -45.5 -16t-17.5 -42q0 -63 74 -63q41 0 86 25q-19 96 -97 96z" />
    <glyph glyph-name="zero.tf" 
d="M1346 696q0 -118 -23 -224t-74 -199.5t-126.5 -161t-187.5 -107t-249 -39.5t-249 39.5t-187 107t-126 161t-74 199.5t-23 224t23 224t74 199.5t126 161t187 107t249 39.5t249 -39.5t187.5 -107t126.5 -161t74 -199.5t23 -224zM569 696q0 -141 29 -200.5t88 -59.5t88 59.5
t29 200.5t-29 200.5t-88 59.5t-88 -59.5t-29 -200.5z" />
    <glyph glyph-name="one.tf" 
d="M586 1393h397v-953h334v-440h-1235v440h375v451l-301 -117v451z" />
    <glyph glyph-name="two.tf" 
d="M131 1282q117 68 262.5 106.5t298.5 38.5q92 0 173.5 -15.5t154.5 -51t125.5 -88.5t83.5 -132.5t31 -178.5q0 -120 -45 -198t-130 -145q-39 -31 -125 -88t-129 -88h445v-440h-1188v213q0 40 7 77t15.5 67t27 61.5t32.5 54t41 50t43.5 43.5t50 42t49.5 37.5t52.5 37.5
t50.5 36q40 29 109.5 69t97.5 64.5t28 54.5q0 60 -94 60q-227 0 -467 -178v491z" />
    <glyph glyph-name="three.tf" 
d="M1221 1018q0 -100 -57.5 -183t-166.5 -120q121 -25 201 -108.5t80 -217.5q0 -92 -33 -165t-89.5 -121t-136.5 -79.5t-169 -45t-191 -13.5q-287 0 -544 94v451q97 -47 239 -79t258 -32q150 0 150 66q0 20 -18 33.5t-52 13.5h-297v377h254q60 0 60 41q0 31 -35.5 44
t-110.5 13q-104 0 -225.5 -34.5t-198.5 -82.5v430q96 60 231 93.5t285 33.5q92 0 173.5 -14t154.5 -45t125 -77.5t82.5 -116t30.5 -156.5z" />
    <glyph glyph-name="four.tf" 
d="M643 1393h537v-826h163v-409h-163v-158h-482v158h-680v430zM709 567v264l-205 -264h205z" />
    <glyph glyph-name="five.tf" 
d="M215 1393h993v-439h-526l-6 -90q106 8 125 8q70 0 133.5 -12.5t125 -44t106.5 -79t72.5 -122.5t27.5 -170q0 -108 -38.5 -192.5t-101.5 -137.5t-150 -87.5t-177 -48t-191 -13.5q-285 0 -491 94v414q62 -38 169 -63t218 -25q97 0 158 26.5t61 77.5q0 101 -256 101
q-163 0 -301 -29z" />
    <glyph glyph-name="six.tf" 
d="M569 813q133 88 308 88q93 0 174.5 -26t147 -78t103 -137.5t37.5 -196.5q0 -104 -32 -188.5t-87 -141t-131 -95t-161 -56t-180 -17.5q-180 0 -315 50.5t-220.5 147t-127.5 229.5t-42 304q0 152 39 275.5t106.5 207t161 140.5t199.5 82.5t225 25.5q265 0 445 -94v-397
q-169 86 -322 86q-145 0 -224 -46t-104 -163zM569 510q35 -160 160 -160q46 0 77.5 27t31.5 69q0 55 -33 81t-90 26q-76 0 -146 -43z" />
    <glyph glyph-name="seven.tf" 
d="M90 1393h1202v-336l-485 -1057h-590l438 952h-565v441z" />
    <glyph glyph-name="eight.tf" 
d="M100 997q0 64 20.5 124.5t66.5 116.5t113 97.5t167.5 66.5t222.5 25q119 0 218 -24t165.5 -63.5t113 -92t66.5 -108.5t19 -113q-3 -104 -47 -164.5t-127 -107.5q69 -38 116.5 -83t78 -115.5t30.5 -158.5t-37.5 -164.5t-113 -137t-202 -95.5t-290.5 -35q-139 0 -248.5 23
t-180 61.5t-117 91.5t-66 110.5t-19.5 121.5q0 114 61 202t140 127q-150 121 -150 295zM696 508q-54 14 -88 24q-30 -34 -30 -83q0 -41 28.5 -69t87.5 -28q54 0 77.5 20t23.5 50q0 35 -26.5 54t-72.5 32zM780 963q-2 35 -26 56t-72 21q-43 0 -66.5 -17t-23.5 -42
q0 -29 24.5 -44.5t69.5 -29.5q35 -10 78 -24q18 49 16 80z" />
    <glyph glyph-name="nine.tf" 
d="M33 930q0 129 48.5 227t132.5 155.5t187.5 86t223.5 28.5q355 0 529.5 -191.5t174.5 -539.5q0 -152 -39 -275.5t-106.5 -207t-161 -140.5t-199.5 -82.5t-225 -25.5q-264 0 -444 94v398q169 -86 321 -86q145 0 224 46t104 163q-133 -88 -307 -88q-93 0 -174.5 26t-147 78
t-103.5 137.5t-38 196.5zM643 1042q-46 0 -77 -27t-31 -69q0 -106 122 -106q76 0 146 43q-35 159 -160 159z" />
    <glyph glyph-name="zero.tosf" 
d="M1346 532q0 -117 -38 -217t-114.5 -179.5t-206.5 -125t-301 -45.5q-138 0 -249 30t-186.5 82t-126.5 124.5t-74 155t-23 175.5t23 175.5t74 155t126.5 125t186.5 82.5t249 30t249.5 -30t187 -82.5t126.5 -125t74 -155t23 -175.5zM569 532q0 -137 117 -137t117 137
q0 138 -117 138t-117 -138z" />
    <glyph glyph-name="one.tosf" 
d="M582 1065h397v-645h334v-420h-1235v420h375v205l-301 -117v389z" />
    <glyph glyph-name="two.tosf" 
d="M1270 2h-1186v172q0 48 13.5 90.5t36 73.5t55.5 59t66.5 47t74.5 37q51 22 150 50.5t153.5 51t54.5 48.5q0 41 -94 41q-218 0 -447 -137v450q243 115 562 115q257 0 410 -91.5t153 -260.5q0 -126 -72 -201q-69 -69 -233 -125h303v-420z" />
    <glyph glyph-name="three.tosf" 
d="M1221 690q0 -100 -57.5 -183t-166.5 -120q121 -25 201 -108.5t80 -217.5q0 -92 -33 -164.5t-89.5 -120.5t-136.5 -79.5t-168.5 -45t-191.5 -13.5q-287 0 -544 94v450q97 -47 238.5 -78.5t258.5 -31.5q150 0 150 65q0 20 -18 33.5t-52 13.5h-297v377h254q60 0 60 41
q0 31 -35.5 44t-110.5 13q-104 0 -226 -34t-198 -82v430q96 60 231 93.5t285 33.5q92 0 173.5 -14t154.5 -45t125 -78t82.5 -116.5t30.5 -156.5z" />
    <glyph glyph-name="four.tosf" 
d="M643 1065h537v-825h163v-410h-163v-158h-482v158h-680v430zM709 240v264l-205 -264h205z" />
    <glyph glyph-name="five.tosf" 
d="M215 1065h993v-438h-526l-6 -90q106 8 125 8q70 0 133.5 -12.5t125 -44t106.5 -79t72.5 -122.5t27.5 -170q0 -108 -38.5 -192.5t-101.5 -137.5t-150 -87.5t-177 -48t-191 -13.5q-285 0 -491 94v413q62 -38 169 -63t218 -25q96 0 157.5 26.5t61.5 78.5q0 30 -20.5 50.5
t-58.5 31t-80 14.5t-97 4q-163 0 -301 -29z" />
    <glyph glyph-name="six.tosf" 
d="M569 813q133 88 308 88q93 0 174.5 -26t147 -78t103 -137.5t37.5 -196.5q0 -104 -32 -188.5t-87 -141t-131 -95t-161 -56t-180 -17.5q-180 0 -315 50.5t-220.5 147t-127.5 229.5t-42 304q0 152 39 275.5t106.5 207t161 140.5t199.5 82.5t225 25.5q265 0 445 -94v-397
q-169 86 -322 86q-145 0 -224 -46t-104 -163zM569 510q35 -160 160 -160q46 0 77.5 27t31.5 69q0 55 -33 81t-90 26q-76 0 -146 -43z" />
    <glyph glyph-name="seven.tosf" 
d="M90 1065h1202v-336l-485 -1057h-590l438 953h-565v440z" />
    <glyph glyph-name="eight.tosf" 
d="M100 997q0 64 20.5 124.5t66.5 116.5t113 97.5t167.5 66.5t222.5 25q119 0 218 -24t165.5 -63.5t113 -92t66.5 -108.5t19 -113q-3 -104 -47 -164.5t-127 -107.5q69 -38 116.5 -83t78 -115.5t30.5 -158.5t-37.5 -164.5t-113 -137t-202 -95.5t-290.5 -35q-139 0 -248.5 23
t-180 61.5t-117 91.5t-66 110.5t-19.5 121.5q0 114 61 202t140 127q-150 121 -150 295zM696 508q-54 14 -88 24q-30 -34 -30 -83q0 -41 28.5 -69t87.5 -28q54 0 77.5 20t23.5 50q0 35 -26.5 54t-72.5 32zM780 963q-2 35 -26 56t-72 21q-43 0 -66.5 -17t-23.5 -42
q0 -29 24.5 -44.5t69.5 -29.5q35 -10 78 -24q18 49 16 80z" />
    <glyph glyph-name="nine.tosf" 
d="M31 602q0 104 32 188.5t87 141t131 95t161.5 56t180.5 17.5q355 0 529.5 -191.5t174.5 -539.5q0 -152 -39 -275.5t-106.5 -207t-161 -140.5t-199.5 -82.5t-225 -25.5q-264 0 -444 94v397q169 -86 321 -86q145 0 224 46t104 163q-133 -88 -307 -88q-93 0 -174.5 26
t-147 78t-103.5 137.5t-38 196.5zM641 715q-46 0 -77.5 -27.5t-31.5 -69.5q0 -106 123 -106q76 0 146 43q-35 160 -160 160z" />
    <glyph glyph-name="zero.dnom" horiz-adv-x="876" 
d="M840 418q0 -90 -23 -166.5t-69.5 -138.5t-126 -97.5t-183.5 -35.5q-105 0 -184 35.5t-125.5 97.5t-69 138.5t-22.5 166.5t22.5 166.5t69 138.5t125.5 97.5t184 35.5q104 0 183.5 -35.5t126 -97.5t69.5 -138.5t23 -166.5zM362 418q0 -85 18.5 -120.5t57.5 -35.5t57.5 35.5
t18.5 120.5t-18 120t-58 35t-58 -35t-18 -120z" />
    <glyph glyph-name="one.dnom" horiz-adv-x="661" 
d="M268 836h240v-572h127v-264h-582v264h140v271l-127 -48v271z" />
    <glyph glyph-name="two.dnom" horiz-adv-x="788" 
d="M72 768q149 88 323 88q70 0 129 -15.5t108 -47.5t77 -88t28 -130q0 -72 -27 -117.5t-79 -86.5q-13 -11 -63 -46.5t-76 -60.5h243v-264h-690l2 127q0 59 16 106t50 85t63 61.5t78 56.5q24 16 66.5 39.5t58.5 37.5t16 32q0 35 -55 35q-124 0 -268 -107v295z" />
    <glyph glyph-name="three.dnom" horiz-adv-x="759" 
d="M690 610q0 -60 -34.5 -110t-100.5 -72q74 -15 122 -64.5t48 -130.5q0 -68 -29.5 -118.5t-81.5 -79t-114 -42t-135 -13.5q-162 0 -314 57v268q58 -27 141.5 -46t145.5 -19q76 0 76 39q0 12 -10.5 20t-30.5 8h-154l2 228l125 -3q37 0 37 25q0 35 -76 35q-54 0 -124.5 -20.5
t-116.5 -49.5v258q57 35 136.5 55.5t159.5 20.5q66 0 123 -14t104 -42t74 -77t27 -113z" />
    <glyph glyph-name="four.dnom" horiz-adv-x="864" 
d="M406 836h321v-496h98v-246h-98v-94h-289v94h-407v258zM438 340v160l-123 -160h123z" />
    <glyph glyph-name="five.dnom" horiz-adv-x="763" 
d="M104 840h586v-265h-301l-6 -53q36 4 61 4q54 0 101 -13t89 -41t66.5 -80.5t24.5 -123.5q0 -65 -23 -116t-61 -83t-90.5 -52.5t-106.5 -28.5t-114 -8q-165 0 -285 57v248q37 -22 99.5 -37t121.5 -15q133 0 133 60q0 63 -155 63q-89 0 -168 -18z" />
    <glyph glyph-name="six.dnom" horiz-adv-x="849" 
d="M354 487q79 54 185 54q75 0 135.5 -26.5t100.5 -87.5t40 -148q0 -78 -29 -137t-79.5 -93.5t-112 -51.5t-133.5 -17q-213 0 -317.5 115t-104.5 323q0 113 35 199t97 137t139 76.5t167 25.5q158 0 266 -57v-238q-97 51 -192 51q-87 0 -133.5 -27t-63.5 -98zM354 307
q19 -96 97 -96q28 0 45.5 15.5t17.5 41.5q0 64 -74 64q-41 0 -86 -25z" />
    <glyph glyph-name="seven.dnom" horiz-adv-x="733" 
d="M436 0h-354l252 573h-305v267h688v-203z" />
    <glyph glyph-name="eight.dnom" horiz-adv-x="837" 
d="M68 598q0 49 20 93.5t60.5 82t110.5 60t161 22.5q88 0 158 -21.5t110.5 -57t61.5 -77t20 -84.5q-3 -62 -29 -98.5t-75 -64.5q135 -76 135 -215q0 -111 -97 -184.5t-290 -73.5q-103 0 -178.5 20t-117.5 55.5t-61.5 77t-19.5 90.5q0 68 36 122t83 77q-88 72 -88 176z
M424 305q-10 2 -28.5 7.5t-24.5 6.5q-19 -22 -19 -51q0 -24 18 -40.5t54 -16.5q59 0 59 43q0 36 -59 51zM475 578q-3 47 -59 47q-26 0 -40 -11t-14 -26q0 -17 15 -26t41 -17q42 -14 47 -15q10 23 10 48z" />
    <glyph glyph-name="nine.dnom" horiz-adv-x="849" 
d="M35 557q0 78 29 137t79.5 93.5t112 51.5t133.5 17q213 0 317.5 -115t104.5 -323q0 -113 -35 -199t-97 -137t-139 -76.5t-167 -25.5q-159 0 -267 57v237q97 -51 193 -51q87 0 133.5 27t63.5 98q-77 -53 -185 -53q-75 0 -135.5 26.5t-100.5 87.5t-40 148zM399 625
q-28 0 -45.5 -16t-17.5 -42q0 -63 74 -63q42 0 86 24q-19 97 -97 97z" />
    <glyph glyph-name="zero.numr" horiz-adv-x="876" 
d="M840 989q0 -90 -23 -166.5t-69.5 -138.5t-126 -97.5t-183.5 -35.5q-105 0 -184 35.5t-125.5 97.5t-69 138.5t-22.5 166.5t22.5 166.5t69 138.5t125.5 97.5t184 35.5q104 0 183.5 -35.5t126 -97.5t69.5 -138.5t23 -166.5zM362 989q0 -85 18 -120t58 -35t58 35t18 120
t-18.5 120.5t-57.5 35.5t-57.5 -35.5t-18.5 -120.5z" />
    <glyph glyph-name="one.numr" horiz-adv-x="661" 
d="M268 1393h240v-572h127v-264h-582v264h140v271l-127 -48v271z" />
    <glyph glyph-name="two.numr" horiz-adv-x="788" 
d="M72 1339q149 88 323 88q70 0 129 -15.5t108 -47.5t77 -87.5t28 -129.5q0 -72 -27.5 -118t-78.5 -87q-14 -11 -63.5 -46t-75.5 -60h243v-265h-690l2 127q0 47 12.5 88.5t29.5 70.5t48 59t54.5 48t62.5 44q24 16 66.5 39.5t58.5 37t16 31.5q0 35 -55 35q-124 0 -268 -107
v295z" />
    <glyph glyph-name="three.numr" horiz-adv-x="759" 
d="M690 1182q0 -60 -34.5 -110.5t-100.5 -72.5q74 -15 122 -64t48 -130q0 -68 -29.5 -118.5t-81.5 -79.5t-114 -42.5t-135 -13.5q-162 0 -314 57v269q58 -28 141.5 -47t145.5 -19q76 0 76 39q0 12 -10.5 20.5t-30.5 8.5h-154l2 227l125 -2q37 0 37 24q0 35 -76 35
q-55 0 -125.5 -20t-115.5 -49v258q57 35 136.5 55t159.5 20q52 0 99 -8t89 -27t73 -46.5t49 -69.5t18 -94z" />
    <glyph glyph-name="four.numr" horiz-adv-x="864" 
d="M406 1393h321v-496h98v-246h-98v-94h-289v94h-407v258zM438 897v160l-123 -160h123z" />
    <glyph glyph-name="five.numr" horiz-adv-x="763" 
d="M104 1393h586v-265h-301l-6 -53q36 4 61 4q54 0 101 -13t89 -41t66.5 -80.5t24.5 -123.5q0 -65 -23 -116t-61 -83t-90.5 -53t-106.5 -29t-114 -8q-163 0 -285 58v248q37 -22 99.5 -37t121.5 -15q133 0 133 60q0 63 -155 63q-89 0 -168 -18z" />
    <glyph glyph-name="six.numr" horiz-adv-x="849" 
d="M354 1059q77 53 185 53q75 0 135.5 -26.5t100.5 -87.5t40 -148q0 -78 -29 -137t-79.5 -93.5t-112 -51.5t-133.5 -17q-213 0 -317.5 115t-104.5 323q0 113 35 199t97 137t139 76.5t167 25.5q158 0 266 -57v-237q-97 51 -192 51q-87 0 -133.5 -27t-63.5 -98zM354 879
q19 -97 97 -97q28 0 45.5 16t17.5 42q0 63 -74 63q-42 0 -86 -24z" />
    <glyph glyph-name="seven.numr" horiz-adv-x="735" 
d="M436 553h-354l252 573h-305v267h688v-203z" />
    <glyph glyph-name="eight.numr" horiz-adv-x="837" 
d="M68 1169q0 49 20 93.5t60.5 82t110.5 60t161 22.5q88 0 158 -21.5t110.5 -56.5t61.5 -76.5t20 -84.5q-3 -62 -29 -99t-75 -65q135 -76 135 -215q0 -111 -97 -184.5t-290 -73.5q-103 0 -178.5 20.5t-117.5 56t-61.5 77t-19.5 90.5q0 68 36 121.5t83 76.5q-88 72 -88 176z
M424 877q-10 2 -28.5 7.5t-24.5 6.5q-19 -22 -19 -51q0 -24 18 -41t54 -17q59 0 59 43q0 37 -59 52zM475 1149q-3 47 -59 47q-26 0 -40 -11t-14 -26q0 -17 15 -26t41 -17q34 -12 47 -14q10 23 10 47z" />
    <glyph glyph-name="nine.numr" horiz-adv-x="849" 
d="M35 1128q0 78 29 137t79.5 93.5t112 51.5t133.5 17q213 0 317.5 -115t104.5 -323q0 -113 -35 -199t-97 -137t-139 -76.5t-167 -25.5q-159 0 -267 57v238q97 -51 193 -51q87 0 133.5 27t63.5 98q-79 -54 -185 -54q-75 0 -135.5 26.5t-100.5 87.5t-40 148zM399 1196
q-28 0 -45.5 -15.5t-17.5 -41.5q0 -64 74 -64q41 0 86 25q-19 96 -97 96z" />
    <glyph glyph-name="emdash.case" horiz-adv-x="1640" 
d="M1554 532h-1468v369h1468v-369z" />
    <glyph glyph-name="endash.case" horiz-adv-x="1210" 
d="M1124 532h-1038v369h1038v-369z" />
    <glyph glyph-name="hyphen.case" horiz-adv-x="987" 
d="M86 901h815v-369h-815v369z" />
    <glyph glyph-name="guillemotleft.case" horiz-adv-x="1507" 
d="M1450 279h-496l-286 395v86l286 395h496l-311 -438zM834 279h-496l-285 395v86l285 395h496l-308 -438z" />
    <glyph glyph-name="guillemotright.case" horiz-adv-x="1505" 
d="M1169 279h-497l311 438l-311 438h497l283 -395v-86zM555 279h-498l310 438l-310 438h498l283 -395v-86z" />
    <glyph glyph-name="guilsinglleft.case" horiz-adv-x="890" 
d="M834 279h-496l-285 395v86l285 395h496l-308 -438z" />
    <glyph glyph-name="guilsinglright.case" horiz-adv-x="890" 
d="M555 279h-498l310 438l-310 438h498l283 -395v-86z" />
    <glyph glyph-name="cent.tf" 
d="M997 379q60 7 125 31v-396q-69 -20 -125 -28v-232h-163v213q-18 -2 -56 -2q-90 0 -171 17t-153.5 55t-125.5 94t-84 140t-31 188q0 118 33.5 214t89.5 160t133.5 107.5t162 62.5t177.5 19h25v207h163v-228q61 -13 115 -30v-400q-55 23 -115 35v-227zM834 608
q-109 -21 -109 -116q0 -94 109 -115v231z" />
    <glyph glyph-name="currency.tf" 
d="M483 330l-161 -162l-189 188l150 150q-52 93 -52 211q0 116 54 213l-152 151l186 191l166 -168q90 37 201 37t201 -37l166 168l186 -191l-152 -151q54 -97 54 -213q0 -120 -51 -211l149 -150l-188 -188l-162 162q-90 -37 -203 -37t-203 37zM616 717q0 -26 18 -46t52 -20
t52 20t18 46t-18 45.5t-52 19.5t-52 -19.5t-18 -45.5z" />
    <glyph glyph-name="dollar.tf" 
d="M872 -225h-368v200q-229 31 -400 127v486q133 -85 271 -129.5t250 -44.5q76 0 100.5 12t24.5 37q0 18 -29 32t-76 23t-107 24.5t-123 33t-123 50.5t-107 76t-76 110.5t-29 152.5q0 186 115.5 301t308.5 149v203h368v-207q200 -31 349 -106v-459q-115 66 -246.5 104
t-245.5 37q-86 0 -86 -41q0 -24 37 -40.5t96 -29t130 -28t142 -44.5t130 -70.5t96 -114t37 -168.5q0 -414 -439 -474v-202z" />
    <glyph glyph-name="Euro.tf" 
d="M795 502q87 -78 237 -78q158 0 273 45v-446q-162 -58 -340 -58q-139 0 -264 31.5t-232.5 95t-184.5 168.5t-108 242h-147v164h127v30v31h-127v164h147q31 137 107.5 242t181.5 168t224.5 94.5t248.5 31.5q194 0 356 -57v-444q-127 51 -260 51q-160 0 -246 -86h367v-164
h-436q-2 -10 -2 -31q0 -20 2 -30h436v-164h-360z" />
    <glyph glyph-name="sterling.tf" 
d="M1290 0h-1198v424h43q111 0 111 104v17h-119v340h125v39q0 127 41.5 224.5t117 158t174 90.5t218.5 30q241 0 411 -69v-404q-127 62 -282 62q-77 0 -115.5 -32.5t-38.5 -88.5v-10h316v-340h-316v-6q0 -65 -45 -115h557v-424z" />
    <glyph glyph-name="yen.tf" 
d="M838 1393h575l-362 -656h209v-225h-302v-61h302v-226h-302v-225h-544v225h-301v226h301v61h-301v225h209l-363 656h576l151 -381z" />
    </font>
</defs>
</svg>
